ISO-10303-21;
HEADER;
FILE_DESCRIPTION(('Open CASCADE Model'),'2;1');
FILE_NAME('Open CASCADE Shape Model','2026-10-03T19:57:56',('Author'),(
    'Open CASCADE'),'Open CASCADE STEP processor 7.9','Open CASCADE 7.9'
  ,'Unknown');
FILE_SCHEMA(('AUTOMOTIVE_DESIGN { 1 0 10303 214 1 1 1 1 }'));
ENDSEC;
DATA;
#1 = APPLICATION_PROTOCOL_DEFINITION('international standard',
  'automotive_design',2000,#2);
#2 = APPLICATION_CONTEXT(
  'core data for automotive mechanical design processes');
#3 = SHAPE_DEFINITION_REPRESENTATION(#4,#10);
#4 = PRODUCT_DEFINITION_SHAPE('','',#5);
#5 = PRODUCT_DEFINITION('design','',#6,#9);
#6 = PRODUCT_DEFINITION_FORMATION('','',#7);
#7 = PRODUCT('Open CASCADE STEP translator 7.9 7',
  'Open CASCADE STEP translator 7.9 7','',(#8));
#8 = PRODUCT_CONTEXT('',#2,'mechanical');
#9 = PRODUCT_DEFINITION_CONTEXT('part definition',#2,'design');
#10 = ADVANCED_BREP_SHAPE_REPRESENTATION('',(#11,#15),#945);
#11 = AXIS2_PLACEMENT_3D('',#12,#13,#14);
#12 = CARTESIAN_POINT('',(0.,0.,0.));
#13 = DIRECTION('',(0.,0.,1.));
#14 = DIRECTION('',(1.,0.,-0.));
#15 = MANIFOLD_SOLID_BREP('',#16);
#16 = CLOSED_SHELL('',(#17,#351,#675,#750,#880,#908,#938));
#17 = ADVANCED_FACE('',(#18),#32,.T.);
#18 = FACE_BOUND('',#19,.T.);
#19 = EDGE_LOOP('',(#20,#195,#228,#257,#291,#325));
#20 = ORIENTED_EDGE('',*,*,#21,.F.);
#21 = EDGE_CURVE('',#22,#24,#26,.T.);
#22 = VERTEX_POINT('',#23);
#23 = CARTESIAN_POINT('',(-0.277614452289,-0.795,-1.334157566135E-02));
#24 = VERTEX_POINT('',#25);
#25 = CARTESIAN_POINT('',(-0.277614452289,-1.193,-1.334157566135E-02));
#26 = SURFACE_CURVE('',#27,(#31,#183),.PCURVE_S1.);
#27 = LINE('',#28,#29);
#28 = CARTESIAN_POINT('',(-0.277614452289,0.,-1.334157566135E-02));
#29 = VECTOR('',#30,1.);
#30 = DIRECTION('',(0.,-1.,0.));
#31 = PCURVE('',#32,#177);
#32 = SURFACE_OF_LINEAR_EXTRUSION('',#33,#175);
#33 = B_SPLINE_CURVE_WITH_KNOTS('',3,(#34,#35,#36,#37,#38,#39,#40,#41,
    #42,#43,#44,#45,#46,#47,#48,#49,#50,#51,#52,#53,#54,#55,#56,#57,#58,
    #59,#60,#61,#62,#63,#64,#65,#66,#67,#68,#69,#70,#71,#72,#73,#74,#75,
    #76,#77,#78,#79,#80,#81,#82,#83,#84,#85,#86,#87,#88,#89,#90,#91,#92,
    #93,#94,#95,#96,#97,#98,#99,#100,#101,#102,#103,#104,#105,#106,#107,
    #108,#109,#110,#111,#112,#113,#114,#115,#116,#117,#118,#119,#120,
    #121,#122,#123,#124,#125,#126,#127,#128,#129,#130,#131,#132,#133,
    #134,#135,#136,#137,#138,#139,#140,#141,#142,#143,#144,#145,#146,
    #147,#148,#149,#150,#151,#152,#153,#154,#155,#156,#157,#158,#159,
    #160,#161,#162,#163,#164,#165,#166,#167,#168,#169,#170,#171,#172,
    #173,#174),.UNSPECIFIED.,.F.,.F.,(4,1,1,1,1,1,1,1,1,1,1,1,1,1,1,1,1,
    1,1,1,1,1,1,1,1,1,1,1,1,1,1,1,1,1,1,1,1,1,1,1,1,1,1,1,1,1,1,1,1,1,1,
    1,1,1,1,1,1,1,1,1,1,1,1,1,1,1,1,1,1,1,1,1,1,1,1,1,1,1,1,1,1,1,1,1,1,
    1,1,1,1,1,1,1,1,1,1,1,1,1,1,1,1,1,1,1,1,1,1,1,1,1,1,1,1,1,1,1,1,1,1,
    1,1,1,1,1,1,1,1,1,1,1,1,1,1,1,1,1,1,1,4),(0.,1.481718954734E-04,
    5.923654143001E-04,1.331615210704E-03,2.364316206764E-03,
    3.68822925388E-03,5.300488891255E-03,7.197613044255E-03,
    9.375514474748E-03,1.182951377393E-02,1.455435367653E-02,
    1.754421447371E-02,2.079273030986E-02,2.429300616489E-02,
    2.803763534736E-02,3.201871735284E-02,3.62278759748E-02,
    4.065627759064E-02,4.529464958107E-02,5.013329887643E-02,
    5.516213065662E-02,6.037066726292E-02,6.574806740765E-02,
    7.128314579246E-02,7.696439326713E-02,8.277999767725E-02,
    8.871786556146E-02,9.476564486526E-02,0.100910748839,0.107140381281,
    0.113441563272,0.119801161519,0.126205918408,0.132642483799,
    0.139097448567,0.145557379828,0.152008857715,0.15843851353,
    0.164833068999,0.171190333115,0.177617185483,0.183970606283,
    0.190237820566,0.196406284155,0.202463723868,0.20839817815,
    0.21419803797,0.219852087944,0.225349547869,0.230680115071,
    0.235834008322,0.24080201445,0.245575539312,0.250146665427,
    0.254508219463,0.258653853952,0.262578149265,0.266276744259,
    0.269746507384,0.27298576502,0.275994610817,0.278775329496,
    0.281332980666,0.283676199751,0.285818273564,0.287778508911,
    0.289583774551,0.291269782335,0.292881212262,0.294469596335,
    0.296057943967,0.297668411557,0.299350209222,0.301144821972,
    0.303084498202,0.305192758804,0.307485848987,0.309974331745,
    0.312664462177,0.315559258549,0.318659300712,0.321963315518,
    0.325468605032,0.329171361043,0.333066897481,0.337149823045,
    0.341414169706,0.345853488194,0.350460918438,0.355229240877,
    0.36015091309,0.365218095244,0.370422667128,0.375756239019,
    0.381210158238,0.386775512877,0.392443133946,0.398203596894,
    0.404047223277,0.409964083134,0.416073911921,0.42224525652,
    0.428455111618,0.434691237358,0.440941231262,0.447192559843,
    0.453432590524,0.459648623579,0.465827923857,0.471957752086,
    0.478025395617,0.484018198522,0.489923591004,0.495729118122,
    0.501422467876,0.506991498729,0.512424266658,0.51770905185,
    0.522834385163,0.527789074461,0.532562230946,0.53714329557,
    0.541522065602,0.545688721384,0.549633853296,0.553348488873,
    0.55682412001,0.560052730126,0.563026821098,0.565739439762,
    0.568184203708,0.57035532607,0.572247638987,0.573856615389,
    0.575178388767,0.57620977058,0.576948264985,0.577392080616,
    0.577540139166),.UNSPECIFIED.);
#34 = CARTESIAN_POINT('',(-0.277790962835,0.,-1.236493812418E-02));
#35 = CARTESIAN_POINT('',(-0.277744973186,0.,-1.234692738532E-02));
#36 = CARTESIAN_POINT('',(-0.277561106082,0.,-1.227494530144E-02));
#37 = CARTESIAN_POINT('',(-0.2771477034,0.,-1.211332731371E-02));
#38 = CARTESIAN_POINT('',(-0.276459443882,0.,-1.184500176562E-02));
#39 = CARTESIAN_POINT('',(-0.275497447069,0.,-1.147151360626E-02));
#40 = CARTESIAN_POINT('',(-0.274263284413,0.,-1.099500266933E-02));
#41 = CARTESIAN_POINT('',(-0.272758983102,0.,-1.041818127208E-02));
#42 = CARTESIAN_POINT('',(-0.270987030587,0.,-9.744306379292E-03));
#43 = CARTESIAN_POINT('',(-0.268950379561,0.,-8.977147012475E-03));
#44 = CARTESIAN_POINT('',(-0.266652453086,0.,-8.120947688363E-03));
#45 = CARTESIAN_POINT('',(-0.264097149557,0.,-7.180388748758E-03));
#46 = CARTESIAN_POINT('',(-0.26128884719,0.,-6.160544493137E-03));
#47 = CARTESIAN_POINT('',(-0.258232407709,0.,-5.066840044441E-03));
#48 = CARTESIAN_POINT('',(-0.254933178951,0.,-3.905007866358E-03));
#49 = CARTESIAN_POINT('',(-0.251396996135,0.,-2.681044807612E-03));
#50 = CARTESIAN_POINT('',(-0.247630181571,0.,-1.401170476502E-03));
#51 = CARTESIAN_POINT('',(-0.24363954265,0.,-7.178764989044E-05));
#52 = CARTESIAN_POINT('',(-0.239432368018,0.,1.30055470179E-03));
#53 = CARTESIAN_POINT('',(-0.235016421851,0.,2.709195333651E-03));
#54 = CARTESIAN_POINT('',(-0.230399936265,0.,4.14739130551E-03));
#55 = CARTESIAN_POINT('',(-0.225591601885,0.,5.608345101185E-03));
#56 = CARTESIAN_POINT('',(-0.220600556673,0.,7.08522833435E-03));
#57 = CARTESIAN_POINT('',(-0.215436373143,0.,8.571202249735E-03));
#58 = CARTESIAN_POINT('',(-0.210109044091,0.,1.005943538031E-02));
#59 = CARTESIAN_POINT('',(-0.204628967015,0.,1.154311885658E-02));
#60 = CARTESIAN_POINT('',(-0.199006927349,0.,1.30154799777E-02));
#61 = CARTESIAN_POINT('',(-0.193254080665,0.,1.446979473988E-02));
#62 = CARTESIAN_POINT('',(-0.187381933944,0.,1.589940007695E-02));
#63 = CARTESIAN_POINT('',(-0.18140232598,0.,1.729770657483E-02));
#64 = CARTESIAN_POINT('',(-0.17532740697,0.,1.865821246672E-02));
#65 = CARTESIAN_POINT('',(-0.169169617251,0.,1.99745194428E-02));
#66 = CARTESIAN_POINT('',(-0.162941665202,0.,2.12403515752E-02));
#67 = CARTESIAN_POINT('',(-0.156656503954,0.,2.244957531771E-02));
#68 = CARTESIAN_POINT('',(-0.150327307727,0.,2.359623057339E-02));
#69 = CARTESIAN_POINT('',(-0.143967444154,0.,2.467453680684E-02));
#70 = CARTESIAN_POINT('',(-0.137590455384,0.,2.567901003473E-02));
#71 = CARTESIAN_POINT('',(-0.131209999412,0.,2.66041827417E-02));
#72 = CARTESIAN_POINT('',(-0.124839931736,0.,2.744581862981E-02));
#73 = CARTESIAN_POINT('',(-0.118490230515,0.,2.819702049469E-02));
#74 = CARTESIAN_POINT('',(-0.112132369818,0.,2.886796763448E-02));
#75 = CARTESIAN_POINT('',(-0.105775838021,0.,2.941079689502E-02));
#76 = CARTESIAN_POINT('',(-9.943923716981E-02,0.,2.981746624895E-02));
#77 = CARTESIAN_POINT('',(-9.318136217169E-02,0.,3.008367051689E-02));
#78 = CARTESIAN_POINT('',(-8.701774011655E-02,0.,3.020885693733E-02));
#79 = CARTESIAN_POINT('',(-8.096376576612E-02,0.,3.019360844519E-02));
#80 = CARTESIAN_POINT('',(-7.503462528456E-02,0.,3.003937367309E-02));
#81 = CARTESIAN_POINT('',(-6.924522202999E-02,0.,2.974853634422E-02));
#82 = CARTESIAN_POINT('',(-6.361010156687E-02,0.,2.932438173736E-02));
#83 = CARTESIAN_POINT('',(-5.814337820376E-02,0.,2.877107503053E-02));
#84 = CARTESIAN_POINT('',(-5.285866402519E-02,0.,2.809362105286E-02));
#85 = CARTESIAN_POINT('',(-4.776900167799E-02,0.,2.729781313147E-02));
#86 = CARTESIAN_POINT('',(-4.288680197387E-02,0.,2.639016915672E-02));
#87 = CARTESIAN_POINT('',(-3.822378723374E-02,0.,2.537785579253E-02));
#88 = CARTESIAN_POINT('',(-3.379094108545E-02,0.,2.426860134071E-02));
#89 = CARTESIAN_POINT('',(-2.959846517773E-02,0.,2.307059812578E-02));
#90 = CARTESIAN_POINT('',(-2.565574299071E-02,0.,2.179239533509E-02));
#91 = CARTESIAN_POINT('',(-2.197131062977E-02,0.,2.044278324209E-02));
#92 = CARTESIAN_POINT('',(-1.855283423047E-02,0.,1.903066951757E-02));
#93 = CARTESIAN_POINT('',(-1.540709348294E-02,0.,1.756494778897E-02));
#94 = CARTESIAN_POINT('',(-1.253997104634E-02,0.,1.605435757783E-02));
#95 = CARTESIAN_POINT('',(-9.956448842308E-03,0.,1.450733300725E-02));
#96 = CARTESIAN_POINT('',(-7.660615566151E-03,0.,1.293183535483E-02));
#97 = CARTESIAN_POINT('',(-5.65569791333E-03,0.,1.133516221027E-02));
#98 = CARTESIAN_POINT('',(-3.944144494428E-03,0.,9.72372949223E-03));
#99 = CARTESIAN_POINT('',(-2.527821644869E-03,0.,8.102841005203E-03));
#100 = CARTESIAN_POINT('',(-1.408404468768E-03,0.,6.476540236706E-03));
#101 = CARTESIAN_POINT('',(-5.880088819267E-04,0.,4.847767580905E-03));
#102 = CARTESIAN_POINT('',(-6.973237158088E-05,0.,3.219296659078E-03));
#103 = CARTESIAN_POINT('',(1.427738142601E-04,0.,1.595214038848E-03));
#104 = CARTESIAN_POINT('',(4.859892299523E-05,0.,-7.416129881715E-06));
#105 = CARTESIAN_POINT('',(-3.384920229515E-04,0.,-1.564948537118E-03));
#106 = CARTESIAN_POINT('',(-1.019457406476E-03,0.,-3.052219941554E-03));
#107 = CARTESIAN_POINT('',(-1.984015125554E-03,0.,-4.455832877205E-03));
#108 = CARTESIAN_POINT('',(-3.223954362739E-03,0.,-5.776158876449E-03));
#109 = CARTESIAN_POINT('',(-4.73240940269E-03,0.,-7.015088490999E-03));
#110 = CARTESIAN_POINT('',(-6.503677925528E-03,0.,-8.174644460989E-03));
#111 = CARTESIAN_POINT('',(-8.53248217228E-03,0.,-9.256352119566E-03));
#112 = CARTESIAN_POINT('',(-1.081342199331E-02,0.,-1.026127352257E-02));
#113 = CARTESIAN_POINT('',(-1.33407261188E-02,0.,-1.119020500488E-02));
#114 = CARTESIAN_POINT('',(-1.610818847445E-02,0.,-1.204387588279E-02));
#115 = CARTESIAN_POINT('',(-1.910919016709E-02,0.,-1.282309687167E-02));
#116 = CARTESIAN_POINT('',(-2.233675196315E-02,0.,-1.352886506394E-02));
#117 = CARTESIAN_POINT('',(-2.578359261934E-02,0.,-1.416243798038E-02));
#118 = CARTESIAN_POINT('',(-2.94421832632E-02,0.,-1.472538727395E-02));
#119 = CARTESIAN_POINT('',(-3.330479440721E-02,0.,-1.521963830574E-02));
#120 = CARTESIAN_POINT('',(-3.736353462985E-02,0.,-1.564749886971E-02));
#121 = CARTESIAN_POINT('',(-4.16103808351E-02,0.,-1.601167848587E-02));
#122 = CARTESIAN_POINT('',(-4.603720030663E-02,0.,-1.631529869432E-02));
#123 = CARTESIAN_POINT('',(-5.063576490998E-02,0.,-1.656189431119E-02));
#124 = CARTESIAN_POINT('',(-5.539775790565E-02,0.,-1.675540545488E-02));
#125 = CARTESIAN_POINT('',(-6.031477395935E-02,0.,-1.690016017131E-02));
#126 = CARTESIAN_POINT('',(-6.537831307247E-02,0.,-1.700084765878E-02));
#127 = CARTESIAN_POINT('',(-7.057976929502E-02,0.,-1.706248216119E-02));
#128 = CARTESIAN_POINT('',(-7.591041521155E-02,0.,-1.709035834259E-02));
#129 = CARTESIAN_POINT('',(-8.136138329515E-02,0.,-1.708999721928E-02));
#130 = CARTESIAN_POINT('',(-8.692364529523E-02,0.,-1.706708962574E-02));
#131 = CARTESIAN_POINT('',(-9.258799085732E-02,0.,-1.702741492624E-02));
#132 = CARTESIAN_POINT('',(-9.834500655552E-02,0.,-1.697682613026E-02));
#133 = CARTESIAN_POINT('',(-0.10418505648,0.,-1.692095920026E-02));
#134 = CARTESIAN_POINT('',(-0.110141567937,0.,-1.686557677972E-02));
#135 = CARTESIAN_POINT('',(-0.116207374915,0.,-1.681427226161E-02));
#136 = CARTESIAN_POINT('',(-0.122370475868,0.,-1.672822987277E-02));
#137 = CARTESIAN_POINT('',(-0.128575353667,0.,-1.662236484523E-02));
#138 = CARTESIAN_POINT('',(-0.134806107382,0.,-1.649774518504E-02));
#139 = CARTESIAN_POINT('',(-0.141050382512,0.,-1.635885051196E-02));
#140 = CARTESIAN_POINT('',(-0.147295704014,0.,-1.620894970595E-02));
#141 = CARTESIAN_POINT('',(-0.153529509842,0.,-1.605131540454E-02));
#142 = CARTESIAN_POINT('',(-0.159739173629,0.,-1.588885999828E-02));
#143 = CARTESIAN_POINT('',(-0.165912031995,0.,-1.572420585599E-02));
#144 = CARTESIAN_POINT('',(-0.172035411958,0.,-1.555964916417E-02));
#145 = CARTESIAN_POINT('',(-0.178096659325,0.,-1.539716211333E-02));
#146 = CARTESIAN_POINT('',(-0.184083167476,0.,-1.523839439758E-02));
#147 = CARTESIAN_POINT('',(-0.189982406392,0.,-1.508468378004E-02));
#148 = CARTESIAN_POINT('',(-0.195781951711,0.,-1.493707226427E-02));
#149 = CARTESIAN_POINT('',(-0.201469513646,0.,-1.479632772258E-02));
#150 = CARTESIAN_POINT('',(-0.207032965662,0.,-1.466296980565E-02));
#151 = CARTESIAN_POINT('',(-0.212460372858,0.,-1.453729912374E-02));
#152 = CARTESIAN_POINT('',(-0.217740020014,0.,-1.441942858913E-02));
#153 = CARTESIAN_POINT('',(-0.222860439344,0.,-1.430931582756E-02));
#154 = CARTESIAN_POINT('',(-0.227810437995,0.,-1.420679559938E-02));
#155 = CARTESIAN_POINT('',(-0.232579125356,0.,-1.41116112441E-02));
#156 = CARTESIAN_POINT('',(-0.23715594027,0.,-1.402344426294E-02));
#157 = CARTESIAN_POINT('',(-0.241530678195,0.,-1.39419412808E-02));
#158 = CARTESIAN_POINT('',(-0.245693518394,0.,-1.386673777558E-02));
#159 = CARTESIAN_POINT('',(-0.249635051162,0.,-1.37974781227E-02));
#160 = CARTESIAN_POINT('',(-0.253346305081,0.,-1.373383167029E-02));
#161 = CARTESIAN_POINT('',(-0.25681877426,0.,-1.367550472917E-02));
#162 = CARTESIAN_POINT('',(-0.260044445434,0.,-1.362224852547E-02));
#163 = CARTESIAN_POINT('',(-0.263015824783,0.,-1.357386331636E-02));
#164 = CARTESIAN_POINT('',(-0.265725964262,0.,-1.353019900667E-02));
#165 = CARTESIAN_POINT('',(-0.268168487179,0.,-1.349115272023E-02));
#166 = CARTESIAN_POINT('',(-0.270337612755,0.,-1.345666387259E-02));
#167 = CARTESIAN_POINT('',(-0.27222817933,0.,-1.342670735731E-02));
#168 = CARTESIAN_POINT('',(-0.273835665889,0.,-1.340128549588E-02));
#169 = CARTESIAN_POINT('',(-0.275156211576,0.,-1.338041940966E-02));
#170 = CARTESIAN_POINT('',(-0.27618663286,0.,-1.336414045286E-02));
#171 = CARTESIAN_POINT('',(-0.276924438042,0.,-1.335248229888E-02));
#172 = CARTESIAN_POINT('',(-0.277367838859,0.,-1.334547420142E-02));
#173 = CARTESIAN_POINT('',(-0.277565105605,-0.,-1.334235577889E-02));
#174 = CARTESIAN_POINT('',(-0.277614452289,0.,-1.334157566135E-02));
#175 = VECTOR('',#176,1.);
#176 = DIRECTION('',(-0.,1.,-0.));
#177 = DEFINITIONAL_REPRESENTATION('',(#178),#182);
#178 = LINE('',#179,#180);
#179 = CARTESIAN_POINT('',(0.577540139166,0.));
#180 = VECTOR('',#181,1.);
#181 = DIRECTION('',(0.,-1.));
#182 = ( GEOMETRIC_REPRESENTATION_CONTEXT(2) 
PARAMETRIC_REPRESENTATION_CONTEXT() REPRESENTATION_CONTEXT('2D SPACE',''
  ) );
#183 = PCURVE('',#184,#189);
#184 = PLANE('',#185);
#185 = AXIS2_PLACEMENT_3D('',#186,#187,#188);
#186 = CARTESIAN_POINT('',(-0.277614452289,0.,-1.334157566135E-02));
#187 = DIRECTION('',(-0.98405732944,-0.,-0.17785154589));
#188 = DIRECTION('',(-0.17785154589,0.,0.98405732944));
#189 = DEFINITIONAL_REPRESENTATION('',(#190),#194);
#190 = LINE('',#191,#192);
#191 = CARTESIAN_POINT('',(0.,0.));
#192 = VECTOR('',#193,1.);
#193 = DIRECTION('',(0.,-1.));
#194 = ( GEOMETRIC_REPRESENTATION_CONTEXT(2) 
PARAMETRIC_REPRESENTATION_CONTEXT() REPRESENTATION_CONTEXT('2D SPACE',''
  ) );
#195 = ORIENTED_EDGE('',*,*,#196,.T.);
#196 = EDGE_CURVE('',#22,#197,#199,.T.);
#197 = VERTEX_POINT('',#198);
#198 = CARTESIAN_POINT('',(-0.208045610031,-0.795,-1.463993131042E-02));
#199 = SURFACE_CURVE('',#200,(#207,#213),.PCURVE_S1.);
#200 = B_SPLINE_CURVE_WITH_KNOTS('',5,(#201,#202,#203,#204,#205,#206),
  .UNSPECIFIED.,.F.,.F.,(6,6),(0.,1.),.PIECEWISE_BEZIER_KNOTS.);
#201 = CARTESIAN_POINT('',(-0.277614452289,-0.795,-1.334157566135E-02));
#202 = CARTESIAN_POINT('',(-0.263699963366,-0.795,-1.356154863584E-02));
#203 = CARTESIAN_POINT('',(-0.249785431114,-0.795,-1.377902840237E-02));
#204 = CARTESIAN_POINT('',(-0.235871308234,-0.795,-1.402458321565E-02));
#205 = CARTESIAN_POINT('',(-0.22195802553,-0.795,-1.431419237014E-02));
#206 = CARTESIAN_POINT('',(-0.208045610031,-0.795,-1.463993131042E-02));
#207 = PCURVE('',#32,#208);
#208 = DEFINITIONAL_REPRESENTATION('',(#209),#212);
#209 = B_SPLINE_CURVE_WITH_KNOTS('',1,(#210,#211),.UNSPECIFIED.,.F.,.F.,
  (2,2),(0.,1.),.PIECEWISE_BEZIER_KNOTS.);
#210 = CARTESIAN_POINT('',(0.577540139166,-0.795));
#211 = CARTESIAN_POINT('',(0.507958983797,-0.795));
#212 = ( GEOMETRIC_REPRESENTATION_CONTEXT(2) 
PARAMETRIC_REPRESENTATION_CONTEXT() REPRESENTATION_CONTEXT('2D SPACE',''
  ) );
#213 = PCURVE('',#214,#219);
#214 = PLANE('',#215);
#215 = AXIS2_PLACEMENT_3D('',#216,#217,#218);
#216 = CARTESIAN_POINT('',(-0.162381476815,-0.795,-1.001242279516));
#217 = DIRECTION('',(0.,1.,0.));
#218 = DIRECTION('',(-0.998930602741,0.,-4.623473702433E-02));
#219 = DEFINITIONAL_REPRESENTATION('',(#220),#227);
#220 = B_SPLINE_CURVE_WITH_KNOTS('',5,(#221,#222,#223,#224,#225,#226),
  .UNSPECIFIED.,.F.,.F.,(6,6),(0.,1.),.PIECEWISE_BEZIER_KNOTS.);
#221 = CARTESIAN_POINT('',(6.943441639718E-02,0.992172011868));
#222 = CARTESIAN_POINT('',(5.554497798273E-02,0.991308941396));
#223 = CARTESIAN_POINT('',(4.165538101333E-02,0.990448359462));
#224 = CARTESIAN_POINT('',(2.776749102065E-02,0.989559751432));
#225 = CARTESIAN_POINT('',(1.388247714536E-02,0.988627175018));
#226 = CARTESIAN_POINT('',(-2.775557561563E-17,0.98765854755));
#227 = ( GEOMETRIC_REPRESENTATION_CONTEXT(2) 
PARAMETRIC_REPRESENTATION_CONTEXT() REPRESENTATION_CONTEXT('2D SPACE',''
  ) );
#228 = ORIENTED_EDGE('',*,*,#229,.T.);
#229 = EDGE_CURVE('',#197,#230,#232,.T.);
#230 = VERTEX_POINT('',#231);
#231 = CARTESIAN_POINT('',(-0.207078391647,-0.795,-1.466264704701E-02));
#232 = SURFACE_CURVE('',#233,(#239,#248),.PCURVE_S1.);
#233 = B_SPLINE_CURVE_WITH_KNOTS('',4,(#234,#235,#236,#237,#238),
  .UNSPECIFIED.,.F.,.F.,(5,5),(0.,1.),.PIECEWISE_BEZIER_KNOTS.);
#234 = CARTESIAN_POINT('',(-0.220518236686,-0.795,-1.435985853621E-02));
#235 = CARTESIAN_POINT('',(-0.217023979441,-0.795,-1.443491208245E-02));
#236 = CARTESIAN_POINT('',(-0.21352979311,-0.795,-1.451253140771E-02));
#237 = CARTESIAN_POINT('',(-0.210035619844,-0.795,-1.459272614458E-02));
#238 = CARTESIAN_POINT('',(-0.206541532589,-0.795,-1.467531544604E-02));
#239 = PCURVE('',#32,#240);
#240 = DEFINITIONAL_REPRESENTATION('',(#241),#247);
#241 = B_SPLINE_CURVE_WITH_KNOTS('',4,(#242,#243,#244,#245,#246),
  .UNSPECIFIED.,.F.,.F.,(5,5),(0.,1.),.PIECEWISE_BEZIER_KNOTS.);
#242 = CARTESIAN_POINT('',(0.52043475598,-0.795));
#243 = CARTESIAN_POINT('',(0.516939692882,-0.795));
#244 = CARTESIAN_POINT('',(0.513444613921,-0.795));
#245 = CARTESIAN_POINT('',(0.509949580096,-0.795));
#246 = CARTESIAN_POINT('',(0.506454516993,-0.795));
#247 = ( GEOMETRIC_REPRESENTATION_CONTEXT(2) 
PARAMETRIC_REPRESENTATION_CONTEXT() REPRESENTATION_CONTEXT('2D SPACE',''
  ) );
#248 = PCURVE('',#214,#249);
#249 = DEFINITIONAL_REPRESENTATION('',(#250),#256);
#250 = B_SPLINE_CURVE_WITH_KNOTS('',4,(#251,#252,#253,#254,#255),
  .UNSPECIFIED.,.F.,.F.,(5,5),(0.,1.),.PIECEWISE_BEZIER_KNOTS.);
#251 = CARTESIAN_POINT('',(1.244633937118E-02,0.988514989428));
#252 = CARTESIAN_POINT('',(8.959288956494E-03,0.988278460079));
#253 = CARTESIAN_POINT('',(5.472428008073E-03,0.988039370974));
#254 = CARTESIAN_POINT('',(1.985699183701E-03,0.987797709815));
#255 = CARTESIAN_POINT('',(-1.500833009402E-03,0.987553660629));
#256 = ( GEOMETRIC_REPRESENTATION_CONTEXT(2) 
PARAMETRIC_REPRESENTATION_CONTEXT() REPRESENTATION_CONTEXT('2D SPACE',''
  ) );
#257 = ORIENTED_EDGE('',*,*,#258,.F.);
#258 = EDGE_CURVE('',#259,#230,#261,.T.);
#259 = VERTEX_POINT('',#260);
#260 = CARTESIAN_POINT('',(-0.207078391647,-1.193,-1.466264704701E-02));
#261 = SURFACE_CURVE('',#262,(#268,#277),.PCURVE_S1.);
#262 = B_SPLINE_CURVE_WITH_KNOTS('',4,(#263,#264,#265,#266,#267),
  .UNSPECIFIED.,.F.,.F.,(5,5),(0.,1.),.PIECEWISE_BEZIER_KNOTS.);
#263 = CARTESIAN_POINT('',(-0.207078391647,-1.1930006,
    -1.466264704701E-02));
#264 = CARTESIAN_POINT('',(-0.207078391647,-1.0935003,
    -1.466264704701E-02));
#265 = CARTESIAN_POINT('',(-0.207078391647,-0.994,-1.466264704701E-02));
#266 = CARTESIAN_POINT('',(-0.207078391647,-0.8944997,
    -1.466264704701E-02));
#267 = CARTESIAN_POINT('',(-0.207078391647,-0.7949994,
    -1.466264704701E-02));
#268 = PCURVE('',#32,#269);
#269 = DEFINITIONAL_REPRESENTATION('',(#270),#276);
#270 = B_SPLINE_CURVE_WITH_KNOTS('',4,(#271,#272,#273,#274,#275),
  .UNSPECIFIED.,.F.,.F.,(5,5),(0.,1.),.PIECEWISE_BEZIER_KNOTS.);
#271 = CARTESIAN_POINT('',(0.506991498729,-1.1930006));
#272 = CARTESIAN_POINT('',(0.506991498729,-1.0935003));
#273 = CARTESIAN_POINT('',(0.506991498729,-0.994));
#274 = CARTESIAN_POINT('',(0.506991498729,-0.8944997));
#275 = CARTESIAN_POINT('',(0.506991498729,-0.7949994));
#276 = ( GEOMETRIC_REPRESENTATION_CONTEXT(2) 
PARAMETRIC_REPRESENTATION_CONTEXT() REPRESENTATION_CONTEXT('2D SPACE',''
  ) );
#277 = PCURVE('',#278,#283);
#278 = CYLINDRICAL_SURFACE('',#279,1.244633937118E-02);
#279 = AXIS2_PLACEMENT_3D('',#280,#281,#282);
#280 = CARTESIAN_POINT('',(-0.208616213839,-1.193,-2.311676775576E-03));
#281 = DIRECTION('',(0.,1.,0.));
#282 = DIRECTION('',(-0.998930602741,0.,-4.623473702433E-02));
#283 = DEFINITIONAL_REPRESENTATION('',(#284),#290);
#284 = B_SPLINE_CURVE_WITH_KNOTS('',4,(#285,#286,#287,#288,#289),
  .UNSPECIFIED.,.F.,.F.,(5,5),(0.,1.),.PIECEWISE_BEZIER_KNOTS.);
#285 = CARTESIAN_POINT('',(4.634767471647,-6.E-07));
#286 = CARTESIAN_POINT('',(4.634767471647,9.94997E-02));
#287 = CARTESIAN_POINT('',(4.634767471647,0.199));
#288 = CARTESIAN_POINT('',(4.634767471647,0.2985003));
#289 = CARTESIAN_POINT('',(4.634767471647,0.3980006));
#290 = ( GEOMETRIC_REPRESENTATION_CONTEXT(2) 
PARAMETRIC_REPRESENTATION_CONTEXT() REPRESENTATION_CONTEXT('2D SPACE',''
  ) );
#291 = ORIENTED_EDGE('',*,*,#292,.F.);
#292 = EDGE_CURVE('',#293,#259,#295,.T.);
#293 = VERTEX_POINT('',#294);
#294 = CARTESIAN_POINT('',(-0.208045610031,-1.193,-1.463993131042E-02));
#295 = SURFACE_CURVE('',#296,(#302,#311),.PCURVE_S1.);
#296 = B_SPLINE_CURVE_WITH_KNOTS('',4,(#297,#298,#299,#300,#301),
  .UNSPECIFIED.,.F.,.F.,(5,5),(0.,1.),.PIECEWISE_BEZIER_KNOTS.);
#297 = CARTESIAN_POINT('',(-0.220518236686,-1.193,-1.435985853621E-02));
#298 = CARTESIAN_POINT('',(-0.217023979441,-1.193,-1.443491208245E-02));
#299 = CARTESIAN_POINT('',(-0.21352979311,-1.193,-1.451253140771E-02));
#300 = CARTESIAN_POINT('',(-0.210035619844,-1.193,-1.459272614458E-02));
#301 = CARTESIAN_POINT('',(-0.206541532589,-1.193,-1.467531544604E-02));
#302 = PCURVE('',#32,#303);
#303 = DEFINITIONAL_REPRESENTATION('',(#304),#310);
#304 = B_SPLINE_CURVE_WITH_KNOTS('',4,(#305,#306,#307,#308,#309),
  .UNSPECIFIED.,.F.,.F.,(5,5),(0.,1.),.PIECEWISE_BEZIER_KNOTS.);
#305 = CARTESIAN_POINT('',(0.52043475598,-1.193));
#306 = CARTESIAN_POINT('',(0.516939692882,-1.193));
#307 = CARTESIAN_POINT('',(0.513444613921,-1.193));
#308 = CARTESIAN_POINT('',(0.509949580096,-1.193));
#309 = CARTESIAN_POINT('',(0.506454516993,-1.193));
#310 = ( GEOMETRIC_REPRESENTATION_CONTEXT(2) 
PARAMETRIC_REPRESENTATION_CONTEXT() REPRESENTATION_CONTEXT('2D SPACE',''
  ) );
#311 = PCURVE('',#312,#317);
#312 = PLANE('',#313);
#313 = AXIS2_PLACEMENT_3D('',#314,#315,#316);
#314 = CARTESIAN_POINT('',(-0.162381476815,-1.193,-1.001242279516));
#315 = DIRECTION('',(0.,1.,0.));
#316 = DIRECTION('',(-0.998930602741,0.,-4.623473702433E-02));
#317 = DEFINITIONAL_REPRESENTATION('',(#318),#324);
#318 = B_SPLINE_CURVE_WITH_KNOTS('',4,(#319,#320,#321,#322,#323),
  .UNSPECIFIED.,.F.,.F.,(5,5),(0.,1.),.PIECEWISE_BEZIER_KNOTS.);
#319 = CARTESIAN_POINT('',(1.244633937118E-02,0.988514989428));
#320 = CARTESIAN_POINT('',(8.959288956494E-03,0.988278460079));
#321 = CARTESIAN_POINT('',(5.472428008073E-03,0.988039370974));
#322 = CARTESIAN_POINT('',(1.985699183701E-03,0.987797709815));
#323 = CARTESIAN_POINT('',(-1.500833009402E-03,0.987553660629));
#324 = ( GEOMETRIC_REPRESENTATION_CONTEXT(2) 
PARAMETRIC_REPRESENTATION_CONTEXT() REPRESENTATION_CONTEXT('2D SPACE',''
  ) );
#325 = ORIENTED_EDGE('',*,*,#326,.T.);
#326 = EDGE_CURVE('',#293,#24,#327,.T.);
#327 = SURFACE_CURVE('',#328,(#335,#341),.PCURVE_S1.);
#328 = B_SPLINE_CURVE_WITH_KNOTS('',5,(#329,#330,#331,#332,#333,#334),
  .UNSPECIFIED.,.F.,.F.,(6,6),(0.961450218388,1.961450218388),
  .PIECEWISE_BEZIER_KNOTS.);
#329 = CARTESIAN_POINT('',(-0.208045610031,-1.193,-1.463993131042E-02));
#330 = CARTESIAN_POINT('',(-0.22195802553,-1.193,-1.431419237014E-02));
#331 = CARTESIAN_POINT('',(-0.235871308234,-1.193,-1.402458321565E-02));
#332 = CARTESIAN_POINT('',(-0.249785431114,-1.193,-1.377902840236E-02));
#333 = CARTESIAN_POINT('',(-0.26369996336,-1.192999999999,
    -1.356154863641E-02));
#334 = CARTESIAN_POINT('',(-0.277614452289,-1.193,-1.334157566135E-02));
#335 = PCURVE('',#32,#336);
#336 = DEFINITIONAL_REPRESENTATION('',(#337),#340);
#337 = B_SPLINE_CURVE_WITH_KNOTS('',1,(#338,#339),.UNSPECIFIED.,.F.,.F.,
  (2,2),(0.961450218388,1.961450218388),.PIECEWISE_BEZIER_KNOTS.);
#338 = CARTESIAN_POINT('',(0.507958983797,-1.193));
#339 = CARTESIAN_POINT('',(0.577540139166,-1.193));
#340 = ( GEOMETRIC_REPRESENTATION_CONTEXT(2) 
PARAMETRIC_REPRESENTATION_CONTEXT() REPRESENTATION_CONTEXT('2D SPACE',''
  ) );
#341 = PCURVE('',#312,#342);
#342 = DEFINITIONAL_REPRESENTATION('',(#343),#350);
#343 = B_SPLINE_CURVE_WITH_KNOTS('',5,(#344,#345,#346,#347,#348,#349),
  .UNSPECIFIED.,.F.,.F.,(6,6),(0.961450218388,1.961450218388),
  .PIECEWISE_BEZIER_KNOTS.);
#344 = CARTESIAN_POINT('',(-2.775557561563E-17,0.98765854755));
#345 = CARTESIAN_POINT('',(1.388247714536E-02,0.988627175018));
#346 = CARTESIAN_POINT('',(2.776749102065E-02,0.989559751432));
#347 = CARTESIAN_POINT('',(4.165538101331E-02,0.990448359462));
#348 = CARTESIAN_POINT('',(5.554497797711E-02,0.991308941395));
#349 = CARTESIAN_POINT('',(6.943441639718E-02,0.992172011868));
#350 = ( GEOMETRIC_REPRESENTATION_CONTEXT(2) 
PARAMETRIC_REPRESENTATION_CONTEXT() REPRESENTATION_CONTEXT('2D SPACE',''
  ) );
#351 = ADVANCED_FACE('',(#352),#312,.F.);
#352 = FACE_BOUND('',#353,.F.);
#353 = EDGE_LOOP('',(#354,#533,#571,#603,#631,#653,#654,#655));
#354 = ORIENTED_EDGE('',*,*,#355,.F.);
#355 = EDGE_CURVE('',#356,#358,#360,.T.);
#356 = VERTEX_POINT('',#357);
#357 = CARTESIAN_POINT('',(-0.213671536924,-1.193,9.061760359059E-03));
#358 = VERTEX_POINT('',#359);
#359 = CARTESIAN_POINT('',(-0.277790962835,-1.193,-1.236493812418E-02));
#360 = SURFACE_CURVE('',#361,(#368,#378),.PCURVE_S1.);
#361 = B_SPLINE_CURVE_WITH_KNOTS('',5,(#362,#363,#364,#365,#366,#367),
  .UNSPECIFIED.,.F.,.F.,(6,6),(0.,1.),.PIECEWISE_BEZIER_KNOTS.);
#362 = CARTESIAN_POINT('',(-0.209199983269,-1.193,1.030102928659E-02));
#363 = CARTESIAN_POINT('',(-0.223142222817,-1.193,6.486699661755E-03));
#364 = CARTESIAN_POINT('',(-0.236985594532,-1.193,2.312227236599E-03));
#365 = CARTESIAN_POINT('',(-0.250720980924,-1.193,-2.210700410248E-03));
#366 = CARTESIAN_POINT('',(-0.264331700634,-1.193,-7.093942072189E-03));
#367 = CARTESIAN_POINT('',(-0.277790962835,-1.193,-1.236493812418E-02));
#368 = PCURVE('',#312,#369);
#369 = DEFINITIONAL_REPRESENTATION('',(#370),#377);
#370 = B_SPLINE_CURVE_WITH_KNOTS('',5,(#371,#372,#373,#374,#375,#376),
  .UNSPECIFIED.,.F.,.F.,(6,6),(0.,1.),.PIECEWISE_BEZIER_KNOTS.);
#371 = CARTESIAN_POINT('',(-2.775557561563E-17,1.012626208495));
#372 = CARTESIAN_POINT('',(1.410368428254E-02,1.009460573683));
#373 = CARTESIAN_POINT('',(2.81252575689E-02,1.005930610078));
#374 = CARTESIAN_POINT('',(4.205507174664E-02,1.002047571215));
#375 = CARTESIAN_POINT('',(5.587701158369E-02,0.997798839725));
#376 = CARTESIAN_POINT('',(6.956558360282E-02,0.99315576591));
#377 = ( GEOMETRIC_REPRESENTATION_CONTEXT(2) 
PARAMETRIC_REPRESENTATION_CONTEXT() REPRESENTATION_CONTEXT('2D SPACE',''
  ) );
#378 = PCURVE('',#379,#524);
#379 = SURFACE_OF_LINEAR_EXTRUSION('',#380,#522);
#380 = B_SPLINE_CURVE_WITH_KNOTS('',3,(#381,#382,#383,#384,#385,#386,
    #387,#388,#389,#390,#391,#392,#393,#394,#395,#396,#397,#398,#399,
    #400,#401,#402,#403,#404,#405,#406,#407,#408,#409,#410,#411,#412,
    #413,#414,#415,#416,#417,#418,#419,#420,#421,#422,#423,#424,#425,
    #426,#427,#428,#429,#430,#431,#432,#433,#434,#435,#436,#437,#438,
    #439,#440,#441,#442,#443,#444,#445,#446,#447,#448,#449,#450,#451,
    #452,#453,#454,#455,#456,#457,#458,#459,#460,#461,#462,#463,#464,
    #465,#466,#467,#468,#469,#470,#471,#472,#473,#474,#475,#476,#477,
    #478,#479,#480,#481,#482,#483,#484,#485,#486,#487,#488,#489,#490,
    #491,#492,#493,#494,#495,#496,#497,#498,#499,#500,#501,#502,#503,
    #504,#505,#506,#507,#508,#509,#510,#511,#512,#513,#514,#515,#516,
    #517,#518,#519,#520,#521),.UNSPECIFIED.,.F.,.F.,(4,1,1,1,1,1,1,1,1,1
    ,1,1,1,1,1,1,1,1,1,1,1,1,1,1,1,1,1,1,1,1,1,1,1,1,1,1,1,1,1,1,1,1,1,1
    ,1,1,1,1,1,1,1,1,1,1,1,1,1,1,1,1,1,1,1,1,1,1,1,1,1,1,1,1,1,1,1,1,1,1
    ,1,1,1,1,1,1,1,1,1,1,1,1,1,1,1,1,1,1,1,1,1,1,1,1,1,1,1,1,1,1,1,1,1,1
    ,1,1,1,1,1,1,1,1,1,1,1,1,1,1,1,1,1,1,1,1,1,1,1,1,1,1,4),(0.,
    1.481718954734E-04,5.923654143001E-04,1.331615210704E-03,
    2.364316206764E-03,3.68822925388E-03,5.300488891255E-03,
    7.197613044255E-03,9.375514474748E-03,1.182951377393E-02,
    1.455435367653E-02,1.754421447371E-02,2.079273030986E-02,
    2.429300616489E-02,2.803763534736E-02,3.201871735284E-02,
    3.62278759748E-02,4.065627759064E-02,4.529464958107E-02,
    5.013329887643E-02,5.516213065662E-02,6.037066726292E-02,
    6.574806740765E-02,7.128314579246E-02,7.696439326713E-02,
    8.277999767725E-02,8.871786556146E-02,9.476564486526E-02,
    0.100910748839,0.107140381281,0.113441563272,0.119801161519,
    0.126205918408,0.132642483799,0.139097448567,0.145557379828,
    0.152008857715,0.15843851353,0.164833068999,0.171190333115,
    0.177617185483,0.183970606283,0.190237820566,0.196406284155,
    0.202463723868,0.20839817815,0.21419803797,0.219852087944,
    0.225349547869,0.230680115071,0.235834008322,0.24080201445,
    0.245575539312,0.250146665427,0.254508219463,0.258653853952,
    0.262578149265,0.266276744259,0.269746507384,0.27298576502,
    0.275994610817,0.278775329496,0.281332980666,0.283676199751,
    0.285818273564,0.287778508911,0.289583774551,0.291269782335,
    0.292881212262,0.294469596335,0.296057943967,0.297668411557,
    0.299350209222,0.301144821972,0.303084498202,0.305192758804,
    0.307485848987,0.309974331745,0.312664462177,0.315559258549,
    0.318659300712,0.321963315518,0.325468605032,0.329171361043,
    0.333066897481,0.337149823045,0.341414169706,0.345853488194,
    0.350460918438,0.355229240877,0.36015091309,0.365218095244,
    0.370422667128,0.375756239019,0.381210158238,0.386775512877,
    0.392443133946,0.398203596894,0.404047223277,0.409964083134,
    0.416073911921,0.42224525652,0.428455111618,0.434691237358,
    0.440941231262,0.447192559843,0.453432590524,0.459648623579,
    0.465827923857,0.471957752086,0.478025395617,0.484018198522,
    0.489923591004,0.495729118122,0.501422467876,0.506991498729,
    0.512424266658,0.51770905185,0.522834385163,0.527789074461,
    0.532562230946,0.53714329557,0.541522065602,0.545688721384,
    0.549633853296,0.553348488873,0.55682412001,0.560052730126,
    0.563026821098,0.565739439762,0.568184203708,0.57035532607,
    0.572247638987,0.573856615389,0.575178388767,0.57620977058,
    0.576948264985,0.577392080616,0.577540139166),.UNSPECIFIED.);
#381 = CARTESIAN_POINT('',(-0.277790962835,0.,-1.236493812418E-02));
#382 = CARTESIAN_POINT('',(-0.277744973186,0.,-1.234692738532E-02));
#383 = CARTESIAN_POINT('',(-0.277561106082,0.,-1.227494530144E-02));
#384 = CARTESIAN_POINT('',(-0.2771477034,0.,-1.211332731371E-02));
#385 = CARTESIAN_POINT('',(-0.276459443882,0.,-1.184500176562E-02));
#386 = CARTESIAN_POINT('',(-0.275497447069,0.,-1.147151360626E-02));
#387 = CARTESIAN_POINT('',(-0.274263284413,0.,-1.099500266933E-02));
#388 = CARTESIAN_POINT('',(-0.272758983102,0.,-1.041818127208E-02));
#389 = CARTESIAN_POINT('',(-0.270987030587,0.,-9.744306379292E-03));
#390 = CARTESIAN_POINT('',(-0.268950379561,0.,-8.977147012475E-03));
#391 = CARTESIAN_POINT('',(-0.266652453086,0.,-8.120947688363E-03));
#392 = CARTESIAN_POINT('',(-0.264097149557,0.,-7.180388748758E-03));
#393 = CARTESIAN_POINT('',(-0.26128884719,0.,-6.160544493137E-03));
#394 = CARTESIAN_POINT('',(-0.258232407709,0.,-5.066840044441E-03));
#395 = CARTESIAN_POINT('',(-0.254933178951,0.,-3.905007866358E-03));
#396 = CARTESIAN_POINT('',(-0.251396996135,0.,-2.681044807612E-03));
#397 = CARTESIAN_POINT('',(-0.247630181571,0.,-1.401170476502E-03));
#398 = CARTESIAN_POINT('',(-0.24363954265,0.,-7.178764989044E-05));
#399 = CARTESIAN_POINT('',(-0.239432368018,0.,1.30055470179E-03));
#400 = CARTESIAN_POINT('',(-0.235016421851,0.,2.709195333651E-03));
#401 = CARTESIAN_POINT('',(-0.230399936265,0.,4.14739130551E-03));
#402 = CARTESIAN_POINT('',(-0.225591601885,0.,5.608345101185E-03));
#403 = CARTESIAN_POINT('',(-0.220600556673,0.,7.08522833435E-03));
#404 = CARTESIAN_POINT('',(-0.215436373143,0.,8.571202249735E-03));
#405 = CARTESIAN_POINT('',(-0.210109044091,0.,1.005943538031E-02));
#406 = CARTESIAN_POINT('',(-0.204628967015,0.,1.154311885658E-02));
#407 = CARTESIAN_POINT('',(-0.199006927349,0.,1.30154799777E-02));
#408 = CARTESIAN_POINT('',(-0.193254080665,0.,1.446979473988E-02));
#409 = CARTESIAN_POINT('',(-0.187381933944,0.,1.589940007695E-02));
#410 = CARTESIAN_POINT('',(-0.18140232598,0.,1.729770657483E-02));
#411 = CARTESIAN_POINT('',(-0.17532740697,0.,1.865821246672E-02));
#412 = CARTESIAN_POINT('',(-0.169169617251,0.,1.99745194428E-02));
#413 = CARTESIAN_POINT('',(-0.162941665202,0.,2.12403515752E-02));
#414 = CARTESIAN_POINT('',(-0.156656503954,0.,2.244957531771E-02));
#415 = CARTESIAN_POINT('',(-0.150327307727,0.,2.359623057339E-02));
#416 = CARTESIAN_POINT('',(-0.143967444154,0.,2.467453680684E-02));
#417 = CARTESIAN_POINT('',(-0.137590455384,0.,2.567901003473E-02));
#418 = CARTESIAN_POINT('',(-0.131209999412,0.,2.66041827417E-02));
#419 = CARTESIAN_POINT('',(-0.124839931736,0.,2.744581862981E-02));
#420 = CARTESIAN_POINT('',(-0.118490230515,0.,2.819702049469E-02));
#421 = CARTESIAN_POINT('',(-0.112132369818,0.,2.886796763448E-02));
#422 = CARTESIAN_POINT('',(-0.105775838021,0.,2.941079689502E-02));
#423 = CARTESIAN_POINT('',(-9.943923716981E-02,0.,2.981746624895E-02));
#424 = CARTESIAN_POINT('',(-9.318136217169E-02,0.,3.008367051689E-02));
#425 = CARTESIAN_POINT('',(-8.701774011655E-02,0.,3.020885693733E-02));
#426 = CARTESIAN_POINT('',(-8.096376576612E-02,0.,3.019360844519E-02));
#427 = CARTESIAN_POINT('',(-7.503462528456E-02,0.,3.003937367309E-02));
#428 = CARTESIAN_POINT('',(-6.924522202999E-02,0.,2.974853634422E-02));
#429 = CARTESIAN_POINT('',(-6.361010156687E-02,0.,2.932438173736E-02));
#430 = CARTESIAN_POINT('',(-5.814337820376E-02,0.,2.877107503053E-02));
#431 = CARTESIAN_POINT('',(-5.285866402519E-02,0.,2.809362105286E-02));
#432 = CARTESIAN_POINT('',(-4.776900167799E-02,0.,2.729781313147E-02));
#433 = CARTESIAN_POINT('',(-4.288680197387E-02,0.,2.639016915672E-02));
#434 = CARTESIAN_POINT('',(-3.822378723374E-02,0.,2.537785579253E-02));
#435 = CARTESIAN_POINT('',(-3.379094108545E-02,0.,2.426860134071E-02));
#436 = CARTESIAN_POINT('',(-2.959846517773E-02,0.,2.307059812578E-02));
#437 = CARTESIAN_POINT('',(-2.565574299071E-02,0.,2.179239533509E-02));
#438 = CARTESIAN_POINT('',(-2.197131062977E-02,0.,2.044278324209E-02));
#439 = CARTESIAN_POINT('',(-1.855283423047E-02,0.,1.903066951757E-02));
#440 = CARTESIAN_POINT('',(-1.540709348294E-02,0.,1.756494778897E-02));
#441 = CARTESIAN_POINT('',(-1.253997104634E-02,0.,1.605435757783E-02));
#442 = CARTESIAN_POINT('',(-9.956448842308E-03,0.,1.450733300725E-02));
#443 = CARTESIAN_POINT('',(-7.660615566151E-03,0.,1.293183535483E-02));
#444 = CARTESIAN_POINT('',(-5.65569791333E-03,0.,1.133516221027E-02));
#445 = CARTESIAN_POINT('',(-3.944144494428E-03,0.,9.72372949223E-03));
#446 = CARTESIAN_POINT('',(-2.527821644869E-03,0.,8.102841005203E-03));
#447 = CARTESIAN_POINT('',(-1.408404468768E-03,0.,6.476540236706E-03));
#448 = CARTESIAN_POINT('',(-5.880088819267E-04,0.,4.847767580905E-03));
#449 = CARTESIAN_POINT('',(-6.973237158088E-05,0.,3.219296659078E-03));
#450 = CARTESIAN_POINT('',(1.427738142601E-04,0.,1.595214038848E-03));
#451 = CARTESIAN_POINT('',(4.859892299523E-05,0.,-7.416129881715E-06));
#452 = CARTESIAN_POINT('',(-3.384920229515E-04,0.,-1.564948537118E-03));
#453 = CARTESIAN_POINT('',(-1.019457406476E-03,0.,-3.052219941554E-03));
#454 = CARTESIAN_POINT('',(-1.984015125554E-03,0.,-4.455832877205E-03));
#455 = CARTESIAN_POINT('',(-3.223954362739E-03,0.,-5.776158876449E-03));
#456 = CARTESIAN_POINT('',(-4.73240940269E-03,0.,-7.015088490999E-03));
#457 = CARTESIAN_POINT('',(-6.503677925528E-03,0.,-8.174644460989E-03));
#458 = CARTESIAN_POINT('',(-8.53248217228E-03,0.,-9.256352119566E-03));
#459 = CARTESIAN_POINT('',(-1.081342199331E-02,0.,-1.026127352257E-02));
#460 = CARTESIAN_POINT('',(-1.33407261188E-02,0.,-1.119020500488E-02));
#461 = CARTESIAN_POINT('',(-1.610818847445E-02,0.,-1.204387588279E-02));
#462 = CARTESIAN_POINT('',(-1.910919016709E-02,0.,-1.282309687167E-02));
#463 = CARTESIAN_POINT('',(-2.233675196315E-02,0.,-1.352886506394E-02));
#464 = CARTESIAN_POINT('',(-2.578359261934E-02,0.,-1.416243798038E-02));
#465 = CARTESIAN_POINT('',(-2.94421832632E-02,0.,-1.472538727395E-02));
#466 = CARTESIAN_POINT('',(-3.330479440721E-02,0.,-1.521963830574E-02));
#467 = CARTESIAN_POINT('',(-3.736353462985E-02,0.,-1.564749886971E-02));
#468 = CARTESIAN_POINT('',(-4.16103808351E-02,0.,-1.601167848587E-02));
#469 = CARTESIAN_POINT('',(-4.603720030663E-02,0.,-1.631529869432E-02));
#470 = CARTESIAN_POINT('',(-5.063576490998E-02,0.,-1.656189431119E-02));
#471 = CARTESIAN_POINT('',(-5.539775790565E-02,0.,-1.675540545488E-02));
#472 = CARTESIAN_POINT('',(-6.031477395935E-02,0.,-1.690016017131E-02));
#473 = CARTESIAN_POINT('',(-6.537831307247E-02,0.,-1.700084765878E-02));
#474 = CARTESIAN_POINT('',(-7.057976929502E-02,0.,-1.706248216119E-02));
#475 = CARTESIAN_POINT('',(-7.591041521155E-02,0.,-1.709035834259E-02));
#476 = CARTESIAN_POINT('',(-8.136138329515E-02,0.,-1.708999721928E-02));
#477 = CARTESIAN_POINT('',(-8.692364529523E-02,0.,-1.706708962574E-02));
#478 = CARTESIAN_POINT('',(-9.258799085732E-02,0.,-1.702741492624E-02));
#479 = CARTESIAN_POINT('',(-9.834500655552E-02,0.,-1.697682613026E-02));
#480 = CARTESIAN_POINT('',(-0.10418505648,0.,-1.692095920026E-02));
#481 = CARTESIAN_POINT('',(-0.110141567937,0.,-1.686557677972E-02));
#482 = CARTESIAN_POINT('',(-0.116207374915,0.,-1.681427226161E-02));
#483 = CARTESIAN_POINT('',(-0.122370475868,0.,-1.672822987277E-02));
#484 = CARTESIAN_POINT('',(-0.128575353667,0.,-1.662236484523E-02));
#485 = CARTESIAN_POINT('',(-0.134806107382,0.,-1.649774518504E-02));
#486 = CARTESIAN_POINT('',(-0.141050382512,0.,-1.635885051196E-02));
#487 = CARTESIAN_POINT('',(-0.147295704014,0.,-1.620894970595E-02));
#488 = CARTESIAN_POINT('',(-0.153529509842,0.,-1.605131540454E-02));
#489 = CARTESIAN_POINT('',(-0.159739173629,0.,-1.588885999828E-02));
#490 = CARTESIAN_POINT('',(-0.165912031995,0.,-1.572420585599E-02));
#491 = CARTESIAN_POINT('',(-0.172035411958,0.,-1.555964916417E-02));
#492 = CARTESIAN_POINT('',(-0.178096659325,0.,-1.539716211333E-02));
#493 = CARTESIAN_POINT('',(-0.184083167476,0.,-1.523839439758E-02));
#494 = CARTESIAN_POINT('',(-0.189982406392,0.,-1.508468378004E-02));
#495 = CARTESIAN_POINT('',(-0.195781951711,0.,-1.493707226427E-02));
#496 = CARTESIAN_POINT('',(-0.201469513646,0.,-1.479632772258E-02));
#497 = CARTESIAN_POINT('',(-0.207032965662,0.,-1.466296980565E-02));
#498 = CARTESIAN_POINT('',(-0.212460372858,0.,-1.453729912374E-02));
#499 = CARTESIAN_POINT('',(-0.217740020014,0.,-1.441942858913E-02));
#500 = CARTESIAN_POINT('',(-0.222860439344,0.,-1.430931582756E-02));
#501 = CARTESIAN_POINT('',(-0.227810437995,0.,-1.420679559938E-02));
#502 = CARTESIAN_POINT('',(-0.232579125356,0.,-1.41116112441E-02));
#503 = CARTESIAN_POINT('',(-0.23715594027,0.,-1.402344426294E-02));
#504 = CARTESIAN_POINT('',(-0.241530678195,0.,-1.39419412808E-02));
#505 = CARTESIAN_POINT('',(-0.245693518394,0.,-1.386673777558E-02));
#506 = CARTESIAN_POINT('',(-0.249635051162,0.,-1.37974781227E-02));
#507 = CARTESIAN_POINT('',(-0.253346305081,0.,-1.373383167029E-02));
#508 = CARTESIAN_POINT('',(-0.25681877426,0.,-1.367550472917E-02));
#509 = CARTESIAN_POINT('',(-0.260044445434,0.,-1.362224852547E-02));
#510 = CARTESIAN_POINT('',(-0.263015824783,0.,-1.357386331636E-02));
#511 = CARTESIAN_POINT('',(-0.265725964262,0.,-1.353019900667E-02));
#512 = CARTESIAN_POINT('',(-0.268168487179,0.,-1.349115272023E-02));
#513 = CARTESIAN_POINT('',(-0.270337612755,0.,-1.345666387259E-02));
#514 = CARTESIAN_POINT('',(-0.27222817933,0.,-1.342670735731E-02));
#515 = CARTESIAN_POINT('',(-0.273835665889,0.,-1.340128549588E-02));
#516 = CARTESIAN_POINT('',(-0.275156211576,0.,-1.338041940966E-02));
#517 = CARTESIAN_POINT('',(-0.27618663286,0.,-1.336414045286E-02));
#518 = CARTESIAN_POINT('',(-0.276924438042,0.,-1.335248229888E-02));
#519 = CARTESIAN_POINT('',(-0.277367838859,0.,-1.334547420142E-02));
#520 = CARTESIAN_POINT('',(-0.277565105605,-0.,-1.334235577889E-02));
#521 = CARTESIAN_POINT('',(-0.277614452289,0.,-1.334157566135E-02));
#522 = VECTOR('',#523,1.);
#523 = DIRECTION('',(-0.,1.,-0.));
#524 = DEFINITIONAL_REPRESENTATION('',(#525),#532);
#525 = B_SPLINE_CURVE_WITH_KNOTS('',5,(#526,#527,#528,#529,#530,#531),
  .UNSPECIFIED.,.F.,.F.,(6,6),(0.,1.),.PIECEWISE_BEZIER_KNOTS.);
#526 = CARTESIAN_POINT('',(7.227244077289E-02,-1.193));
#527 = CARTESIAN_POINT('',(5.781789065421E-02,-1.193));
#528 = CARTESIAN_POINT('',(4.336367795847E-02,-1.193));
#529 = CARTESIAN_POINT('',(2.890878109379E-02,-1.193));
#530 = CARTESIAN_POINT('',(1.445458886622E-02,-1.193));
#531 = CARTESIAN_POINT('',(0.,-1.193));
#532 = ( GEOMETRIC_REPRESENTATION_CONTEXT(2) 
PARAMETRIC_REPRESENTATION_CONTEXT() REPRESENTATION_CONTEXT('2D SPACE',''
  ) );
#533 = ORIENTED_EDGE('',*,*,#534,.F.);
#534 = EDGE_CURVE('',#535,#356,#537,.T.);
#535 = VERTEX_POINT('',#536);
#536 = CARTESIAN_POINT('',(-0.210154036032,-1.193,1.003929349586E-02));
#537 = SURFACE_CURVE('',#538,(#547,#559),.PCURVE_S1.);
#538 = B_SPLINE_CURVE_WITH_KNOTS('',7,(#539,#540,#541,#542,#543,#544,
    #545,#546),.UNSPECIFIED.,.F.,.F.,(8,8),(0.,1.),
  .PIECEWISE_BEZIER_KNOTS.);
#539 = CARTESIAN_POINT('',(-0.209989983704,-1.193,1.008440304097E-02));
#540 = CARTESIAN_POINT('',(-0.211665676789,-1.193,9.623856521893E-03));
#541 = CARTESIAN_POINT('',(-0.21320873533,-1.193,9.194627626219E-03));
#542 = CARTESIAN_POINT('',(-0.214896771427,-1.193,8.721263877197E-03));
#543 = CARTESIAN_POINT('',(-0.216807833883,-1.193,8.180761499775E-03));
#544 = CARTESIAN_POINT('',(-0.21881984591,-1.193,7.599671173349E-03));
#545 = CARTESIAN_POINT('',(-0.220580187066,-1.193,7.084938260405E-03));
#546 = CARTESIAN_POINT('',(-0.221498331004,-1.193,6.81569627019E-03));
#547 = PCURVE('',#312,#548);
#548 = DEFINITIONAL_REPRESENTATION('',(#549),#558);
#549 = B_SPLINE_CURVE_WITH_KNOTS('',7,(#550,#551,#552,#553,#554,#555,
    #556,#557),.UNSPECIFIED.,.F.,.F.,(8,8),(0.,1.),
  .PIECEWISE_BEZIER_KNOTS.);
#550 = CARTESIAN_POINT('',(7.99171268265E-04,1.012446339371));
#551 = CARTESIAN_POINT('',(2.494365618901E-03,1.012063760588));
#552 = CARTESIAN_POINT('',(4.055619302662E-03,1.011706333615));
#553 = CARTESIAN_POINT('',(5.763736066742E-03,1.011311521985));
#554 = CARTESIAN_POINT('',(7.697744823088E-03,1.010859955089));
#555 = CARTESIAN_POINT('',(9.734471768461E-03,1.010372511026));
#556 = CARTESIAN_POINT('',(1.151672896091E-02,1.009939717477));
#557 = CARTESIAN_POINT('',(1.244633937118E-02,1.009713213557));
#558 = ( GEOMETRIC_REPRESENTATION_CONTEXT(2) 
PARAMETRIC_REPRESENTATION_CONTEXT() REPRESENTATION_CONTEXT('2D SPACE',''
  ) );
#559 = PCURVE('',#379,#560);
#560 = DEFINITIONAL_REPRESENTATION('',(#561),#570);
#561 = B_SPLINE_CURVE_WITH_KNOTS('',7,(#562,#563,#564,#565,#566,#567,
    #568,#569),.UNSPECIFIED.,.F.,.F.,(8,8),(0.,1.),
  .PIECEWISE_BEZIER_KNOTS.);
#562 = CARTESIAN_POINT('',(7.145349919624E-02,-1.193));
#563 = CARTESIAN_POINT('',(6.971567464225E-02,-1.193));
#564 = CARTESIAN_POINT('',(6.811263876746E-02,-1.193));
#565 = CARTESIAN_POINT('',(6.636245894879E-02,-1.193));
#566 = CARTESIAN_POINT('',(6.437339813243E-02,-1.193));
#567 = CARTESIAN_POINT('',(6.228089270497E-02,-1.193));
#568 = CARTESIAN_POINT('',(6.044642754792E-02,-1.193));
#569 = CARTESIAN_POINT('',(5.948962283058E-02,-1.193));
#570 = ( GEOMETRIC_REPRESENTATION_CONTEXT(2) 
PARAMETRIC_REPRESENTATION_CONTEXT() REPRESENTATION_CONTEXT('2D SPACE',''
  ) );
#571 = ORIENTED_EDGE('',*,*,#572,.F.);
#572 = EDGE_CURVE('',#573,#535,#575,.T.);
#573 = VERTEX_POINT('',#574);
#574 = CARTESIAN_POINT('',(-0.209199983269,-1.193,1.030102928659E-02));
#575 = SURFACE_CURVE('',#576,(#583,#593),.PCURVE_S1.);
#576 = B_SPLINE_CURVE_WITH_KNOTS('',5,(#577,#578,#579,#580,#581,#582),
  .UNSPECIFIED.,.F.,.F.,(6,6),(0.,1.),.PIECEWISE_BEZIER_KNOTS.);
#577 = CARTESIAN_POINT('',(-0.209199983269,-1.193,1.030102928659E-02));
#578 = CARTESIAN_POINT('',(-0.223142222817,-1.193,6.486699661755E-03));
#579 = CARTESIAN_POINT('',(-0.236985594532,-1.193,2.312227236599E-03));
#580 = CARTESIAN_POINT('',(-0.250720980924,-1.193,-2.210700410248E-03));
#581 = CARTESIAN_POINT('',(-0.264331700634,-1.193,-7.093942072189E-03));
#582 = CARTESIAN_POINT('',(-0.277790962835,-1.193,-1.236493812418E-02));
#583 = PCURVE('',#312,#584);
#584 = DEFINITIONAL_REPRESENTATION('',(#585),#592);
#585 = B_SPLINE_CURVE_WITH_KNOTS('',5,(#586,#587,#588,#589,#590,#591),
  .UNSPECIFIED.,.F.,.F.,(6,6),(0.,1.),.PIECEWISE_BEZIER_KNOTS.);
#586 = CARTESIAN_POINT('',(-2.775557561563E-17,1.012626208495));
#587 = CARTESIAN_POINT('',(1.410368428254E-02,1.009460573683));
#588 = CARTESIAN_POINT('',(2.81252575689E-02,1.005930610078));
#589 = CARTESIAN_POINT('',(4.205507174664E-02,1.002047571215));
#590 = CARTESIAN_POINT('',(5.587701158369E-02,0.997798839725));
#591 = CARTESIAN_POINT('',(6.956558360282E-02,0.99315576591));
#592 = ( GEOMETRIC_REPRESENTATION_CONTEXT(2) 
PARAMETRIC_REPRESENTATION_CONTEXT() REPRESENTATION_CONTEXT('2D SPACE',''
  ) );
#593 = PCURVE('',#379,#594);
#594 = DEFINITIONAL_REPRESENTATION('',(#595),#602);
#595 = B_SPLINE_CURVE_WITH_KNOTS('',5,(#596,#597,#598,#599,#600,#601),
  .UNSPECIFIED.,.F.,.F.,(6,6),(0.,1.),.PIECEWISE_BEZIER_KNOTS.);
#596 = CARTESIAN_POINT('',(7.227244077289E-02,-1.193));
#597 = CARTESIAN_POINT('',(5.781789065421E-02,-1.193));
#598 = CARTESIAN_POINT('',(4.336367795847E-02,-1.193));
#599 = CARTESIAN_POINT('',(2.890878109379E-02,-1.193));
#600 = CARTESIAN_POINT('',(1.445458886622E-02,-1.193));
#601 = CARTESIAN_POINT('',(0.,-1.193));
#602 = ( GEOMETRIC_REPRESENTATION_CONTEXT(2) 
PARAMETRIC_REPRESENTATION_CONTEXT() REPRESENTATION_CONTEXT('2D SPACE',''
  ) );
#603 = ORIENTED_EDGE('',*,*,#604,.F.);
#604 = EDGE_CURVE('',#605,#573,#607,.T.);
#605 = VERTEX_POINT('',#606);
#606 = CARTESIAN_POINT('',(-0.209191667067,-1.193,1.01213525144E-02));
#607 = SURFACE_CURVE('',#608,(#612,#619),.PCURVE_S1.);
#608 = LINE('',#609,#610);
#609 = CARTESIAN_POINT('',(-0.162381476815,-1.193,-1.001242279516));
#610 = VECTOR('',#611,1.);
#611 = DIRECTION('',(-4.623473702433E-02,0.,0.998930602741));
#612 = PCURVE('',#312,#613);
#613 = DEFINITIONAL_REPRESENTATION('',(#614),#618);
#614 = LINE('',#615,#616);
#615 = CARTESIAN_POINT('',(0.,0.));
#616 = VECTOR('',#617,1.);
#617 = DIRECTION('',(0.,1.));
#618 = ( GEOMETRIC_REPRESENTATION_CONTEXT(2) 
PARAMETRIC_REPRESENTATION_CONTEXT() REPRESENTATION_CONTEXT('2D SPACE',''
  ) );
#619 = PCURVE('',#620,#625);
#620 = PLANE('',#621);
#621 = AXIS2_PLACEMENT_3D('',#622,#623,#624);
#622 = CARTESIAN_POINT('',(-0.162381476815,-1.193,-1.001242279516));
#623 = DIRECTION('',(-0.998930602741,0.,-4.623473702433E-02));
#624 = DIRECTION('',(0.,1.,0.));
#625 = DEFINITIONAL_REPRESENTATION('',(#626),#630);
#626 = LINE('',#627,#628);
#627 = CARTESIAN_POINT('',(0.,0.));
#628 = VECTOR('',#629,1.);
#629 = DIRECTION('',(0.,-1.));
#630 = ( GEOMETRIC_REPRESENTATION_CONTEXT(2) 
PARAMETRIC_REPRESENTATION_CONTEXT() REPRESENTATION_CONTEXT('2D SPACE',''
  ) );
#631 = ORIENTED_EDGE('',*,*,#632,.T.);
#632 = EDGE_CURVE('',#605,#259,#633,.T.);
#633 = SURFACE_CURVE('',#634,(#639,#646),.PCURVE_S1.);
#634 = CIRCLE('',#635,1.244633937118E-02);
#635 = AXIS2_PLACEMENT_3D('',#636,#637,#638);
#636 = CARTESIAN_POINT('',(-0.208616213839,-1.193,-2.311676775576E-03));
#637 = DIRECTION('',(0.,1.,0.));
#638 = DIRECTION('',(-0.998930602741,0.,-4.623473702433E-02));
#639 = PCURVE('',#312,#640);
#640 = DEFINITIONAL_REPRESENTATION('',(#641),#645);
#641 = CIRCLE('',#642,1.244633937118E-02);
#642 = AXIS2_PLACEMENT_2D('',#643,#644);
#643 = CARTESIAN_POINT('',(0.,1.));
#644 = DIRECTION('',(1.,0.));
#645 = ( GEOMETRIC_REPRESENTATION_CONTEXT(2) 
PARAMETRIC_REPRESENTATION_CONTEXT() REPRESENTATION_CONTEXT('2D SPACE',''
  ) );
#646 = PCURVE('',#278,#647);
#647 = DEFINITIONAL_REPRESENTATION('',(#648),#652);
#648 = LINE('',#649,#650);
#649 = CARTESIAN_POINT('',(0.,0.));
#650 = VECTOR('',#651,1.);
#651 = DIRECTION('',(1.,0.));
#652 = ( GEOMETRIC_REPRESENTATION_CONTEXT(2) 
PARAMETRIC_REPRESENTATION_CONTEXT() REPRESENTATION_CONTEXT('2D SPACE',''
  ) );
#653 = ORIENTED_EDGE('',*,*,#292,.F.);
#654 = ORIENTED_EDGE('',*,*,#326,.T.);
#655 = ORIENTED_EDGE('',*,*,#656,.F.);
#656 = EDGE_CURVE('',#358,#24,#657,.T.);
#657 = SURFACE_CURVE('',#658,(#662,#669),.PCURVE_S1.);
#658 = LINE('',#659,#660);
#659 = CARTESIAN_POINT('',(-0.189342702508,-1.193,-0.501751512837));
#660 = VECTOR('',#661,1.);
#661 = DIRECTION('',(0.17785154589,0.,-0.98405732944));
#662 = PCURVE('',#312,#663);
#663 = DEFINITIONAL_REPRESENTATION('',(#664),#668);
#664 = LINE('',#665,#666);
#665 = CARTESIAN_POINT('',(3.838569188381E-03,0.500203157802));
#666 = VECTOR('',#667,1.);
#667 = DIRECTION('',(-0.132163720091,-0.991227900683));
#668 = ( GEOMETRIC_REPRESENTATION_CONTEXT(2) 
PARAMETRIC_REPRESENTATION_CONTEXT() REPRESENTATION_CONTEXT('2D SPACE',''
  ) );
#669 = PCURVE('',#184,#670);
#670 = DEFINITIONAL_REPRESENTATION('',(#671),#674);
#671 = B_SPLINE_CURVE_WITH_KNOTS('',1,(#672,#673),.UNSPECIFIED.,.F.,.F.,
  (2,2),(-0.497315105607,-0.496322645607),.PIECEWISE_BEZIER_KNOTS.);
#672 = CARTESIAN_POINT('',(9.9246E-04,-1.193));
#673 = CARTESIAN_POINT('',(0.,-1.193));
#674 = ( GEOMETRIC_REPRESENTATION_CONTEXT(2) 
PARAMETRIC_REPRESENTATION_CONTEXT() REPRESENTATION_CONTEXT('2D SPACE',''
  ) );
#675 = ADVANCED_FACE('',(#676),#620,.F.);
#676 = FACE_BOUND('',#677,.F.);
#677 = EDGE_LOOP('',(#678,#703,#722,#723));
#678 = ORIENTED_EDGE('',*,*,#679,.F.);
#679 = EDGE_CURVE('',#680,#682,#684,.T.);
#680 = VERTEX_POINT('',#681);
#681 = CARTESIAN_POINT('',(-0.209191667067,-0.795,1.01213525144E-02));
#682 = VERTEX_POINT('',#683);
#683 = CARTESIAN_POINT('',(-0.209199983269,-0.795,1.030102928659E-02));
#684 = SURFACE_CURVE('',#685,(#689,#696),.PCURVE_S1.);
#685 = LINE('',#686,#687);
#686 = CARTESIAN_POINT('',(-0.162381476815,-0.795,-1.001242279516));
#687 = VECTOR('',#688,1.);
#688 = DIRECTION('',(-4.623473702433E-02,0.,0.998930602741));
#689 = PCURVE('',#620,#690);
#690 = DEFINITIONAL_REPRESENTATION('',(#691),#695);
#691 = LINE('',#692,#693);
#692 = CARTESIAN_POINT('',(0.398,0.));
#693 = VECTOR('',#694,1.);
#694 = DIRECTION('',(0.,-1.));
#695 = ( GEOMETRIC_REPRESENTATION_CONTEXT(2) 
PARAMETRIC_REPRESENTATION_CONTEXT() REPRESENTATION_CONTEXT('2D SPACE',''
  ) );
#696 = PCURVE('',#214,#697);
#697 = DEFINITIONAL_REPRESENTATION('',(#698),#702);
#698 = LINE('',#699,#700);
#699 = CARTESIAN_POINT('',(0.,0.));
#700 = VECTOR('',#701,1.);
#701 = DIRECTION('',(0.,1.));
#702 = ( GEOMETRIC_REPRESENTATION_CONTEXT(2) 
PARAMETRIC_REPRESENTATION_CONTEXT() REPRESENTATION_CONTEXT('2D SPACE',''
  ) );
#703 = ORIENTED_EDGE('',*,*,#704,.F.);
#704 = EDGE_CURVE('',#605,#680,#705,.T.);
#705 = SURFACE_CURVE('',#706,(#710,#716),.PCURVE_S1.);
#706 = LINE('',#707,#708);
#707 = CARTESIAN_POINT('',(-0.209191667067,-1.193,1.01213525144E-02));
#708 = VECTOR('',#709,1.);
#709 = DIRECTION('',(0.,1.,0.));
#710 = PCURVE('',#620,#711);
#711 = DEFINITIONAL_REPRESENTATION('',(#712),#715);
#712 = B_SPLINE_CURVE_WITH_KNOTS('',1,(#713,#714),.UNSPECIFIED.,.F.,.F.,
  (2,2),(-6.000000001283E-07,0.3980006),.PIECEWISE_BEZIER_KNOTS.);
#713 = CARTESIAN_POINT('',(-6.000000001283E-07,-1.012446339371));
#714 = CARTESIAN_POINT('',(0.3980006,-1.012446339371));
#715 = ( GEOMETRIC_REPRESENTATION_CONTEXT(2) 
PARAMETRIC_REPRESENTATION_CONTEXT() REPRESENTATION_CONTEXT('2D SPACE',''
  ) );
#716 = PCURVE('',#278,#717);
#717 = DEFINITIONAL_REPRESENTATION('',(#718),#721);
#718 = B_SPLINE_CURVE_WITH_KNOTS('',1,(#719,#720),.UNSPECIFIED.,.F.,.F.,
  (2,2),(-6.000000001283E-07,0.3980006),.PIECEWISE_BEZIER_KNOTS.);
#719 = CARTESIAN_POINT('',(1.570796326795,-6.000000001283E-07));
#720 = CARTESIAN_POINT('',(1.570796326795,0.3980006));
#721 = ( GEOMETRIC_REPRESENTATION_CONTEXT(2) 
PARAMETRIC_REPRESENTATION_CONTEXT() REPRESENTATION_CONTEXT('2D SPACE',''
  ) );
#722 = ORIENTED_EDGE('',*,*,#604,.T.);
#723 = ORIENTED_EDGE('',*,*,#724,.T.);
#724 = EDGE_CURVE('',#573,#682,#725,.T.);
#725 = SURFACE_CURVE('',#726,(#732,#741),.PCURVE_S1.);
#726 = B_SPLINE_CURVE_WITH_KNOTS('',4,(#727,#728,#729,#730,#731),
  .UNSPECIFIED.,.F.,.F.,(5,5),(0.,1.),.PIECEWISE_BEZIER_KNOTS.);
#727 = CARTESIAN_POINT('',(-0.209199983269,-1.193,1.030102928659E-02));
#728 = CARTESIAN_POINT('',(-0.209199983269,-1.0935,1.030102928659E-02));
#729 = CARTESIAN_POINT('',(-0.209199983269,-0.994,1.030102928659E-02));
#730 = CARTESIAN_POINT('',(-0.209199983269,-0.8945,1.030102928659E-02));
#731 = CARTESIAN_POINT('',(-0.209199983269,-0.795,1.030102928659E-02));
#732 = PCURVE('',#620,#733);
#733 = DEFINITIONAL_REPRESENTATION('',(#734),#740);
#734 = B_SPLINE_CURVE_WITH_KNOTS('',4,(#735,#736,#737,#738,#739),
  .UNSPECIFIED.,.F.,.F.,(5,5),(0.,1.),.PIECEWISE_BEZIER_KNOTS.);
#735 = CARTESIAN_POINT('',(0.,-1.012626208495));
#736 = CARTESIAN_POINT('',(9.95E-02,-1.012626208495));
#737 = CARTESIAN_POINT('',(0.199,-1.012626208495));
#738 = CARTESIAN_POINT('',(0.2985,-1.012626208495));
#739 = CARTESIAN_POINT('',(0.398,-1.012626208495));
#740 = ( GEOMETRIC_REPRESENTATION_CONTEXT(2) 
PARAMETRIC_REPRESENTATION_CONTEXT() REPRESENTATION_CONTEXT('2D SPACE',''
  ) );
#741 = PCURVE('',#379,#742);
#742 = DEFINITIONAL_REPRESENTATION('',(#743),#749);
#743 = B_SPLINE_CURVE_WITH_KNOTS('',4,(#744,#745,#746,#747,#748),
  .UNSPECIFIED.,.F.,.F.,(5,5),(0.,1.),.PIECEWISE_BEZIER_KNOTS.);
#744 = CARTESIAN_POINT('',(7.227244715159E-02,-1.193));
#745 = CARTESIAN_POINT('',(7.227244715159E-02,-1.0935));
#746 = CARTESIAN_POINT('',(7.227244715159E-02,-0.994));
#747 = CARTESIAN_POINT('',(7.227244715159E-02,-0.8945));
#748 = CARTESIAN_POINT('',(7.227244715159E-02,-0.795));
#749 = ( GEOMETRIC_REPRESENTATION_CONTEXT(2) 
PARAMETRIC_REPRESENTATION_CONTEXT() REPRESENTATION_CONTEXT('2D SPACE',''
  ) );
#750 = ADVANCED_FACE('',(#751),#379,.T.);
#751 = FACE_BOUND('',#752,.T.);
#752 = EDGE_LOOP('',(#753,#754,#755,#756,#757,#789,#827,#859));
#753 = ORIENTED_EDGE('',*,*,#355,.F.);
#754 = ORIENTED_EDGE('',*,*,#534,.F.);
#755 = ORIENTED_EDGE('',*,*,#572,.F.);
#756 = ORIENTED_EDGE('',*,*,#724,.T.);
#757 = ORIENTED_EDGE('',*,*,#758,.T.);
#758 = EDGE_CURVE('',#682,#759,#761,.T.);
#759 = VERTEX_POINT('',#760);
#760 = CARTESIAN_POINT('',(-0.210154036032,-0.795,1.003929349586E-02));
#761 = SURFACE_CURVE('',#762,(#769,#779),.PCURVE_S1.);
#762 = B_SPLINE_CURVE_WITH_KNOTS('',5,(#763,#764,#765,#766,#767,#768),
  .UNSPECIFIED.,.F.,.F.,(6,6),(0.,1.),.PIECEWISE_BEZIER_KNOTS.);
#763 = CARTESIAN_POINT('',(-0.209199983269,-0.795,1.030102928659E-02));
#764 = CARTESIAN_POINT('',(-0.223142222817,-0.795,6.486699661755E-03));
#765 = CARTESIAN_POINT('',(-0.236985594532,-0.795,2.312227236599E-03));
#766 = CARTESIAN_POINT('',(-0.250720980924,-0.795,-2.210700410248E-03));
#767 = CARTESIAN_POINT('',(-0.264331700634,-0.795,-7.093942072189E-03));
#768 = CARTESIAN_POINT('',(-0.277790962835,-0.795,-1.236493812418E-02));
#769 = PCURVE('',#379,#770);
#770 = DEFINITIONAL_REPRESENTATION('',(#771),#778);
#771 = B_SPLINE_CURVE_WITH_KNOTS('',5,(#772,#773,#774,#775,#776,#777),
  .UNSPECIFIED.,.F.,.F.,(6,6),(0.,1.),.PIECEWISE_BEZIER_KNOTS.);
#772 = CARTESIAN_POINT('',(7.227244077289E-02,-0.795));
#773 = CARTESIAN_POINT('',(5.781789065421E-02,-0.795));
#774 = CARTESIAN_POINT('',(4.336367795847E-02,-0.795));
#775 = CARTESIAN_POINT('',(2.890878109379E-02,-0.795));
#776 = CARTESIAN_POINT('',(1.445458886622E-02,-0.795));
#777 = CARTESIAN_POINT('',(0.,-0.795));
#778 = ( GEOMETRIC_REPRESENTATION_CONTEXT(2) 
PARAMETRIC_REPRESENTATION_CONTEXT() REPRESENTATION_CONTEXT('2D SPACE',''
  ) );
#779 = PCURVE('',#214,#780);
#780 = DEFINITIONAL_REPRESENTATION('',(#781),#788);
#781 = B_SPLINE_CURVE_WITH_KNOTS('',5,(#782,#783,#784,#785,#786,#787),
  .UNSPECIFIED.,.F.,.F.,(6,6),(0.,1.),.PIECEWISE_BEZIER_KNOTS.);
#782 = CARTESIAN_POINT('',(-2.775557561563E-17,1.012626208495));
#783 = CARTESIAN_POINT('',(1.410368428254E-02,1.009460573683));
#784 = CARTESIAN_POINT('',(2.81252575689E-02,1.005930610078));
#785 = CARTESIAN_POINT('',(4.205507174664E-02,1.002047571215));
#786 = CARTESIAN_POINT('',(5.587701158369E-02,0.997798839725));
#787 = CARTESIAN_POINT('',(6.956558360282E-02,0.99315576591));
#788 = ( GEOMETRIC_REPRESENTATION_CONTEXT(2) 
PARAMETRIC_REPRESENTATION_CONTEXT() REPRESENTATION_CONTEXT('2D SPACE',''
  ) );
#789 = ORIENTED_EDGE('',*,*,#790,.T.);
#790 = EDGE_CURVE('',#759,#791,#793,.T.);
#791 = VERTEX_POINT('',#792);
#792 = CARTESIAN_POINT('',(-0.213671536924,-0.795,9.061760359059E-03));
#793 = SURFACE_CURVE('',#794,(#803,#815),.PCURVE_S1.);
#794 = B_SPLINE_CURVE_WITH_KNOTS('',7,(#795,#796,#797,#798,#799,#800,
    #801,#802),.UNSPECIFIED.,.F.,.F.,(8,8),(0.,1.),
  .PIECEWISE_BEZIER_KNOTS.);
#795 = CARTESIAN_POINT('',(-0.209989983704,-0.795,1.008440304097E-02));
#796 = CARTESIAN_POINT('',(-0.211665676789,-0.795,9.623856521893E-03));
#797 = CARTESIAN_POINT('',(-0.21320873533,-0.795,9.194627626219E-03));
#798 = CARTESIAN_POINT('',(-0.214896771427,-0.795,8.721263877197E-03));
#799 = CARTESIAN_POINT('',(-0.216807833883,-0.795,8.180761499775E-03));
#800 = CARTESIAN_POINT('',(-0.21881984591,-0.795,7.599671173349E-03));
#801 = CARTESIAN_POINT('',(-0.220580187066,-0.795,7.084938260405E-03));
#802 = CARTESIAN_POINT('',(-0.221498331004,-0.795,6.81569627019E-03));
#803 = PCURVE('',#379,#804);
#804 = DEFINITIONAL_REPRESENTATION('',(#805),#814);
#805 = B_SPLINE_CURVE_WITH_KNOTS('',7,(#806,#807,#808,#809,#810,#811,
    #812,#813),.UNSPECIFIED.,.F.,.F.,(8,8),(0.,1.),
  .PIECEWISE_BEZIER_KNOTS.);
#806 = CARTESIAN_POINT('',(7.145349919624E-02,-0.795));
#807 = CARTESIAN_POINT('',(6.971567464225E-02,-0.795));
#808 = CARTESIAN_POINT('',(6.811263876746E-02,-0.795));
#809 = CARTESIAN_POINT('',(6.636245894879E-02,-0.795));
#810 = CARTESIAN_POINT('',(6.437339813243E-02,-0.795));
#811 = CARTESIAN_POINT('',(6.228089270497E-02,-0.795));
#812 = CARTESIAN_POINT('',(6.044642754792E-02,-0.795));
#813 = CARTESIAN_POINT('',(5.948962283058E-02,-0.795));
#814 = ( GEOMETRIC_REPRESENTATION_CONTEXT(2) 
PARAMETRIC_REPRESENTATION_CONTEXT() REPRESENTATION_CONTEXT('2D SPACE',''
  ) );
#815 = PCURVE('',#214,#816);
#816 = DEFINITIONAL_REPRESENTATION('',(#817),#826);
#817 = B_SPLINE_CURVE_WITH_KNOTS('',7,(#818,#819,#820,#821,#822,#823,
    #824,#825),.UNSPECIFIED.,.F.,.F.,(8,8),(0.,1.),
  .PIECEWISE_BEZIER_KNOTS.);
#818 = CARTESIAN_POINT('',(7.99171268265E-04,1.012446339371));
#819 = CARTESIAN_POINT('',(2.494365618901E-03,1.012063760588));
#820 = CARTESIAN_POINT('',(4.055619302662E-03,1.011706333615));
#821 = CARTESIAN_POINT('',(5.763736066742E-03,1.011311521985));
#822 = CARTESIAN_POINT('',(7.697744823088E-03,1.010859955089));
#823 = CARTESIAN_POINT('',(9.734471768461E-03,1.010372511026));
#824 = CARTESIAN_POINT('',(1.151672896091E-02,1.009939717477));
#825 = CARTESIAN_POINT('',(1.244633937118E-02,1.009713213557));
#826 = ( GEOMETRIC_REPRESENTATION_CONTEXT(2) 
PARAMETRIC_REPRESENTATION_CONTEXT() REPRESENTATION_CONTEXT('2D SPACE',''
  ) );
#827 = ORIENTED_EDGE('',*,*,#828,.T.);
#828 = EDGE_CURVE('',#791,#829,#831,.T.);
#829 = VERTEX_POINT('',#830);
#830 = CARTESIAN_POINT('',(-0.277790962835,-0.795,-1.236493812418E-02));
#831 = SURFACE_CURVE('',#832,(#839,#849),.PCURVE_S1.);
#832 = B_SPLINE_CURVE_WITH_KNOTS('',5,(#833,#834,#835,#836,#837,#838),
  .UNSPECIFIED.,.F.,.F.,(6,6),(0.,1.),.PIECEWISE_BEZIER_KNOTS.);
#833 = CARTESIAN_POINT('',(-0.209199983269,-0.795,1.030102928659E-02));
#834 = CARTESIAN_POINT('',(-0.223142222817,-0.795,6.486699661755E-03));
#835 = CARTESIAN_POINT('',(-0.236985594532,-0.795,2.312227236599E-03));
#836 = CARTESIAN_POINT('',(-0.250720980924,-0.795,-2.210700410248E-03));
#837 = CARTESIAN_POINT('',(-0.264331700634,-0.795,-7.093942072189E-03));
#838 = CARTESIAN_POINT('',(-0.277790962835,-0.795,-1.236493812418E-02));
#839 = PCURVE('',#379,#840);
#840 = DEFINITIONAL_REPRESENTATION('',(#841),#848);
#841 = B_SPLINE_CURVE_WITH_KNOTS('',5,(#842,#843,#844,#845,#846,#847),
  .UNSPECIFIED.,.F.,.F.,(6,6),(0.,1.),.PIECEWISE_BEZIER_KNOTS.);
#842 = CARTESIAN_POINT('',(7.227244077289E-02,-0.795));
#843 = CARTESIAN_POINT('',(5.781789065421E-02,-0.795));
#844 = CARTESIAN_POINT('',(4.336367795847E-02,-0.795));
#845 = CARTESIAN_POINT('',(2.890878109379E-02,-0.795));
#846 = CARTESIAN_POINT('',(1.445458886622E-02,-0.795));
#847 = CARTESIAN_POINT('',(0.,-0.795));
#848 = ( GEOMETRIC_REPRESENTATION_CONTEXT(2) 
PARAMETRIC_REPRESENTATION_CONTEXT() REPRESENTATION_CONTEXT('2D SPACE',''
  ) );
#849 = PCURVE('',#214,#850);
#850 = DEFINITIONAL_REPRESENTATION('',(#851),#858);
#851 = B_SPLINE_CURVE_WITH_KNOTS('',5,(#852,#853,#854,#855,#856,#857),
  .UNSPECIFIED.,.F.,.F.,(6,6),(0.,1.),.PIECEWISE_BEZIER_KNOTS.);
#852 = CARTESIAN_POINT('',(-2.775557561563E-17,1.012626208495));
#853 = CARTESIAN_POINT('',(1.410368428254E-02,1.009460573683));
#854 = CARTESIAN_POINT('',(2.81252575689E-02,1.005930610078));
#855 = CARTESIAN_POINT('',(4.205507174664E-02,1.002047571215));
#856 = CARTESIAN_POINT('',(5.587701158369E-02,0.997798839725));
#857 = CARTESIAN_POINT('',(6.956558360282E-02,0.99315576591));
#858 = ( GEOMETRIC_REPRESENTATION_CONTEXT(2) 
PARAMETRIC_REPRESENTATION_CONTEXT() REPRESENTATION_CONTEXT('2D SPACE',''
  ) );
#859 = ORIENTED_EDGE('',*,*,#860,.T.);
#860 = EDGE_CURVE('',#829,#358,#861,.T.);
#861 = SURFACE_CURVE('',#862,(#866,#873),.PCURVE_S1.);
#862 = LINE('',#863,#864);
#863 = CARTESIAN_POINT('',(-0.277790962835,0.,-1.236493812418E-02));
#864 = VECTOR('',#865,1.);
#865 = DIRECTION('',(0.,-1.,0.));
#866 = PCURVE('',#379,#867);
#867 = DEFINITIONAL_REPRESENTATION('',(#868),#872);
#868 = LINE('',#869,#870);
#869 = CARTESIAN_POINT('',(0.,0.));
#870 = VECTOR('',#871,1.);
#871 = DIRECTION('',(0.,-1.));
#872 = ( GEOMETRIC_REPRESENTATION_CONTEXT(2) 
PARAMETRIC_REPRESENTATION_CONTEXT() REPRESENTATION_CONTEXT('2D SPACE',''
  ) );
#873 = PCURVE('',#184,#874);
#874 = DEFINITIONAL_REPRESENTATION('',(#875),#879);
#875 = LINE('',#876,#877);
#876 = CARTESIAN_POINT('',(9.9246E-04,0.));
#877 = VECTOR('',#878,1.);
#878 = DIRECTION('',(0.,-1.));
#879 = ( GEOMETRIC_REPRESENTATION_CONTEXT(2) 
PARAMETRIC_REPRESENTATION_CONTEXT() REPRESENTATION_CONTEXT('2D SPACE',''
  ) );
#880 = ADVANCED_FACE('',(#881),#278,.T.);
#881 = FACE_BOUND('',#882,.T.);
#882 = EDGE_LOOP('',(#883,#905,#906,#907));
#883 = ORIENTED_EDGE('',*,*,#884,.F.);
#884 = EDGE_CURVE('',#680,#230,#885,.T.);
#885 = SURFACE_CURVE('',#886,(#891,#898),.PCURVE_S1.);
#886 = CIRCLE('',#887,1.244633937118E-02);
#887 = AXIS2_PLACEMENT_3D('',#888,#889,#890);
#888 = CARTESIAN_POINT('',(-0.208616213839,-0.795,-2.311676775576E-03));
#889 = DIRECTION('',(0.,1.,0.));
#890 = DIRECTION('',(-0.998930602741,0.,-4.623473702433E-02));
#891 = PCURVE('',#278,#892);
#892 = DEFINITIONAL_REPRESENTATION('',(#893),#897);
#893 = LINE('',#894,#895);
#894 = CARTESIAN_POINT('',(0.,0.398));
#895 = VECTOR('',#896,1.);
#896 = DIRECTION('',(1.,0.));
#897 = ( GEOMETRIC_REPRESENTATION_CONTEXT(2) 
PARAMETRIC_REPRESENTATION_CONTEXT() REPRESENTATION_CONTEXT('2D SPACE',''
  ) );
#898 = PCURVE('',#214,#899);
#899 = DEFINITIONAL_REPRESENTATION('',(#900),#904);
#900 = CIRCLE('',#901,1.244633937118E-02);
#901 = AXIS2_PLACEMENT_2D('',#902,#903);
#902 = CARTESIAN_POINT('',(0.,1.));
#903 = DIRECTION('',(1.,0.));
#904 = ( GEOMETRIC_REPRESENTATION_CONTEXT(2) 
PARAMETRIC_REPRESENTATION_CONTEXT() REPRESENTATION_CONTEXT('2D SPACE',''
  ) );
#905 = ORIENTED_EDGE('',*,*,#704,.F.);
#906 = ORIENTED_EDGE('',*,*,#632,.T.);
#907 = ORIENTED_EDGE('',*,*,#258,.T.);
#908 = ADVANCED_FACE('',(#909),#214,.T.);
#909 = FACE_BOUND('',#910,.T.);
#910 = EDGE_LOOP('',(#911,#912,#913,#914,#915,#916,#917,#918));
#911 = ORIENTED_EDGE('',*,*,#828,.F.);
#912 = ORIENTED_EDGE('',*,*,#790,.F.);
#913 = ORIENTED_EDGE('',*,*,#758,.F.);
#914 = ORIENTED_EDGE('',*,*,#679,.F.);
#915 = ORIENTED_EDGE('',*,*,#884,.T.);
#916 = ORIENTED_EDGE('',*,*,#229,.F.);
#917 = ORIENTED_EDGE('',*,*,#196,.F.);
#918 = ORIENTED_EDGE('',*,*,#919,.F.);
#919 = EDGE_CURVE('',#829,#22,#920,.T.);
#920 = SURFACE_CURVE('',#921,(#925,#932),.PCURVE_S1.);
#921 = LINE('',#922,#923);
#922 = CARTESIAN_POINT('',(-0.189342702508,-0.795,-0.501751512837));
#923 = VECTOR('',#924,1.);
#924 = DIRECTION('',(0.17785154589,0.,-0.98405732944));
#925 = PCURVE('',#214,#926);
#926 = DEFINITIONAL_REPRESENTATION('',(#927),#931);
#927 = LINE('',#928,#929);
#928 = CARTESIAN_POINT('',(3.838569188381E-03,0.500203157802));
#929 = VECTOR('',#930,1.);
#930 = DIRECTION('',(-0.132163720091,-0.991227900683));
#931 = ( GEOMETRIC_REPRESENTATION_CONTEXT(2) 
PARAMETRIC_REPRESENTATION_CONTEXT() REPRESENTATION_CONTEXT('2D SPACE',''
  ) );
#932 = PCURVE('',#184,#933);
#933 = DEFINITIONAL_REPRESENTATION('',(#934),#937);
#934 = B_SPLINE_CURVE_WITH_KNOTS('',1,(#935,#936),.UNSPECIFIED.,.F.,.F.,
  (2,2),(-0.497315105607,-0.496322645607),.PIECEWISE_BEZIER_KNOTS.);
#935 = CARTESIAN_POINT('',(9.9246E-04,-0.795));
#936 = CARTESIAN_POINT('',(0.,-0.795));
#937 = ( GEOMETRIC_REPRESENTATION_CONTEXT(2) 
PARAMETRIC_REPRESENTATION_CONTEXT() REPRESENTATION_CONTEXT('2D SPACE',''
  ) );
#938 = ADVANCED_FACE('',(#939),#184,.T.);
#939 = FACE_BOUND('',#940,.T.);
#940 = EDGE_LOOP('',(#941,#942,#943,#944));
#941 = ORIENTED_EDGE('',*,*,#919,.T.);
#942 = ORIENTED_EDGE('',*,*,#21,.T.);
#943 = ORIENTED_EDGE('',*,*,#656,.F.);
#944 = ORIENTED_EDGE('',*,*,#860,.F.);
#945 = ( GEOMETRIC_REPRESENTATION_CONTEXT(3) 
GLOBAL_UNCERTAINTY_ASSIGNED_CONTEXT((#949)) GLOBAL_UNIT_ASSIGNED_CONTEXT
((#946,#947,#948)) REPRESENTATION_CONTEXT('Context #1',
  '3D Context with UNIT and UNCERTAINTY') );
#946 = ( LENGTH_UNIT() NAMED_UNIT(*) SI_UNIT($,.METRE.) );
#947 = ( NAMED_UNIT(*) PLANE_ANGLE_UNIT() SI_UNIT($,.RADIAN.) );
#948 = ( NAMED_UNIT(*) SI_UNIT($,.STERADIAN.) SOLID_ANGLE_UNIT() );
#949 = UNCERTAINTY_MEASURE_WITH_UNIT(LENGTH_MEASURE(5.E-06),#946,
  'distance_accuracy_value','confusion accuracy');
#950 = PRODUCT_RELATED_PRODUCT_CATEGORY('part',$,(#7));
ENDSEC;
END-ISO-10303-21;
