ISO-10303-21;
HEADER;
FILE_DESCRIPTION(('Open CASCADE Model'),'2;1');
FILE_NAME('Open CASCADE Shape Model','2026-10-03T19:58:07',('Author'),(
    'Open CASCADE'),'Open CASCADE STEP processor 7.9','Open CASCADE 7.9'
  ,'Unknown');
FILE_SCHEMA(('AUTOMOTIVE_DESIGN { 1 0 10303 214 1 1 1 1 }'));
ENDSEC;
DATA;
#1 = APPLICATION_PROTOCOL_DEFINITION('international standard',
  'automotive_design',2000,#2);
#2 = APPLICATION_CONTEXT(
  'core data for automotive mechanical design processes');
#3 = SHAPE_DEFINITION_REPRESENTATION(#4,#10);
#4 = PRODUCT_DEFINITION_SHAPE('','',#5);
#5 = PRODUCT_DEFINITION('design','',#6,#9);
#6 = PRODUCT_DEFINITION_FORMATION('','',#7);
#7 = PRODUCT('Open CASCADE STEP translator 7.9 11',
  'Open CASCADE STEP translator 7.9 11','',(#8));
#8 = PRODUCT_CONTEXT('',#2,'mechanical');
#9 = PRODUCT_DEFINITION_CONTEXT('part definition',#2,'design');
#10 = ADVANCED_BREP_SHAPE_REPRESENTATION('',(#11,#15),#1047);
#11 = AXIS2_PLACEMENT_3D('',#12,#13,#14);
#12 = CARTESIAN_POINT('',(0.,0.,0.));
#13 = DIRECTION('',(0.,0.,1.));
#14 = DIRECTION('',(1.,0.,-0.));
#15 = MANIFOLD_SOLID_BREP('',#16);
#16 = CLOSED_SHELL('',(#17,#492,#839,#903,#992,#1040));
#17 = ADVANCED_FACE('',(#18),#31,.F.);
#18 = FACE_BOUND('',#19,.F.);
#19 = EDGE_LOOP('',(#20,#332,#381,#451));
#20 = ORIENTED_EDGE('',*,*,#21,.F.);
#21 = EDGE_CURVE('',#22,#24,#26,.T.);
#22 = VERTEX_POINT('',#23);
#23 = CARTESIAN_POINT('',(-1.087529587843,5.242264379461E-04,-1.23E-02)
  );
#24 = VERTEX_POINT('',#25);
#25 = CARTESIAN_POINT('',(-1.131194254834,2.180421991495E-04,
    0.399951410309));
#26 = SURFACE_CURVE('',#27,(#30,#320),.PCURVE_S1.);
#27 = B_SPLINE_CURVE_WITH_KNOTS('',1,(#28,#29),.UNSPECIFIED.,.F.,.F.,(2,
    2),(0.,1.),.PIECEWISE_BEZIER_KNOTS.);
#28 = CARTESIAN_POINT('',(-1.086364494589,5.323962744646E-04,-2.33E-02)
  );
#29 = CARTESIAN_POINT('',(-1.133,2.0538E-04,0.417));
#30 = PCURVE('',#31,#314);
#31 = B_SPLINE_SURFACE_WITH_KNOTS('',3,1,(
    (#32,#33)
    ,(#34,#35)
    ,(#36,#37)
    ,(#38,#39)
    ,(#40,#41)
    ,(#42,#43)
    ,(#44,#45)
    ,(#46,#47)
    ,(#48,#49)
    ,(#50,#51)
    ,(#52,#53)
    ,(#54,#55)
    ,(#56,#57)
    ,(#58,#59)
    ,(#60,#61)
    ,(#62,#63)
    ,(#64,#65)
    ,(#66,#67)
    ,(#68,#69)
    ,(#70,#71)
    ,(#72,#73)
    ,(#74,#75)
    ,(#76,#77)
    ,(#78,#79)
    ,(#80,#81)
    ,(#82,#83)
    ,(#84,#85)
    ,(#86,#87)
    ,(#88,#89)
    ,(#90,#91)
    ,(#92,#93)
    ,(#94,#95)
    ,(#96,#97)
    ,(#98,#99)
    ,(#100,#101)
    ,(#102,#103)
    ,(#104,#105)
    ,(#106,#107)
    ,(#108,#109)
    ,(#110,#111)
    ,(#112,#113)
    ,(#114,#115)
    ,(#116,#117)
    ,(#118,#119)
    ,(#120,#121)
    ,(#122,#123)
    ,(#124,#125)
    ,(#126,#127)
    ,(#128,#129)
    ,(#130,#131)
    ,(#132,#133)
    ,(#134,#135)
    ,(#136,#137)
    ,(#138,#139)
    ,(#140,#141)
    ,(#142,#143)
    ,(#144,#145)
    ,(#146,#147)
    ,(#148,#149)
    ,(#150,#151)
    ,(#152,#153)
    ,(#154,#155)
    ,(#156,#157)
    ,(#158,#159)
    ,(#160,#161)
    ,(#162,#163)
    ,(#164,#165)
    ,(#166,#167)
    ,(#168,#169)
    ,(#170,#171)
    ,(#172,#173)
    ,(#174,#175)
    ,(#176,#177)
    ,(#178,#179)
    ,(#180,#181)
    ,(#182,#183)
    ,(#184,#185)
    ,(#186,#187)
    ,(#188,#189)
    ,(#190,#191)
    ,(#192,#193)
    ,(#194,#195)
    ,(#196,#197)
    ,(#198,#199)
    ,(#200,#201)
    ,(#202,#203)
    ,(#204,#205)
    ,(#206,#207)
    ,(#208,#209)
    ,(#210,#211)
    ,(#212,#213)
    ,(#214,#215)
    ,(#216,#217)
    ,(#218,#219)
    ,(#220,#221)
    ,(#222,#223)
    ,(#224,#225)
    ,(#226,#227)
    ,(#228,#229)
    ,(#230,#231)
    ,(#232,#233)
    ,(#234,#235)
    ,(#236,#237)
    ,(#238,#239)
    ,(#240,#241)
    ,(#242,#243)
    ,(#244,#245)
    ,(#246,#247)
    ,(#248,#249)
    ,(#250,#251)
    ,(#252,#253)
    ,(#254,#255)
    ,(#256,#257)
    ,(#258,#259)
    ,(#260,#261)
    ,(#262,#263)
    ,(#264,#265)
    ,(#266,#267)
    ,(#268,#269)
    ,(#270,#271)
    ,(#272,#273)
    ,(#274,#275)
    ,(#276,#277)
    ,(#278,#279)
    ,(#280,#281)
    ,(#282,#283)
    ,(#284,#285)
    ,(#286,#287)
    ,(#288,#289)
    ,(#290,#291)
    ,(#292,#293)
    ,(#294,#295)
    ,(#296,#297)
    ,(#298,#299)
    ,(#300,#301)
    ,(#302,#303)
    ,(#304,#305)
    ,(#306,#307)
    ,(#308,#309)
    ,(#310,#311)
    ,(#312,#313
    )),.UNSPECIFIED.,.F.,.F.,.F.,(4,1,1,1,1,1,1,1,1,1,1,1,1,1,1,1,1,1,1,
    1,1,1,1,1,1,1,1,1,1,1,1,1,1,1,1,1,1,1,1,1,1,1,1,1,1,1,1,1,1,1,1,1,1,
    1,1,1,1,1,1,1,1,1,1,1,1,1,1,1,1,1,1,1,1,1,1,1,1,1,1,1,1,1,1,1,1,1,1,
    1,1,1,1,1,1,1,1,1,1,1,1,1,1,1,1,1,1,1,1,1,1,1,1,1,1,1,1,1,1,1,1,1,1,
    1,1,1,1,1,1,1,1,1,1,1,1,1,1,1,1,1,4),(2,2),(0.,2.210862529794E-04,
    8.838704065969E-04,1.9869300457E-03,3.527899125828E-03,
    5.503474868851E-03,7.909427269837E-03,1.074061107732E-02,
    1.399098008216E-02,1.765360353133E-02,2.172068447295E-02,
    2.618357983733E-02,3.1032822066E-02,3.62581421149E-02,
    4.184849367842E-02,4.779207850595E-02,5.407637271061E-02,
    6.068815399898E-02,6.761352977996E-02,7.483796613821E-02,
    8.234631768283E-02,9.012285830376E-02,9.815131288608E-02,
    0.106414890046,0.114896315962,0.123577869376,0.132441417849,
    0.141468455331,0.150640141119,0.159937340236,0.169340665269,
    0.178830519644,0.188387142321,0.197990653808,0.207621103408,
    0.217258517501,0.226882948685,0.236474525499,0.246013502445,
    0.25548030999,0.264855604202,0.274120315678,0.283255697439,
    0.292243371503,0.301065373925,0.309704198164,0.318142836793,
    0.326364821702,0.334354263163,0.342095888341,0.349575080147,
    0.356777917702,0.363691220108,0.370302595872,0.376600501167,
    0.382574311285,0.388214411474,0.393512316055,0.398460829005,
    0.403054266139,0.407288770313,0.411162769975,0.414677663056,
    0.417838860963,0.420657411415,0.423152533958,0.425355482969,
    0.427314892264,0.429102305739,0.430813198288,0.432524090837,
    0.434311504312,0.436270913607,0.438473862618,0.440968985161,
    0.443787535613,0.44694873352,0.450463626601,0.454337626263,
    0.458572130437,0.463165567571,0.468114080521,0.473411985102,
    0.479052085291,0.485025895409,0.491323800704,0.497935176468,
    0.504848478874,0.512051316429,0.519530508235,0.527272133413,
    0.535261574874,0.543483559783,0.551922198412,0.560561022651,
    0.569383025073,0.578370699137,0.587506080898,0.596770792374,
    0.606146086586,0.615612894131,0.625151871077,0.634743447891,
    0.644367879075,0.654005293168,0.663635742768,0.673239254255,
    0.682795876932,0.692285731307,0.70168905634,0.710986255457,
    0.720157941245,0.729184978727,0.7380485272,0.746730080614,
    0.75521150653,0.76347508369,0.771503538272,0.779280078893,
    0.786788430438,0.794012866796,0.800938242577,0.807550023865,
    0.81383431807,0.819777902898,0.825368254461,0.83059357451,
    0.835442816739,0.839905712103,0.843972793045,0.847635416494,
    0.850885785499,0.853716969306,0.856122921707,0.85809849745,
    0.85963946653,0.860742526169,0.861405310323,0.861626396576),(0.,1.),
  .UNSPECIFIED.);
#32 = CARTESIAN_POINT('',(-1.086364494589,5.323962744646E-04,-2.33E-02)
  );
#33 = CARTESIAN_POINT('',(-1.133,2.0538E-04,0.417));
#34 = CARTESIAN_POINT('',(-1.08629151405,5.426361738388E-04,-2.33E-02));
#35 = CARTESIAN_POINT('',(-1.132971846642,2.093301976898E-04,0.417));
#36 = CARTESIAN_POINT('',(-1.085999746755,5.8356090739E-04,-2.33E-02));
#37 = CARTESIAN_POINT('',(-1.132859292948,2.251175391493E-04,0.417));
#38 = CARTESIAN_POINT('',(-1.085343841164,6.754435653005E-04,-2.33E-02)
  );
#39 = CARTESIAN_POINT('',(-1.132606267342,2.605626787695E-04,0.417));
#40 = CARTESIAN_POINT('',(-1.084252175326,8.279789401174E-04,-2.33E-02)
  );
#41 = CARTESIAN_POINT('',(-1.13218514056,3.194055309502E-04,0.417));
#42 = CARTESIAN_POINT('',(-1.0827270112,1.040272629453E-03,-2.33E-02));
#43 = CARTESIAN_POINT('',(-1.131596785187,4.013010663006E-04,0.417));
#44 = CARTESIAN_POINT('',(-1.080771509007,1.311090511886E-03,-2.33E-02)
  );
#45 = CARTESIAN_POINT('',(-1.130842420329,5.057732036197E-04,0.417));
#46 = CARTESIAN_POINT('',(-1.078389720732,1.638876055546E-03,-2.33E-02)
  );
#47 = CARTESIAN_POINT('',(-1.129923609099,6.322214869488E-04,0.417));
#48 = CARTESIAN_POINT('',(-1.075586581773,2.021771556094E-03,-2.33E-02)
  );
#49 = CARTESIAN_POINT('',(-1.128842255402,7.79929278446E-04,0.417));
#50 = CARTESIAN_POINT('',(-1.07236790077,2.457642593497E-03,-2.33E-02));
#51 = CARTESIAN_POINT('',(-1.127600600011,9.480731929615E-04,0.417));
#52 = CARTESIAN_POINT('',(-1.06874034763,2.944104895734E-03,-2.33E-02));
#53 = CARTESIAN_POINT('',(-1.126201215944,1.135733461122E-03,0.417));
#54 = CARTESIAN_POINT('',(-1.064711439757,3.478552725502E-03,-2.33E-02)
  );
#55 = CARTESIAN_POINT('',(-1.124647003154,1.341904879935E-03,0.417));
#56 = CARTESIAN_POINT('',(-1.060289526525,4.058187867474E-03,-2.33E-02)
  );
#57 = CARTESIAN_POINT('',(-1.122941182541,1.565507995073E-03,0.417));
#58 = CARTESIAN_POINT('',(-1.055483772025,4.680048289686E-03,-2.33E-02)
  );
#59 = CARTESIAN_POINT('',(-1.121087289291,1.805400157434E-03,0.417));
#60 = CARTESIAN_POINT('',(-1.050304136101,5.341035583787E-03,-2.33E-02)
  );
#61 = CARTESIAN_POINT('',(-1.119089165568,2.060386108639E-03,0.417));
#62 = CARTESIAN_POINT('',(-1.04476135374,6.037940354147E-03,-2.33E-02));
#63 = CARTESIAN_POINT('',(-1.116950952557,2.329227775272E-03,0.417));
#64 = CARTESIAN_POINT('',(-1.038866912835,6.767464823135E-03,-2.33E-02)
  );
#65 = CARTESIAN_POINT('',(-1.114677081887,2.61065298921E-03,0.417));
#66 = CARTESIAN_POINT('',(-1.032633030376,7.526242045695E-03,-2.33E-02)
  );
#67 = CARTESIAN_POINT('',(-1.11227226645,2.903362899936E-03,0.417));
#68 = CARTESIAN_POINT('',(-1.02607262712,8.310851276463E-03,-2.33E-02));
#69 = CARTESIAN_POINT('',(-1.109741490625,3.206037902644E-03,0.417));
#70 = CARTESIAN_POINT('',(-1.019199300789,9.117829201571E-03,-2.33E-02)
  );
#71 = CARTESIAN_POINT('',(-1.107089999941,3.517341971075E-03,0.417));
#72 = CARTESIAN_POINT('',(-1.012027297857,9.943676928915E-03,-2.33E-02)
  );
#73 = CARTESIAN_POINT('',(-1.104323290193,3.835925354125E-03,0.417));
#74 = CARTESIAN_POINT('',(-1.004571483979,1.078486281845E-02,-2.33E-02)
  );
#75 = CARTESIAN_POINT('',(-1.101447096036,4.160425667669E-03,0.417));
#76 = CARTESIAN_POINT('',(-0.996847313133,1.163782142105E-02,-2.33E-02)
  );
#77 = CARTESIAN_POINT('',(-1.098467379076,4.48946748521E-03,0.417));
#78 = CARTESIAN_POINT('',(-0.988870795533,1.249894897358E-02,-2.33E-02)
  );
#79 = CARTESIAN_POINT('',(-1.095390315499,4.821660600037E-03,0.417));
#80 = CARTESIAN_POINT('',(-0.980658464385,1.336459606247E-02,-2.33E-02)
  );
#81 = CARTESIAN_POINT('',(-1.092222283242,5.155597195099E-03,0.417));
#82 = CARTESIAN_POINT('',(-0.972227341559,1.423105821183E-02,-2.33E-02)
  );
#83 = CARTESIAN_POINT('',(-1.088969848751,5.489848212187E-03,0.417));
#84 = CARTESIAN_POINT('',(-0.96359490224,1.509456526872E-02,-2.33E-02));
#85 = CARTESIAN_POINT('',(-1.085639753346,5.822959257195E-03,0.417));
#86 = CARTESIAN_POINT('',(-0.954779038647,1.595127054442E-02,-2.33E-02)
  );
#87 = CARTESIAN_POINT('',(-1.082238899223,6.153446411148E-03,0.417));
#88 = CARTESIAN_POINT('',(-0.94579802288,1.679724071999E-02,-2.33E-02));
#89 = CARTESIAN_POINT('',(-1.078774335125,6.47979233615E-03,0.417));
#90 = CARTESIAN_POINT('',(-0.936670468996,1.762844753741E-02,-2.33E-02)
  );
#91 = CARTESIAN_POINT('',(-1.075253241709,6.800443070107E-03,0.417));
#92 = CARTESIAN_POINT('',(-0.927415294369,1.844076227059E-02,-2.33E-02)
  );
#93 = CARTESIAN_POINT('',(-1.071682916641,7.113805893819E-03,0.417));
#94 = CARTESIAN_POINT('',(-0.918051680438,1.922995390445E-02,-2.33E-02)
  );
#95 = CARTESIAN_POINT('',(-1.068070759454,7.418248628556E-03,0.417));
#96 = CARTESIAN_POINT('',(-0.908599032913,1.999169184722E-02,-2.33E-02)
  );
#97 = CARTESIAN_POINT('',(-1.064424256198,7.712100682354E-03,0.417));
#98 = CARTESIAN_POINT('',(-0.899076941533,2.07215538622E-02,-2.33E-02));
#99 = CARTESIAN_POINT('',(-1.060750963913,7.993656109816E-03,0.417));
#100 = CARTESIAN_POINT('',(-0.889505139451,2.14150397362E-02,-2.33E-02)
  );
#101 = CARTESIAN_POINT('',(-1.057058494964,8.261178884924E-03,0.417));
#102 = CARTESIAN_POINT('',(-0.879903462342,2.206759100688E-02,-2.33E-02)
  );
#103 = CARTESIAN_POINT('',(-1.053354501268,8.512910511159E-03,0.417));
#104 = CARTESIAN_POINT('',(-0.87029180731,2.26746168567E-02,-2.33E-02));
#105 = CARTESIAN_POINT('',(-1.049646658435,8.74708001049E-03,0.417));
#106 = CARTESIAN_POINT('',(-0.860690091687,2.323152605421E-02,-2.33E-02)
  );
#107 = CARTESIAN_POINT('',(-1.045942649881,8.961916245209E-03,0.417));
#108 = CARTESIAN_POINT('',(-0.8511182118,2.373376459129E-02,-2.33E-02));
#109 = CARTESIAN_POINT('',(-1.042250150919,9.155662437082E-03,0.417));
#110 = CARTESIAN_POINT('',(-0.841596001795,2.417685843564E-02,-2.33E-02)
  );
#111 = CARTESIAN_POINT('',(-1.038576812872,9.326592659771E-03,0.417));
#112 = CARTESIAN_POINT('',(-0.832143192586,2.45564605992E-02,-2.33E-02)
  );
#113 = CARTESIAN_POINT('',(-1.034930247243,9.473029996189E-03,0.417));
#114 = CARTESIAN_POINT('',(-0.822779371026,2.486840152262E-02,-2.33E-02)
  );
#115 = CARTESIAN_POINT('',(-1.03131800996,9.593365975095E-03,0.417));
#116 = CARTESIAN_POINT('',(-0.813523939358,2.510874160143E-02,-2.33E-02)
  );
#117 = CARTESIAN_POINT('',(-1.027747585735,9.686080833843E-03,0.417));
#118 = CARTESIAN_POINT('',(-0.804396075022,2.527382453643E-02,-2.33E-02)
  );
#119 = CARTESIAN_POINT('',(-1.024226372557,9.74976409914E-03,0.417));
#120 = CARTESIAN_POINT('',(-0.795414690895,2.53603300863E-02,-2.33E-02)
  );
#121 = CARTESIAN_POINT('',(-1.020761666359,9.783134937149E-03,0.417));
#122 = CARTESIAN_POINT('',(-0.786598396024,2.53653247372E-02,-2.33E-02)
  );
#123 = CARTESIAN_POINT('',(-1.017360645864,9.785061700074E-03,0.417));
#124 = CARTESIAN_POINT('',(-0.777965456909,2.528630878721E-02,-2.33E-02)
  );
#125 = CARTESIAN_POINT('',(-1.014030357655,9.754580089689E-03,0.417));
#126 = CARTESIAN_POINT('',(-0.769533759407,2.512125837323E-02,-2.33E-02)
  );
#127 = CARTESIAN_POINT('',(-1.010777701474,9.690909369871E-03,0.417));
#128 = CARTESIAN_POINT('',(-0.761320771289,2.486866104589E-02,-2.33E-02)
  );
#129 = CARTESIAN_POINT('',(-1.007609415781,9.593466090161E-03,0.417));
#130 = CARTESIAN_POINT('',(-0.753343505511,2.452754362219E-02,-2.33E-02)
  );
#131 = CARTESIAN_POINT('',(-1.004532063583,9.461874830343E-03,0.417));
#132 = CARTESIAN_POINT('',(-0.745618484213,2.409749121358E-02,-2.33E-02)
  );
#133 = CARTESIAN_POINT('',(-1.001552018548,9.295975540817E-03,0.417));
#134 = CARTESIAN_POINT('',(-0.73816170346,2.35786565344E-02,-2.33E-02));
#135 = CARTESIAN_POINT('',(-0.998675451403,9.095827133471E-03,0.417));
#136 = CARTESIAN_POINT('',(-0.73098859872,2.297175883586E-02,-2.33E-02)
  );
#137 = CARTESIAN_POINT('',(-0.995908316616,8.86170707046E-03,0.417));
#138 = CARTESIAN_POINT('',(-0.724114010994,2.227807207553E-02,-2.33E-02)
  );
#139 = CARTESIAN_POINT('',(-0.99325633933,8.594106800379E-03,0.417));
#140 = CARTESIAN_POINT('',(-0.717552153491,2.149940220954E-02,-2.33E-02)
  );
#141 = CARTESIAN_POINT('',(-0.990725002507,8.29372299841E-03,0.417));
#142 = CARTESIAN_POINT('',(-0.711316578601,2.063805376897E-02,-2.33E-02)
  );
#143 = CARTESIAN_POINT('',(-0.988319534189,7.961444672642E-03,0.417));
#144 = CARTESIAN_POINT('',(-0.705420144783,1.969678612589E-02,-2.33E-02)
  );
#145 = CARTESIAN_POINT('',(-0.986044894723,7.598336293024E-03,0.417));
#146 = CARTESIAN_POINT('',(-0.69987498269,1.867876002378E-02,-2.33E-02)
  );
#147 = CARTESIAN_POINT('',(-0.983905763693,7.20561716466E-03,0.417));
#148 = CARTESIAN_POINT('',(-0.694692459493,1.758747496074E-02,-2.33E-02)
  );
#149 = CARTESIAN_POINT('',(-0.981906526161,6.784637272431E-03,0.417));
#150 = CARTESIAN_POINT('',(-0.689883139688,1.642669769365E-02,-2.33E-02)
  );
#151 = CARTESIAN_POINT('',(-0.98005125754,6.336849700375E-03,0.417));
#152 = CARTESIAN_POINT('',(-0.685456739704,1.52003811676E-02,-2.33E-02)
  );
#153 = CARTESIAN_POINT('',(-0.978343706093,5.863779357474E-03,0.417));
#154 = CARTESIAN_POINT('',(-0.681422072343,1.391257069622E-02,-2.33E-02)
  );
#155 = CARTESIAN_POINT('',(-0.976787271493,5.366986785292E-03,0.417));
#156 = CARTESIAN_POINT('',(-0.677786975477,1.256728908099E-02,-2.33E-02)
  );
#157 = CARTESIAN_POINT('',(-0.975384977319,4.848023840982E-03,0.417));
#158 = CARTESIAN_POINT('',(-0.674558220213,1.116837985568E-02,-2.33E-02)
  );
#159 = CARTESIAN_POINT('',(-0.974139435627,4.308373226441E-03,0.417));
#160 = CARTESIAN_POINT('',(-0.671741400634,9.719266698573E-03,-2.33E-02)
  );
#161 = CARTESIAN_POINT('',(-0.973052804423,3.749355677893E-03,0.417));
#162 = CARTESIAN_POINT('',(-0.669340853448,8.22253505735E-03,-2.33E-02)
  );
#163 = CARTESIAN_POINT('',(-0.972126756656,3.171968571299E-03,0.417));
#164 = CARTESIAN_POINT('',(-0.667359776356,6.679222164438E-03,-2.33E-02)
  );
#165 = CARTESIAN_POINT('',(-0.971362525889,2.57661203492E-03,0.417));
#166 = CARTESIAN_POINT('',(-0.665801152725,5.087709973811E-03,-2.33E-02)
  );
#167 = CARTESIAN_POINT('',(-0.970761263001,1.962661882771E-03,0.417));
#168 = CARTESIAN_POINT('',(-0.66467050039,3.443266308351E-03,-2.33E-02)
  );
#169 = CARTESIAN_POINT('',(-0.970325096582,1.328292605203E-03,0.417));
#170 = CARTESIAN_POINT('',(-0.663981008444,1.741107869662E-03,-2.33E-02)
  );
#171 = CARTESIAN_POINT('',(-0.970059114526,6.716589717512E-04,0.417));
#172 = CARTESIAN_POINT('',(-0.663752824973,8.666470651742E-20,-2.33E-02)
  );
#173 = CARTESIAN_POINT('',(-0.969971089264,0.,0.417));
#174 = CARTESIAN_POINT('',(-0.663981008444,-1.741107869662E-03,-2.33E-02
    ));
#175 = CARTESIAN_POINT('',(-0.970059114526,-6.716589717512E-04,0.417));
#176 = CARTESIAN_POINT('',(-0.66467050039,-3.443266308351E-03,-2.33E-02)
  );
#177 = CARTESIAN_POINT('',(-0.970325096582,-1.328292605203E-03,0.417));
#178 = CARTESIAN_POINT('',(-0.665801152725,-5.087709973811E-03,-2.33E-02
    ));
#179 = CARTESIAN_POINT('',(-0.970761263001,-1.962661882771E-03,0.417));
#180 = CARTESIAN_POINT('',(-0.667359776356,-6.679222164438E-03,-2.33E-02
    ));
#181 = CARTESIAN_POINT('',(-0.971362525889,-2.57661203492E-03,0.417));
#182 = CARTESIAN_POINT('',(-0.669340853448,-8.22253505735E-03,-2.33E-02)
  );
#183 = CARTESIAN_POINT('',(-0.972126756656,-3.171968571299E-03,0.417));
#184 = CARTESIAN_POINT('',(-0.671741400634,-9.719266698573E-03,-2.33E-02
    ));
#185 = CARTESIAN_POINT('',(-0.973052804423,-3.749355677893E-03,0.417));
#186 = CARTESIAN_POINT('',(-0.674558220213,-1.116837985568E-02,-2.33E-02
    ));
#187 = CARTESIAN_POINT('',(-0.974139435627,-4.308373226441E-03,0.417));
#188 = CARTESIAN_POINT('',(-0.677786975477,-1.256728908099E-02,-2.33E-02
    ));
#189 = CARTESIAN_POINT('',(-0.975384977319,-4.848023840982E-03,0.417));
#190 = CARTESIAN_POINT('',(-0.681422072343,-1.391257069622E-02,-2.33E-02
    ));
#191 = CARTESIAN_POINT('',(-0.976787271493,-5.366986785292E-03,0.417));
#192 = CARTESIAN_POINT('',(-0.685456739704,-1.52003811676E-02,-2.33E-02)
  );
#193 = CARTESIAN_POINT('',(-0.978343706093,-5.863779357474E-03,0.417));
#194 = CARTESIAN_POINT('',(-0.689883139688,-1.642669769365E-02,-2.33E-02
    ));
#195 = CARTESIAN_POINT('',(-0.98005125754,-6.336849700375E-03,0.417));
#196 = CARTESIAN_POINT('',(-0.694692459493,-1.758747496074E-02,-2.33E-02
    ));
#197 = CARTESIAN_POINT('',(-0.981906526161,-6.784637272431E-03,0.417));
#198 = CARTESIAN_POINT('',(-0.69987498269,-1.867876002378E-02,-2.33E-02)
  );
#199 = CARTESIAN_POINT('',(-0.983905763693,-7.20561716466E-03,0.417));
#200 = CARTESIAN_POINT('',(-0.705420144783,-1.969678612589E-02,-2.33E-02
    ));
#201 = CARTESIAN_POINT('',(-0.986044894723,-7.598336293024E-03,0.417));
#202 = CARTESIAN_POINT('',(-0.711316578601,-2.063805376897E-02,-2.33E-02
    ));
#203 = CARTESIAN_POINT('',(-0.988319534189,-7.961444672642E-03,0.417));
#204 = CARTESIAN_POINT('',(-0.717552153491,-2.149940220954E-02,-2.33E-02
    ));
#205 = CARTESIAN_POINT('',(-0.990725002507,-8.29372299841E-03,0.417));
#206 = CARTESIAN_POINT('',(-0.724114010994,-2.227807207553E-02,-2.33E-02
    ));
#207 = CARTESIAN_POINT('',(-0.99325633933,-8.594106800379E-03,0.417));
#208 = CARTESIAN_POINT('',(-0.73098859872,-2.297175883586E-02,-2.33E-02)
  );
#209 = CARTESIAN_POINT('',(-0.995908316616,-8.86170707046E-03,0.417));
#210 = CARTESIAN_POINT('',(-0.73816170346,-2.35786565344E-02,-2.33E-02)
  );
#211 = CARTESIAN_POINT('',(-0.998675451403,-9.095827133471E-03,0.417));
#212 = CARTESIAN_POINT('',(-0.745618484213,-2.409749121358E-02,-2.33E-02
    ));
#213 = CARTESIAN_POINT('',(-1.001552018548,-9.295975540817E-03,0.417));
#214 = CARTESIAN_POINT('',(-0.753343505511,-2.452754362219E-02,-2.33E-02
    ));
#215 = CARTESIAN_POINT('',(-1.004532063583,-9.461874830343E-03,0.417));
#216 = CARTESIAN_POINT('',(-0.761320771289,-2.486866104589E-02,-2.33E-02
    ));
#217 = CARTESIAN_POINT('',(-1.007609415781,-9.593466090161E-03,0.417));
#218 = CARTESIAN_POINT('',(-0.769533759407,-2.512125837323E-02,-2.33E-02
    ));
#219 = CARTESIAN_POINT('',(-1.010777701474,-9.690909369871E-03,0.417));
#220 = CARTESIAN_POINT('',(-0.777965456909,-2.528630878721E-02,-2.33E-02
    ));
#221 = CARTESIAN_POINT('',(-1.014030357655,-9.754580089689E-03,0.417));
#222 = CARTESIAN_POINT('',(-0.786598396024,-2.53653247372E-02,-2.33E-02)
  );
#223 = CARTESIAN_POINT('',(-1.017360645864,-9.785061700074E-03,0.417));
#224 = CARTESIAN_POINT('',(-0.795414690895,-2.53603300863E-02,-2.33E-02)
  );
#225 = CARTESIAN_POINT('',(-1.020761666359,-9.783134937149E-03,0.417));
#226 = CARTESIAN_POINT('',(-0.804396075022,-2.527382453643E-02,-2.33E-02
    ));
#227 = CARTESIAN_POINT('',(-1.024226372557,-9.74976409914E-03,0.417));
#228 = CARTESIAN_POINT('',(-0.813523939358,-2.510874160143E-02,-2.33E-02
    ));
#229 = CARTESIAN_POINT('',(-1.027747585735,-9.686080833843E-03,0.417));
#230 = CARTESIAN_POINT('',(-0.822779371026,-2.486840152262E-02,-2.33E-02
    ));
#231 = CARTESIAN_POINT('',(-1.03131800996,-9.593365975095E-03,0.417));
#232 = CARTESIAN_POINT('',(-0.832143192586,-2.45564605992E-02,-2.33E-02)
  );
#233 = CARTESIAN_POINT('',(-1.034930247243,-9.473029996189E-03,0.417));
#234 = CARTESIAN_POINT('',(-0.841596001795,-2.417685843564E-02,-2.33E-02
    ));
#235 = CARTESIAN_POINT('',(-1.038576812872,-9.326592659771E-03,0.417));
#236 = CARTESIAN_POINT('',(-0.8511182118,-2.373376459129E-02,-2.33E-02)
  );
#237 = CARTESIAN_POINT('',(-1.042250150919,-9.155662437082E-03,0.417));
#238 = CARTESIAN_POINT('',(-0.860690091687,-2.323152605421E-02,-2.33E-02
    ));
#239 = CARTESIAN_POINT('',(-1.045942649881,-8.961916245209E-03,0.417));
#240 = CARTESIAN_POINT('',(-0.87029180731,-2.26746168567E-02,-2.33E-02)
  );
#241 = CARTESIAN_POINT('',(-1.049646658435,-8.74708001049E-03,0.417));
#242 = CARTESIAN_POINT('',(-0.879903462342,-2.206759100688E-02,-2.33E-02
    ));
#243 = CARTESIAN_POINT('',(-1.053354501268,-8.512910511159E-03,0.417));
#244 = CARTESIAN_POINT('',(-0.889505139451,-2.14150397362E-02,-2.33E-02)
  );
#245 = CARTESIAN_POINT('',(-1.057058494964,-8.261178884924E-03,0.417));
#246 = CARTESIAN_POINT('',(-0.899076941533,-2.07215538622E-02,-2.33E-02)
  );
#247 = CARTESIAN_POINT('',(-1.060750963913,-7.993656109816E-03,0.417));
#248 = CARTESIAN_POINT('',(-0.908599032913,-1.999169184722E-02,-2.33E-02
    ));
#249 = CARTESIAN_POINT('',(-1.064424256198,-7.712100682354E-03,0.417));
#250 = CARTESIAN_POINT('',(-0.918051680438,-1.922995390445E-02,-2.33E-02
    ));
#251 = CARTESIAN_POINT('',(-1.068070759454,-7.418248628556E-03,0.417));
#252 = CARTESIAN_POINT('',(-0.927415294369,-1.844076227059E-02,-2.33E-02
    ));
#253 = CARTESIAN_POINT('',(-1.071682916641,-7.113805893819E-03,0.417));
#254 = CARTESIAN_POINT('',(-0.936670468996,-1.762844753741E-02,-2.33E-02
    ));
#255 = CARTESIAN_POINT('',(-1.075253241709,-6.800443070107E-03,0.417));
#256 = CARTESIAN_POINT('',(-0.94579802288,-1.679724071999E-02,-2.33E-02)
  );
#257 = CARTESIAN_POINT('',(-1.078774335125,-6.47979233615E-03,0.417));
#258 = CARTESIAN_POINT('',(-0.954779038647,-1.595127054442E-02,-2.33E-02
    ));
#259 = CARTESIAN_POINT('',(-1.082238899223,-6.153446411148E-03,0.417));
#260 = CARTESIAN_POINT('',(-0.96359490224,-1.509456526872E-02,-2.33E-02)
  );
#261 = CARTESIAN_POINT('',(-1.085639753346,-5.822959257195E-03,0.417));
#262 = CARTESIAN_POINT('',(-0.972227341559,-1.423105821183E-02,-2.33E-02
    ));
#263 = CARTESIAN_POINT('',(-1.088969848751,-5.489848212187E-03,0.417));
#264 = CARTESIAN_POINT('',(-0.980658464385,-1.336459606247E-02,-2.33E-02
    ));
#265 = CARTESIAN_POINT('',(-1.092222283242,-5.155597195099E-03,0.417));
#266 = CARTESIAN_POINT('',(-0.988870795533,-1.249894897358E-02,-2.33E-02
    ));
#267 = CARTESIAN_POINT('',(-1.095390315499,-4.821660600037E-03,0.417));
#268 = CARTESIAN_POINT('',(-0.996847313133,-1.163782142105E-02,-2.33E-02
    ));
#269 = CARTESIAN_POINT('',(-1.098467379076,-4.48946748521E-03,0.417));
#270 = CARTESIAN_POINT('',(-1.004571483979,-1.078486281845E-02,-2.33E-02
    ));
#271 = CARTESIAN_POINT('',(-1.101447096036,-4.160425667669E-03,0.417));
#272 = CARTESIAN_POINT('',(-1.012027297857,-9.943676928915E-03,-2.33E-02
    ));
#273 = CARTESIAN_POINT('',(-1.104323290193,-3.835925354125E-03,0.417));
#274 = CARTESIAN_POINT('',(-1.019199300789,-9.117829201571E-03,-2.33E-02
    ));
#275 = CARTESIAN_POINT('',(-1.107089999941,-3.517341971075E-03,0.417));
#276 = CARTESIAN_POINT('',(-1.02607262712,-8.310851276463E-03,-2.33E-02)
  );
#277 = CARTESIAN_POINT('',(-1.109741490625,-3.206037902644E-03,0.417));
#278 = CARTESIAN_POINT('',(-1.032633030376,-7.526242045695E-03,-2.33E-02
    ));
#279 = CARTESIAN_POINT('',(-1.11227226645,-2.903362899936E-03,0.417));
#280 = CARTESIAN_POINT('',(-1.038866912835,-6.767464823135E-03,-2.33E-02
    ));
#281 = CARTESIAN_POINT('',(-1.114677081887,-2.61065298921E-03,0.417));
#282 = CARTESIAN_POINT('',(-1.04476135374,-6.037940354147E-03,-2.33E-02)
  );
#283 = CARTESIAN_POINT('',(-1.116950952557,-2.329227775272E-03,0.417));
#284 = CARTESIAN_POINT('',(-1.050304136101,-5.341035583787E-03,-2.33E-02
    ));
#285 = CARTESIAN_POINT('',(-1.119089165568,-2.060386108639E-03,0.417));
#286 = CARTESIAN_POINT('',(-1.055483772025,-4.680048289686E-03,-2.33E-02
    ));
#287 = CARTESIAN_POINT('',(-1.121087289291,-1.805400157434E-03,0.417));
#288 = CARTESIAN_POINT('',(-1.060289526525,-4.058187867474E-03,-2.33E-02
    ));
#289 = CARTESIAN_POINT('',(-1.122941182541,-1.565507995073E-03,0.417));
#290 = CARTESIAN_POINT('',(-1.064711439757,-3.478552725502E-03,-2.33E-02
    ));
#291 = CARTESIAN_POINT('',(-1.124647003154,-1.341904879935E-03,0.417));
#292 = CARTESIAN_POINT('',(-1.06874034763,-2.944104895734E-03,-2.33E-02)
  );
#293 = CARTESIAN_POINT('',(-1.126201215944,-1.135733461122E-03,0.417));
#294 = CARTESIAN_POINT('',(-1.07236790077,-2.457642593497E-03,-2.33E-02)
  );
#295 = CARTESIAN_POINT('',(-1.127600600011,-9.480731929614E-04,0.417));
#296 = CARTESIAN_POINT('',(-1.075586581773,-2.021771556094E-03,-2.33E-02
    ));
#297 = CARTESIAN_POINT('',(-1.128842255402,-7.79929278446E-04,0.417));
#298 = CARTESIAN_POINT('',(-1.078389720732,-1.638876055546E-03,-2.33E-02
    ));
#299 = CARTESIAN_POINT('',(-1.129923609099,-6.322214869488E-04,0.417));
#300 = CARTESIAN_POINT('',(-1.080771509007,-1.311090511886E-03,-2.33E-02
    ));
#301 = CARTESIAN_POINT('',(-1.130842420329,-5.057732036197E-04,0.417));
#302 = CARTESIAN_POINT('',(-1.0827270112,-1.040272629453E-03,-2.33E-02)
  );
#303 = CARTESIAN_POINT('',(-1.131596785187,-4.013010663006E-04,0.417));
#304 = CARTESIAN_POINT('',(-1.084252175326,-8.279789401174E-04,-2.33E-02
    ));
#305 = CARTESIAN_POINT('',(-1.13218514056,-3.194055309502E-04,0.417));
#306 = CARTESIAN_POINT('',(-1.085343841164,-6.754435653005E-04,-2.33E-02
    ));
#307 = CARTESIAN_POINT('',(-1.132606267342,-2.605626787695E-04,0.417));
#308 = CARTESIAN_POINT('',(-1.085999746755,-5.8356090739E-04,-2.33E-02)
  );
#309 = CARTESIAN_POINT('',(-1.132859292948,-2.251175391493E-04,0.417));
#310 = CARTESIAN_POINT('',(-1.08629151405,-5.426361738388E-04,-2.33E-02)
  );
#311 = CARTESIAN_POINT('',(-1.132971846642,-2.093301976898E-04,0.417));
#312 = CARTESIAN_POINT('',(-1.086364494589,-5.323962744646E-04,-2.33E-02
    ));
#313 = CARTESIAN_POINT('',(-1.133,-2.0538E-04,0.417));
#314 = DEFINITIONAL_REPRESENTATION('',(#315),#319);
#315 = LINE('',#316,#317);
#316 = CARTESIAN_POINT('',(0.,0.));
#317 = VECTOR('',#318,1.);
#318 = DIRECTION('',(0.,1.));
#319 = ( GEOMETRIC_REPRESENTATION_CONTEXT(2) 
PARAMETRIC_REPRESENTATION_CONTEXT() REPRESENTATION_CONTEXT('2D SPACE',''
  ) );
#320 = PCURVE('',#321,#326);
#321 = B_SPLINE_SURFACE_WITH_KNOTS('',1,1,(
    (#322,#323)
    ,(#324,#325
    )),.UNSPECIFIED.,.F.,.F.,.F.,(2,2),(2,2),(0.,1.064792548929E-03),(0.
    ,1.),.PIECEWISE_BEZIER_KNOTS.);
#322 = CARTESIAN_POINT('',(-1.086364494589,-5.323962744646E-04,-2.33E-02
    ));
#323 = CARTESIAN_POINT('',(-1.133,-2.0538E-04,0.417));
#324 = CARTESIAN_POINT('',(-1.086364494589,5.323962744646E-04,-2.33E-02)
  );
#325 = CARTESIAN_POINT('',(-1.133,2.0538E-04,0.417));
#326 = DEFINITIONAL_REPRESENTATION('',(#327),#331);
#327 = LINE('',#328,#329);
#328 = CARTESIAN_POINT('',(1.064792548929E-03,0.));
#329 = VECTOR('',#330,1.);
#330 = DIRECTION('',(0.,1.));
#331 = ( GEOMETRIC_REPRESENTATION_CONTEXT(2) 
PARAMETRIC_REPRESENTATION_CONTEXT() REPRESENTATION_CONTEXT('2D SPACE',''
  ) );
#332 = ORIENTED_EDGE('',*,*,#333,.F.);
#333 = EDGE_CURVE('',#334,#22,#336,.T.);
#334 = VERTEX_POINT('',#335);
#335 = CARTESIAN_POINT('',(-0.957197329035,1.577532934062E-02,-1.23E-02)
  );
#336 = SURFACE_CURVE('',#337,(#348,#362),.PCURVE_S1.);
#337 = B_SPLINE_CURVE_WITH_KNOTS('',5,(#338,#339,#340,#341,#342,#343,
    #344,#345,#346,#347),.UNSPECIFIED.,.F.,.F.,(6,4,6),(0.,
    0.527000302372,1.),.UNSPECIFIED.);
#338 = CARTESIAN_POINT('',(-0.901198635563,2.05391058395E-02,-1.23E-02)
  );
#339 = CARTESIAN_POINT('',(-0.920900783482,1.90873169907E-02,-1.23E-02)
  );
#340 = CARTESIAN_POINT('',(-0.940586705416,1.741737642732E-02,-1.23E-02)
  );
#341 = CARTESIAN_POINT('',(-0.960257162798,1.557652492316E-02,-1.23E-02)
  );
#342 = CARTESIAN_POINT('',(-0.979912389475,1.358333384391E-02,-1.23E-02)
  );
#343 = CARTESIAN_POINT('',(-1.01717752378,9.512543011193E-03,-1.23E-02)
  );
#344 = CARTESIAN_POINT('',(-1.0347904582,7.464620214469E-03,-1.23E-02));
#345 = CARTESIAN_POINT('',(-1.052389016649,5.293711393171E-03,-1.23E-02)
  );
#346 = CARTESIAN_POINT('',(-1.069970332943,2.987965487352E-03,-1.23E-02)
  );
#347 = CARTESIAN_POINT('',(-1.087529587843,5.242264379461E-04,-1.23E-02)
  );
#348 = PCURVE('',#31,#349);
#349 = DEFINITIONAL_REPRESENTATION('',(#350),#361);
#350 = B_SPLINE_CURVE_WITH_KNOTS('',5,(#351,#352,#353,#354,#355,#356,
    #357,#358,#359,#360),.UNSPECIFIED.,.F.,.F.,(6,4,6),(0.,
    0.527000302372,1.),.UNSPECIFIED.);
#351 = CARTESIAN_POINT('',(0.190354898799,2.498296615944E-02));
#352 = CARTESIAN_POINT('',(0.170291468296,2.498296615944E-02));
#353 = CARTESIAN_POINT('',(0.150228163209,2.498296615944E-02));
#354 = CARTESIAN_POINT('',(0.130164603743,2.498296615944E-02));
#355 = CARTESIAN_POINT('',(0.110101308619,2.498296615944E-02));
#356 = CARTESIAN_POINT('',(7.203028399782E-02,2.498296615944E-02));
#357 = CARTESIAN_POINT('',(5.402271336113E-02,2.498296615944E-02));
#358 = CARTESIAN_POINT('',(3.601515300678E-02,2.498296615944E-02));
#359 = CARTESIAN_POINT('',(1.800758986271E-02,2.498296615944E-02));
#360 = CARTESIAN_POINT('',(0.,2.498296615944E-02));
#361 = ( GEOMETRIC_REPRESENTATION_CONTEXT(2) 
PARAMETRIC_REPRESENTATION_CONTEXT() REPRESENTATION_CONTEXT('2D SPACE',''
  ) );
#362 = PCURVE('',#363,#368);
#363 = PLANE('',#364);
#364 = AXIS2_PLACEMENT_3D('',#365,#366,#367);
#365 = CARTESIAN_POINT('',(-2.,-1.,-1.23E-02));
#366 = DIRECTION('',(0.,0.,1.));
#367 = DIRECTION('',(1.,0.,-0.));
#368 = DEFINITIONAL_REPRESENTATION('',(#369),#380);
#369 = B_SPLINE_CURVE_WITH_KNOTS('',5,(#370,#371,#372,#373,#374,#375,
    #376,#377,#378,#379),.UNSPECIFIED.,.F.,.F.,(6,4,6),(0.,
    0.527000302372,1.),.UNSPECIFIED.);
#370 = CARTESIAN_POINT('',(1.098801364437,1.020539105839));
#371 = CARTESIAN_POINT('',(1.079099216518,1.019087316991));
#372 = CARTESIAN_POINT('',(1.059413294584,1.017417376427));
#373 = CARTESIAN_POINT('',(1.039742837202,1.015576524923));
#374 = CARTESIAN_POINT('',(1.020087610525,1.013583333844));
#375 = CARTESIAN_POINT('',(0.98282247622,1.009512543011));
#376 = CARTESIAN_POINT('',(0.9652095418,1.007464620214));
#377 = CARTESIAN_POINT('',(0.947610983351,1.005293711393));
#378 = CARTESIAN_POINT('',(0.930029667057,1.002987965487));
#379 = CARTESIAN_POINT('',(0.912470412157,1.000524226438));
#380 = ( GEOMETRIC_REPRESENTATION_CONTEXT(2) 
PARAMETRIC_REPRESENTATION_CONTEXT() REPRESENTATION_CONTEXT('2D SPACE',''
  ) );
#381 = ORIENTED_EDGE('',*,*,#382,.T.);
#382 = EDGE_CURVE('',#334,#383,#385,.T.);
#383 = VERTEX_POINT('',#384);
#384 = CARTESIAN_POINT('',(-1.06,8.046737698038E-03,0.417));
#385 = SURFACE_CURVE('',#386,(#404,#425),.PCURVE_S1.);
#386 = B_SPLINE_CURVE_WITH_KNOTS('',6,(#387,#388,#389,#390,#391,#392,
    #393,#394,#395,#396,#397,#398,#399,#400,#401,#402,#403),
  .UNSPECIFIED.,.F.,.F.,(7,5,5,7),(0.,0.504303510001,0.851360217007,1.),
  .UNSPECIFIED.);
#387 = CARTESIAN_POINT('',(-0.954563205158,1.596748791757E-02,-2.33E-02)
  );
#388 = CARTESIAN_POINT('',(-0.963439691526,1.532012674269E-02,
    1.376786566943E-02));
#389 = CARTESIAN_POINT('',(-0.972315600176,1.467140702282E-02,
    5.083331881132E-02));
#390 = CARTESIAN_POINT('',(-0.981190969337,1.402099529484E-02,
    8.789651906874E-02));
#391 = CARTESIAN_POINT('',(-0.990065483481,1.336839794399E-02,
    0.124956148807));
#392 = CARTESIAN_POINT('',(-0.998938504746,1.271300248248E-02,
    0.162009544337));
#393 = CARTESIAN_POINT('',(-1.013913151961,1.159928620061E-02,
    0.224543095162));
#394 = CARTESIAN_POINT('',(-1.020015842864,1.114326375774E-02,
    0.250027697653));
#395 = CARTESIAN_POINT('',(-1.026116897538,1.068470557263E-02,
    0.275505467314));
#396 = CARTESIAN_POINT('',(-1.032215373294,1.022284441595E-02,
    0.300972467515));
#397 = CARTESIAN_POINT('',(-1.038309369803,9.756781431536E-03,
    0.326420762551));
#398 = CARTESIAN_POINT('',(-1.047001560667,9.081686019457E-03,
    0.362719017283));
#399 = CARTESIAN_POINT('',(-1.049606393714,8.878047871035E-03,
    0.373596699905));
#400 = CARTESIAN_POINT('',(-1.052209323611,8.673011122236E-03,
    0.384466435041));
#401 = CARTESIAN_POINT('',(-1.054809828561,8.466348954152E-03,
    0.395326043691));
#402 = CARTESIAN_POINT('',(-1.057407102354,8.257745327019E-03,
    0.406172159158));
#403 = CARTESIAN_POINT('',(-1.06,8.046737698035E-03,0.417));
#404 = PCURVE('',#31,#405);
#405 = DEFINITIONAL_REPRESENTATION('',(#406),#424);
#406 = B_SPLINE_CURVE_WITH_KNOTS('',6,(#407,#408,#409,#410,#411,#412,
    #413,#414,#415,#416,#417,#418,#419,#420,#421,#422,#423),
  .UNSPECIFIED.,.F.,.F.,(7,5,5,7),(0.,0.504303510001,0.851360217007,1.),
  .UNSPECIFIED.);
#407 = CARTESIAN_POINT('',(0.132712310779,0.));
#408 = CARTESIAN_POINT('',(0.134586049217,8.418774851109E-02));
#409 = CARTESIAN_POINT('',(0.136692318837,0.168370017741));
#410 = CARTESIAN_POINT('',(0.139083546796,0.252547170267));
#411 = CARTESIAN_POINT('',(0.141840924944,0.336716213508));
#412 = CARTESIAN_POINT('',(0.145068896626,0.420871097744));
#413 = CARTESIAN_POINT('',(0.151708460822,0.562895969026));
#414 = CARTESIAN_POINT('',(0.154749225322,0.620776056445));
#415 = CARTESIAN_POINT('',(0.158199383656,0.678640625288));
#416 = CARTESIAN_POINT('',(0.162173817184,0.73648073476));
#417 = CARTESIAN_POINT('',(0.166821776346,0.794278361461));
#418 = CARTESIAN_POINT('',(0.17488681541,0.876718185972));
#419 = CARTESIAN_POINT('',(0.177488288653,0.901423347502));
#420 = CARTESIAN_POINT('',(0.180298956067,0.926110458871));
#421 = CARTESIAN_POINT('',(0.183350107831,0.950774571182));
#422 = CARTESIAN_POINT('',(0.186683110207,0.975408038061));
#423 = CARTESIAN_POINT('',(0.190354298799,1.));
#424 = ( GEOMETRIC_REPRESENTATION_CONTEXT(2) 
PARAMETRIC_REPRESENTATION_CONTEXT() REPRESENTATION_CONTEXT('2D SPACE',''
  ) );
#425 = PCURVE('',#426,#431);
#426 = PLANE('',#427);
#427 = AXIS2_PLACEMENT_3D('',#428,#429,#430);
#428 = CARTESIAN_POINT('',(-0.944821677866,1.,-6.398024329697E-02));
#429 = DIRECTION('',(-0.972505068687,0.,-0.232881711129));
#430 = DIRECTION('',(-0.232881711129,0.,0.972505068687));
#431 = DEFINITIONAL_REPRESENTATION('',(#432),#450);
#432 = B_SPLINE_CURVE_WITH_KNOTS('',6,(#433,#434,#435,#436,#437,#438,
    #439,#440,#441,#442,#443,#444,#445,#446,#447,#448,#449),
  .UNSPECIFIED.,.F.,.F.,(7,5,5,7),(0.,0.504303510001,0.851360217007,1.),
  .UNSPECIFIED.);
#433 = CARTESIAN_POINT('',(4.183036634647E-02,-0.984032512082));
#434 = CARTESIAN_POINT('',(7.994622492959E-02,-0.984679873257));
#435 = CARTESIAN_POINT('',(0.118059602778,-0.985328592977));
#436 = CARTESIAN_POINT('',(0.156170664047,-0.985979004705));
#437 = CARTESIAN_POINT('',(0.194278053851,-0.986631602056));
#438 = CARTESIAN_POINT('',(0.23237903319,-0.987286997518));
#439 = CARTESIAN_POINT('',(0.296680549798,-0.988400713799));
#440 = CARTESIAN_POINT('',(0.322885659993,-0.988856736242));
#441 = CARTESIAN_POINT('',(0.34908374418,-0.989315294427));
#442 = CARTESIAN_POINT('',(0.375270754429,-0.989777155584));
#443 = CARTESIAN_POINT('',(0.401438530675,-0.990243218568));
#444 = CARTESIAN_POINT('',(0.438763019669,-0.990918313981));
#445 = CARTESIAN_POINT('',(0.449948239131,-0.991121952129));
#446 = CARTESIAN_POINT('',(0.461125286415,-0.991326988878));
#447 = CARTESIAN_POINT('',(0.472291920914,-0.991533651046));
#448 = CARTESIAN_POINT('',(0.483444680746,-0.991742254673));
#449 = CARTESIAN_POINT('',(0.494578649288,-0.991953262302));
#450 = ( GEOMETRIC_REPRESENTATION_CONTEXT(2) 
PARAMETRIC_REPRESENTATION_CONTEXT() REPRESENTATION_CONTEXT('2D SPACE',''
  ) );
#451 = ORIENTED_EDGE('',*,*,#452,.T.);
#452 = EDGE_CURVE('',#383,#24,#453,.T.);
#453 = SURFACE_CURVE('',#454,(#463,#475),.PCURVE_S1.);
#454 = B_SPLINE_CURVE_WITH_KNOTS('',4,(#455,#456,#457,#458,#459,#460,
    #461,#462),.UNSPECIFIED.,.F.,.F.,(5,3,5),(0.,0.355433167776,1.),
  .UNSPECIFIED.);
#455 = CARTESIAN_POINT('',(-1.06,8.046737698035E-03,0.417));
#456 = CARTESIAN_POINT('',(-1.066032656966,7.604869648262E-03,
    0.415555384931));
#457 = CARTESIAN_POINT('',(-1.072132805512,7.091750296661E-03,
    0.414094607936));
#458 = CARTESIAN_POINT('',(-1.078301790874,6.52016113145E-03,
    0.412617346878));
#459 = CARTESIAN_POINT('',(-1.095854918311,4.754832355688E-03,
    0.40841397305));
#460 = CARTESIAN_POINT('',(-1.107398957675,3.433738013459E-03,
    0.405649570347));
#461 = CARTESIAN_POINT('',(-1.119180377233,1.944327291009E-03,
    0.402828323205));
#462 = CARTESIAN_POINT('',(-1.131194254834,2.180421991496E-04,
    0.399951410309));
#463 = PCURVE('',#31,#464);
#464 = DEFINITIONAL_REPRESENTATION('',(#465),#474);
#465 = B_SPLINE_CURVE_WITH_KNOTS('',4,(#466,#467,#468,#469,#470,#471,
    #472,#473),.UNSPECIFIED.,.F.,.F.,(5,3,5),(0.,0.355433167776,1.),
  .UNSPECIFIED.);
#466 = CARTESIAN_POINT('',(0.190354298799,1.));
#467 = CARTESIAN_POINT('',(0.173284777513,0.996719020965));
#468 = CARTESIAN_POINT('',(0.156249387455,0.993401335308));
#469 = CARTESIAN_POINT('',(0.139249479234,0.990046211397));
#470 = CARTESIAN_POINT('',(9.152453155413E-02,0.980499598115));
#471 = CARTESIAN_POINT('',(6.088387405502E-02,0.974221145463));
#472 = CARTESIAN_POINT('',(3.03730907479E-02,0.967813588927));
#473 = CARTESIAN_POINT('',(0.,0.961279605517));
#474 = ( GEOMETRIC_REPRESENTATION_CONTEXT(2) 
PARAMETRIC_REPRESENTATION_CONTEXT() REPRESENTATION_CONTEXT('2D SPACE',''
  ) );
#475 = PCURVE('',#476,#481);
#476 = PLANE('',#477);
#477 = AXIS2_PLACEMENT_3D('',#478,#479,#480);
#478 = CARTESIAN_POINT('',(-1.06,1.,0.417));
#479 = DIRECTION('',(-0.232881711129,0.,0.972505068687));
#480 = DIRECTION('',(-0.972505068687,0.,-0.232881711129));
#481 = DEFINITIONAL_REPRESENTATION('',(#482),#491);
#482 = B_SPLINE_CURVE_WITH_KNOTS('',4,(#483,#484,#485,#486,#487,#488,
    #489,#490),.UNSPECIFIED.,.F.,.F.,(5,3,5),(0.,0.355433167776,1.),
  .UNSPECIFIED.);
#483 = CARTESIAN_POINT('',(2.22044604925E-16,0.991953262302));
#484 = CARTESIAN_POINT('',(6.203213906479E-03,0.992395130352));
#485 = CARTESIAN_POINT('',(1.247582753342E-02,0.992908249703));
#486 = CARTESIAN_POINT('',(1.881922414895E-02,0.993479838869));
#487 = CARTESIAN_POINT('',(3.686861844238E-02,0.995245167644));
#488 = CARTESIAN_POINT('',(4.873903406905E-02,0.996566261987));
#489 = CARTESIAN_POINT('',(6.085354116706E-02,0.998055672709));
#490 = CARTESIAN_POINT('',(7.320707842656E-02,0.999781957801));
#491 = ( GEOMETRIC_REPRESENTATION_CONTEXT(2) 
PARAMETRIC_REPRESENTATION_CONTEXT() REPRESENTATION_CONTEXT('2D SPACE',''
  ) );
#492 = ADVANCED_FACE('',(#493),#321,.F.);
#493 = FACE_BOUND('',#494,.F.);
#494 = EDGE_LOOP('',(#495,#802,#820,#821));
#495 = ORIENTED_EDGE('',*,*,#496,.F.);
#496 = EDGE_CURVE('',#497,#499,#501,.T.);
#497 = VERTEX_POINT('',#498);
#498 = CARTESIAN_POINT('',(-1.087529587843,-5.242264379461E-04,-1.23E-02
    ));
#499 = VERTEX_POINT('',#500);
#500 = CARTESIAN_POINT('',(-1.131194254834,-2.180421991495E-04,
    0.399951410309));
#501 = SURFACE_CURVE('',#502,(#505,#512),.PCURVE_S1.);
#502 = B_SPLINE_CURVE_WITH_KNOTS('',1,(#503,#504),.UNSPECIFIED.,.F.,.F.,
  (2,2),(0.,1.),.PIECEWISE_BEZIER_KNOTS.);
#503 = CARTESIAN_POINT('',(-1.086364494589,-5.323962744646E-04,-2.33E-02
    ));
#504 = CARTESIAN_POINT('',(-1.133,-2.0538E-04,0.417));
#505 = PCURVE('',#321,#506);
#506 = DEFINITIONAL_REPRESENTATION('',(#507),#511);
#507 = LINE('',#508,#509);
#508 = CARTESIAN_POINT('',(0.,0.));
#509 = VECTOR('',#510,1.);
#510 = DIRECTION('',(0.,1.));
#511 = ( GEOMETRIC_REPRESENTATION_CONTEXT(2) 
PARAMETRIC_REPRESENTATION_CONTEXT() REPRESENTATION_CONTEXT('2D SPACE',''
  ) );
#512 = PCURVE('',#513,#796);
#513 = B_SPLINE_SURFACE_WITH_KNOTS('',3,1,(
    (#514,#515)
    ,(#516,#517)
    ,(#518,#519)
    ,(#520,#521)
    ,(#522,#523)
    ,(#524,#525)
    ,(#526,#527)
    ,(#528,#529)
    ,(#530,#531)
    ,(#532,#533)
    ,(#534,#535)
    ,(#536,#537)
    ,(#538,#539)
    ,(#540,#541)
    ,(#542,#543)
    ,(#544,#545)
    ,(#546,#547)
    ,(#548,#549)
    ,(#550,#551)
    ,(#552,#553)
    ,(#554,#555)
    ,(#556,#557)
    ,(#558,#559)
    ,(#560,#561)
    ,(#562,#563)
    ,(#564,#565)
    ,(#566,#567)
    ,(#568,#569)
    ,(#570,#571)
    ,(#572,#573)
    ,(#574,#575)
    ,(#576,#577)
    ,(#578,#579)
    ,(#580,#581)
    ,(#582,#583)
    ,(#584,#585)
    ,(#586,#587)
    ,(#588,#589)
    ,(#590,#591)
    ,(#592,#593)
    ,(#594,#595)
    ,(#596,#597)
    ,(#598,#599)
    ,(#600,#601)
    ,(#602,#603)
    ,(#604,#605)
    ,(#606,#607)
    ,(#608,#609)
    ,(#610,#611)
    ,(#612,#613)
    ,(#614,#615)
    ,(#616,#617)
    ,(#618,#619)
    ,(#620,#621)
    ,(#622,#623)
    ,(#624,#625)
    ,(#626,#627)
    ,(#628,#629)
    ,(#630,#631)
    ,(#632,#633)
    ,(#634,#635)
    ,(#636,#637)
    ,(#638,#639)
    ,(#640,#641)
    ,(#642,#643)
    ,(#644,#645)
    ,(#646,#647)
    ,(#648,#649)
    ,(#650,#651)
    ,(#652,#653)
    ,(#654,#655)
    ,(#656,#657)
    ,(#658,#659)
    ,(#660,#661)
    ,(#662,#663)
    ,(#664,#665)
    ,(#666,#667)
    ,(#668,#669)
    ,(#670,#671)
    ,(#672,#673)
    ,(#674,#675)
    ,(#676,#677)
    ,(#678,#679)
    ,(#680,#681)
    ,(#682,#683)
    ,(#684,#685)
    ,(#686,#687)
    ,(#688,#689)
    ,(#690,#691)
    ,(#692,#693)
    ,(#694,#695)
    ,(#696,#697)
    ,(#698,#699)
    ,(#700,#701)
    ,(#702,#703)
    ,(#704,#705)
    ,(#706,#707)
    ,(#708,#709)
    ,(#710,#711)
    ,(#712,#713)
    ,(#714,#715)
    ,(#716,#717)
    ,(#718,#719)
    ,(#720,#721)
    ,(#722,#723)
    ,(#724,#725)
    ,(#726,#727)
    ,(#728,#729)
    ,(#730,#731)
    ,(#732,#733)
    ,(#734,#735)
    ,(#736,#737)
    ,(#738,#739)
    ,(#740,#741)
    ,(#742,#743)
    ,(#744,#745)
    ,(#746,#747)
    ,(#748,#749)
    ,(#750,#751)
    ,(#752,#753)
    ,(#754,#755)
    ,(#756,#757)
    ,(#758,#759)
    ,(#760,#761)
    ,(#762,#763)
    ,(#764,#765)
    ,(#766,#767)
    ,(#768,#769)
    ,(#770,#771)
    ,(#772,#773)
    ,(#774,#775)
    ,(#776,#777)
    ,(#778,#779)
    ,(#780,#781)
    ,(#782,#783)
    ,(#784,#785)
    ,(#786,#787)
    ,(#788,#789)
    ,(#790,#791)
    ,(#792,#793)
    ,(#794,#795
    )),.UNSPECIFIED.,.F.,.F.,.F.,(4,1,1,1,1,1,1,1,1,1,1,1,1,1,1,1,1,1,1,
    1,1,1,1,1,1,1,1,1,1,1,1,1,1,1,1,1,1,1,1,1,1,1,1,1,1,1,1,1,1,1,1,1,1,
    1,1,1,1,1,1,1,1,1,1,1,1,1,1,1,1,1,1,1,1,1,1,1,1,1,1,1,1,1,1,1,1,1,1,
    1,1,1,1,1,1,1,1,1,1,1,1,1,1,1,1,1,1,1,1,1,1,1,1,1,1,1,1,1,1,1,1,1,1,
    1,1,1,1,1,1,1,1,1,1,1,1,1,1,1,1,1,4),(2,2),(0.,2.210862529794E-04,
    8.838704065969E-04,1.9869300457E-03,3.527899125828E-03,
    5.503474868851E-03,7.909427269837E-03,1.074061107732E-02,
    1.399098008216E-02,1.765360353133E-02,2.172068447295E-02,
    2.618357983733E-02,3.1032822066E-02,3.62581421149E-02,
    4.184849367842E-02,4.779207850595E-02,5.407637271061E-02,
    6.068815399898E-02,6.761352977996E-02,7.483796613821E-02,
    8.234631768283E-02,9.012285830376E-02,9.815131288608E-02,
    0.106414890046,0.114896315962,0.123577869376,0.132441417849,
    0.141468455331,0.150640141119,0.159937340236,0.169340665269,
    0.178830519644,0.188387142321,0.197990653808,0.207621103408,
    0.217258517501,0.226882948685,0.236474525499,0.246013502445,
    0.25548030999,0.264855604202,0.274120315678,0.283255697439,
    0.292243371503,0.301065373925,0.309704198164,0.318142836793,
    0.326364821702,0.334354263163,0.342095888341,0.349575080147,
    0.356777917702,0.363691220108,0.370302595872,0.376600501167,
    0.382574311285,0.388214411474,0.393512316055,0.398460829005,
    0.403054266139,0.407288770313,0.411162769975,0.414677663056,
    0.417838860963,0.420657411415,0.423152533958,0.425355482969,
    0.427314892264,0.429102305739,0.430813198288,0.432524090837,
    0.434311504312,0.436270913607,0.438473862618,0.440968985161,
    0.443787535613,0.44694873352,0.450463626601,0.454337626263,
    0.458572130437,0.463165567571,0.468114080521,0.473411985102,
    0.479052085291,0.485025895409,0.491323800704,0.497935176468,
    0.504848478874,0.512051316429,0.519530508235,0.527272133413,
    0.535261574874,0.543483559783,0.551922198412,0.560561022651,
    0.569383025073,0.578370699137,0.587506080898,0.596770792374,
    0.606146086586,0.615612894131,0.625151871077,0.634743447891,
    0.644367879075,0.654005293168,0.663635742768,0.673239254255,
    0.682795876932,0.692285731307,0.70168905634,0.710986255457,
    0.720157941245,0.729184978727,0.7380485272,0.746730080614,
    0.75521150653,0.76347508369,0.771503538272,0.779280078893,
    0.786788430438,0.794012866796,0.800938242577,0.807550023865,
    0.81383431807,0.819777902898,0.825368254461,0.83059357451,
    0.835442816739,0.839905712103,0.843972793045,0.847635416494,
    0.850885785499,0.853716969306,0.856122921707,0.85809849745,
    0.85963946653,0.860742526169,0.861405310323,0.861626396576),(0.,1.),
  .UNSPECIFIED.);
#514 = CARTESIAN_POINT('',(-1.086364494589,5.323962744646E-04,-2.33E-02)
  );
#515 = CARTESIAN_POINT('',(-1.133,2.0538E-04,0.417));
#516 = CARTESIAN_POINT('',(-1.08629151405,5.426361738388E-04,-2.33E-02)
  );
#517 = CARTESIAN_POINT('',(-1.132971846642,2.093301976898E-04,0.417));
#518 = CARTESIAN_POINT('',(-1.085999746755,5.8356090739E-04,-2.33E-02));
#519 = CARTESIAN_POINT('',(-1.132859292948,2.251175391493E-04,0.417));
#520 = CARTESIAN_POINT('',(-1.085343841164,6.754435653005E-04,-2.33E-02)
  );
#521 = CARTESIAN_POINT('',(-1.132606267342,2.605626787695E-04,0.417));
#522 = CARTESIAN_POINT('',(-1.084252175326,8.279789401174E-04,-2.33E-02)
  );
#523 = CARTESIAN_POINT('',(-1.13218514056,3.194055309502E-04,0.417));
#524 = CARTESIAN_POINT('',(-1.0827270112,1.040272629453E-03,-2.33E-02));
#525 = CARTESIAN_POINT('',(-1.131596785187,4.013010663006E-04,0.417));
#526 = CARTESIAN_POINT('',(-1.080771509007,1.311090511886E-03,-2.33E-02)
  );
#527 = CARTESIAN_POINT('',(-1.130842420329,5.057732036197E-04,0.417));
#528 = CARTESIAN_POINT('',(-1.078389720732,1.638876055546E-03,-2.33E-02)
  );
#529 = CARTESIAN_POINT('',(-1.129923609099,6.322214869488E-04,0.417));
#530 = CARTESIAN_POINT('',(-1.075586581773,2.021771556094E-03,-2.33E-02)
  );
#531 = CARTESIAN_POINT('',(-1.128842255402,7.79929278446E-04,0.417));
#532 = CARTESIAN_POINT('',(-1.07236790077,2.457642593497E-03,-2.33E-02)
  );
#533 = CARTESIAN_POINT('',(-1.127600600011,9.480731929615E-04,0.417));
#534 = CARTESIAN_POINT('',(-1.06874034763,2.944104895734E-03,-2.33E-02)
  );
#535 = CARTESIAN_POINT('',(-1.126201215944,1.135733461122E-03,0.417));
#536 = CARTESIAN_POINT('',(-1.064711439757,3.478552725502E-03,-2.33E-02)
  );
#537 = CARTESIAN_POINT('',(-1.124647003154,1.341904879935E-03,0.417));
#538 = CARTESIAN_POINT('',(-1.060289526525,4.058187867474E-03,-2.33E-02)
  );
#539 = CARTESIAN_POINT('',(-1.122941182541,1.565507995073E-03,0.417));
#540 = CARTESIAN_POINT('',(-1.055483772025,4.680048289686E-03,-2.33E-02)
  );
#541 = CARTESIAN_POINT('',(-1.121087289291,1.805400157434E-03,0.417));
#542 = CARTESIAN_POINT('',(-1.050304136101,5.341035583787E-03,-2.33E-02)
  );
#543 = CARTESIAN_POINT('',(-1.119089165568,2.060386108639E-03,0.417));
#544 = CARTESIAN_POINT('',(-1.04476135374,6.037940354147E-03,-2.33E-02)
  );
#545 = CARTESIAN_POINT('',(-1.116950952557,2.329227775272E-03,0.417));
#546 = CARTESIAN_POINT('',(-1.038866912835,6.767464823135E-03,-2.33E-02)
  );
#547 = CARTESIAN_POINT('',(-1.114677081887,2.61065298921E-03,0.417));
#548 = CARTESIAN_POINT('',(-1.032633030376,7.526242045695E-03,-2.33E-02)
  );
#549 = CARTESIAN_POINT('',(-1.11227226645,2.903362899936E-03,0.417));
#550 = CARTESIAN_POINT('',(-1.02607262712,8.310851276463E-03,-2.33E-02)
  );
#551 = CARTESIAN_POINT('',(-1.109741490625,3.206037902644E-03,0.417));
#552 = CARTESIAN_POINT('',(-1.019199300789,9.117829201571E-03,-2.33E-02)
  );
#553 = CARTESIAN_POINT('',(-1.107089999941,3.517341971075E-03,0.417));
#554 = CARTESIAN_POINT('',(-1.012027297857,9.943676928915E-03,-2.33E-02)
  );
#555 = CARTESIAN_POINT('',(-1.104323290193,3.835925354125E-03,0.417));
#556 = CARTESIAN_POINT('',(-1.004571483979,1.078486281845E-02,-2.33E-02)
  );
#557 = CARTESIAN_POINT('',(-1.101447096036,4.160425667669E-03,0.417));
#558 = CARTESIAN_POINT('',(-0.996847313133,1.163782142105E-02,-2.33E-02)
  );
#559 = CARTESIAN_POINT('',(-1.098467379076,4.48946748521E-03,0.417));
#560 = CARTESIAN_POINT('',(-0.988870795533,1.249894897358E-02,-2.33E-02)
  );
#561 = CARTESIAN_POINT('',(-1.095390315499,4.821660600037E-03,0.417));
#562 = CARTESIAN_POINT('',(-0.980658464385,1.336459606247E-02,-2.33E-02)
  );
#563 = CARTESIAN_POINT('',(-1.092222283242,5.155597195099E-03,0.417));
#564 = CARTESIAN_POINT('',(-0.972227341559,1.423105821183E-02,-2.33E-02)
  );
#565 = CARTESIAN_POINT('',(-1.088969848751,5.489848212187E-03,0.417));
#566 = CARTESIAN_POINT('',(-0.96359490224,1.509456526872E-02,-2.33E-02)
  );
#567 = CARTESIAN_POINT('',(-1.085639753346,5.822959257195E-03,0.417));
#568 = CARTESIAN_POINT('',(-0.954779038647,1.595127054442E-02,-2.33E-02)
  );
#569 = CARTESIAN_POINT('',(-1.082238899223,6.153446411148E-03,0.417));
#570 = CARTESIAN_POINT('',(-0.94579802288,1.679724071999E-02,-2.33E-02)
  );
#571 = CARTESIAN_POINT('',(-1.078774335125,6.47979233615E-03,0.417));
#572 = CARTESIAN_POINT('',(-0.936670468996,1.762844753741E-02,-2.33E-02)
  );
#573 = CARTESIAN_POINT('',(-1.075253241709,6.800443070107E-03,0.417));
#574 = CARTESIAN_POINT('',(-0.927415294369,1.844076227059E-02,-2.33E-02)
  );
#575 = CARTESIAN_POINT('',(-1.071682916641,7.113805893819E-03,0.417));
#576 = CARTESIAN_POINT('',(-0.918051680438,1.922995390445E-02,-2.33E-02)
  );
#577 = CARTESIAN_POINT('',(-1.068070759454,7.418248628556E-03,0.417));
#578 = CARTESIAN_POINT('',(-0.908599032913,1.999169184722E-02,-2.33E-02)
  );
#579 = CARTESIAN_POINT('',(-1.064424256198,7.712100682354E-03,0.417));
#580 = CARTESIAN_POINT('',(-0.899076941533,2.07215538622E-02,-2.33E-02)
  );
#581 = CARTESIAN_POINT('',(-1.060750963913,7.993656109816E-03,0.417));
#582 = CARTESIAN_POINT('',(-0.889505139451,2.14150397362E-02,-2.33E-02)
  );
#583 = CARTESIAN_POINT('',(-1.057058494964,8.261178884924E-03,0.417));
#584 = CARTESIAN_POINT('',(-0.879903462342,2.206759100688E-02,-2.33E-02)
  );
#585 = CARTESIAN_POINT('',(-1.053354501268,8.512910511159E-03,0.417));
#586 = CARTESIAN_POINT('',(-0.87029180731,2.26746168567E-02,-2.33E-02));
#587 = CARTESIAN_POINT('',(-1.049646658435,8.74708001049E-03,0.417));
#588 = CARTESIAN_POINT('',(-0.860690091687,2.323152605421E-02,-2.33E-02)
  );
#589 = CARTESIAN_POINT('',(-1.045942649881,8.961916245209E-03,0.417));
#590 = CARTESIAN_POINT('',(-0.8511182118,2.373376459129E-02,-2.33E-02));
#591 = CARTESIAN_POINT('',(-1.042250150919,9.155662437082E-03,0.417));
#592 = CARTESIAN_POINT('',(-0.841596001795,2.417685843564E-02,-2.33E-02)
  );
#593 = CARTESIAN_POINT('',(-1.038576812872,9.326592659771E-03,0.417));
#594 = CARTESIAN_POINT('',(-0.832143192586,2.45564605992E-02,-2.33E-02)
  );
#595 = CARTESIAN_POINT('',(-1.034930247243,9.473029996189E-03,0.417));
#596 = CARTESIAN_POINT('',(-0.822779371026,2.486840152262E-02,-2.33E-02)
  );
#597 = CARTESIAN_POINT('',(-1.03131800996,9.593365975095E-03,0.417));
#598 = CARTESIAN_POINT('',(-0.813523939358,2.510874160143E-02,-2.33E-02)
  );
#599 = CARTESIAN_POINT('',(-1.027747585735,9.686080833843E-03,0.417));
#600 = CARTESIAN_POINT('',(-0.804396075022,2.527382453643E-02,-2.33E-02)
  );
#601 = CARTESIAN_POINT('',(-1.024226372557,9.74976409914E-03,0.417));
#602 = CARTESIAN_POINT('',(-0.795414690895,2.53603300863E-02,-2.33E-02)
  );
#603 = CARTESIAN_POINT('',(-1.020761666359,9.783134937149E-03,0.417));
#604 = CARTESIAN_POINT('',(-0.786598396024,2.53653247372E-02,-2.33E-02)
  );
#605 = CARTESIAN_POINT('',(-1.017360645864,9.785061700074E-03,0.417));
#606 = CARTESIAN_POINT('',(-0.777965456909,2.528630878721E-02,-2.33E-02)
  );
#607 = CARTESIAN_POINT('',(-1.014030357655,9.754580089689E-03,0.417));
#608 = CARTESIAN_POINT('',(-0.769533759407,2.512125837323E-02,-2.33E-02)
  );
#609 = CARTESIAN_POINT('',(-1.010777701474,9.690909369871E-03,0.417));
#610 = CARTESIAN_POINT('',(-0.761320771289,2.486866104589E-02,-2.33E-02)
  );
#611 = CARTESIAN_POINT('',(-1.007609415781,9.593466090161E-03,0.417));
#612 = CARTESIAN_POINT('',(-0.753343505511,2.452754362219E-02,-2.33E-02)
  );
#613 = CARTESIAN_POINT('',(-1.004532063583,9.461874830343E-03,0.417));
#614 = CARTESIAN_POINT('',(-0.745618484213,2.409749121358E-02,-2.33E-02)
  );
#615 = CARTESIAN_POINT('',(-1.001552018548,9.295975540817E-03,0.417));
#616 = CARTESIAN_POINT('',(-0.73816170346,2.35786565344E-02,-2.33E-02));
#617 = CARTESIAN_POINT('',(-0.998675451403,9.095827133471E-03,0.417));
#618 = CARTESIAN_POINT('',(-0.73098859872,2.297175883586E-02,-2.33E-02)
  );
#619 = CARTESIAN_POINT('',(-0.995908316616,8.86170707046E-03,0.417));
#620 = CARTESIAN_POINT('',(-0.724114010994,2.227807207553E-02,-2.33E-02)
  );
#621 = CARTESIAN_POINT('',(-0.99325633933,8.594106800379E-03,0.417));
#622 = CARTESIAN_POINT('',(-0.717552153491,2.149940220954E-02,-2.33E-02)
  );
#623 = CARTESIAN_POINT('',(-0.990725002507,8.29372299841E-03,0.417));
#624 = CARTESIAN_POINT('',(-0.711316578601,2.063805376897E-02,-2.33E-02)
  );
#625 = CARTESIAN_POINT('',(-0.988319534189,7.961444672642E-03,0.417));
#626 = CARTESIAN_POINT('',(-0.705420144783,1.969678612589E-02,-2.33E-02)
  );
#627 = CARTESIAN_POINT('',(-0.986044894723,7.598336293024E-03,0.417));
#628 = CARTESIAN_POINT('',(-0.69987498269,1.867876002378E-02,-2.33E-02)
  );
#629 = CARTESIAN_POINT('',(-0.983905763693,7.20561716466E-03,0.417));
#630 = CARTESIAN_POINT('',(-0.694692459493,1.758747496074E-02,-2.33E-02)
  );
#631 = CARTESIAN_POINT('',(-0.981906526161,6.784637272431E-03,0.417));
#632 = CARTESIAN_POINT('',(-0.689883139688,1.642669769365E-02,-2.33E-02)
  );
#633 = CARTESIAN_POINT('',(-0.98005125754,6.336849700375E-03,0.417));
#634 = CARTESIAN_POINT('',(-0.685456739704,1.52003811676E-02,-2.33E-02)
  );
#635 = CARTESIAN_POINT('',(-0.978343706093,5.863779357474E-03,0.417));
#636 = CARTESIAN_POINT('',(-0.681422072343,1.391257069622E-02,-2.33E-02)
  );
#637 = CARTESIAN_POINT('',(-0.976787271493,5.366986785292E-03,0.417));
#638 = CARTESIAN_POINT('',(-0.677786975477,1.256728908099E-02,-2.33E-02)
  );
#639 = CARTESIAN_POINT('',(-0.975384977319,4.848023840982E-03,0.417));
#640 = CARTESIAN_POINT('',(-0.674558220213,1.116837985568E-02,-2.33E-02)
  );
#641 = CARTESIAN_POINT('',(-0.974139435627,4.308373226441E-03,0.417));
#642 = CARTESIAN_POINT('',(-0.671741400634,9.719266698573E-03,-2.33E-02)
  );
#643 = CARTESIAN_POINT('',(-0.973052804423,3.749355677893E-03,0.417));
#644 = CARTESIAN_POINT('',(-0.669340853448,8.22253505735E-03,-2.33E-02)
  );
#645 = CARTESIAN_POINT('',(-0.972126756656,3.171968571299E-03,0.417));
#646 = CARTESIAN_POINT('',(-0.667359776356,6.679222164438E-03,-2.33E-02)
  );
#647 = CARTESIAN_POINT('',(-0.971362525889,2.57661203492E-03,0.417));
#648 = CARTESIAN_POINT('',(-0.665801152725,5.087709973811E-03,-2.33E-02)
  );
#649 = CARTESIAN_POINT('',(-0.970761263001,1.962661882771E-03,0.417));
#650 = CARTESIAN_POINT('',(-0.66467050039,3.443266308351E-03,-2.33E-02)
  );
#651 = CARTESIAN_POINT('',(-0.970325096582,1.328292605203E-03,0.417));
#652 = CARTESIAN_POINT('',(-0.663981008444,1.741107869662E-03,-2.33E-02)
  );
#653 = CARTESIAN_POINT('',(-0.970059114526,6.716589717512E-04,0.417));
#654 = CARTESIAN_POINT('',(-0.663752824973,8.666470651742E-20,-2.33E-02)
  );
#655 = CARTESIAN_POINT('',(-0.969971089264,0.,0.417));
#656 = CARTESIAN_POINT('',(-0.663981008444,-1.741107869662E-03,-2.33E-02
    ));
#657 = CARTESIAN_POINT('',(-0.970059114526,-6.716589717512E-04,0.417));
#658 = CARTESIAN_POINT('',(-0.66467050039,-3.443266308351E-03,-2.33E-02)
  );
#659 = CARTESIAN_POINT('',(-0.970325096582,-1.328292605203E-03,0.417));
#660 = CARTESIAN_POINT('',(-0.665801152725,-5.087709973811E-03,-2.33E-02
    ));
#661 = CARTESIAN_POINT('',(-0.970761263001,-1.962661882771E-03,0.417));
#662 = CARTESIAN_POINT('',(-0.667359776356,-6.679222164438E-03,-2.33E-02
    ));
#663 = CARTESIAN_POINT('',(-0.971362525889,-2.57661203492E-03,0.417));
#664 = CARTESIAN_POINT('',(-0.669340853448,-8.22253505735E-03,-2.33E-02)
  );
#665 = CARTESIAN_POINT('',(-0.972126756656,-3.171968571299E-03,0.417));
#666 = CARTESIAN_POINT('',(-0.671741400634,-9.719266698573E-03,-2.33E-02
    ));
#667 = CARTESIAN_POINT('',(-0.973052804423,-3.749355677893E-03,0.417));
#668 = CARTESIAN_POINT('',(-0.674558220213,-1.116837985568E-02,-2.33E-02
    ));
#669 = CARTESIAN_POINT('',(-0.974139435627,-4.308373226441E-03,0.417));
#670 = CARTESIAN_POINT('',(-0.677786975477,-1.256728908099E-02,-2.33E-02
    ));
#671 = CARTESIAN_POINT('',(-0.975384977319,-4.848023840982E-03,0.417));
#672 = CARTESIAN_POINT('',(-0.681422072343,-1.391257069622E-02,-2.33E-02
    ));
#673 = CARTESIAN_POINT('',(-0.976787271493,-5.366986785292E-03,0.417));
#674 = CARTESIAN_POINT('',(-0.685456739704,-1.52003811676E-02,-2.33E-02)
  );
#675 = CARTESIAN_POINT('',(-0.978343706093,-5.863779357474E-03,0.417));
#676 = CARTESIAN_POINT('',(-0.689883139688,-1.642669769365E-02,-2.33E-02
    ));
#677 = CARTESIAN_POINT('',(-0.98005125754,-6.336849700375E-03,0.417));
#678 = CARTESIAN_POINT('',(-0.694692459493,-1.758747496074E-02,-2.33E-02
    ));
#679 = CARTESIAN_POINT('',(-0.981906526161,-6.784637272431E-03,0.417));
#680 = CARTESIAN_POINT('',(-0.69987498269,-1.867876002378E-02,-2.33E-02)
  );
#681 = CARTESIAN_POINT('',(-0.983905763693,-7.20561716466E-03,0.417));
#682 = CARTESIAN_POINT('',(-0.705420144783,-1.969678612589E-02,-2.33E-02
    ));
#683 = CARTESIAN_POINT('',(-0.986044894723,-7.598336293024E-03,0.417));
#684 = CARTESIAN_POINT('',(-0.711316578601,-2.063805376897E-02,-2.33E-02
    ));
#685 = CARTESIAN_POINT('',(-0.988319534189,-7.961444672642E-03,0.417));
#686 = CARTESIAN_POINT('',(-0.717552153491,-2.149940220954E-02,-2.33E-02
    ));
#687 = CARTESIAN_POINT('',(-0.990725002507,-8.29372299841E-03,0.417));
#688 = CARTESIAN_POINT('',(-0.724114010994,-2.227807207553E-02,-2.33E-02
    ));
#689 = CARTESIAN_POINT('',(-0.99325633933,-8.594106800379E-03,0.417));
#690 = CARTESIAN_POINT('',(-0.73098859872,-2.297175883586E-02,-2.33E-02)
  );
#691 = CARTESIAN_POINT('',(-0.995908316616,-8.86170707046E-03,0.417));
#692 = CARTESIAN_POINT('',(-0.73816170346,-2.35786565344E-02,-2.33E-02)
  );
#693 = CARTESIAN_POINT('',(-0.998675451403,-9.095827133471E-03,0.417));
#694 = CARTESIAN_POINT('',(-0.745618484213,-2.409749121358E-02,-2.33E-02
    ));
#695 = CARTESIAN_POINT('',(-1.001552018548,-9.295975540817E-03,0.417));
#696 = CARTESIAN_POINT('',(-0.753343505511,-2.452754362219E-02,-2.33E-02
    ));
#697 = CARTESIAN_POINT('',(-1.004532063583,-9.461874830343E-03,0.417));
#698 = CARTESIAN_POINT('',(-0.761320771289,-2.486866104589E-02,-2.33E-02
    ));
#699 = CARTESIAN_POINT('',(-1.007609415781,-9.593466090161E-03,0.417));
#700 = CARTESIAN_POINT('',(-0.769533759407,-2.512125837323E-02,-2.33E-02
    ));
#701 = CARTESIAN_POINT('',(-1.010777701474,-9.690909369871E-03,0.417));
#702 = CARTESIAN_POINT('',(-0.777965456909,-2.528630878721E-02,-2.33E-02
    ));
#703 = CARTESIAN_POINT('',(-1.014030357655,-9.754580089689E-03,0.417));
#704 = CARTESIAN_POINT('',(-0.786598396024,-2.53653247372E-02,-2.33E-02)
  );
#705 = CARTESIAN_POINT('',(-1.017360645864,-9.785061700074E-03,0.417));
#706 = CARTESIAN_POINT('',(-0.795414690895,-2.53603300863E-02,-2.33E-02)
  );
#707 = CARTESIAN_POINT('',(-1.020761666359,-9.783134937149E-03,0.417));
#708 = CARTESIAN_POINT('',(-0.804396075022,-2.527382453643E-02,-2.33E-02
    ));
#709 = CARTESIAN_POINT('',(-1.024226372557,-9.74976409914E-03,0.417));
#710 = CARTESIAN_POINT('',(-0.813523939358,-2.510874160143E-02,-2.33E-02
    ));
#711 = CARTESIAN_POINT('',(-1.027747585735,-9.686080833843E-03,0.417));
#712 = CARTESIAN_POINT('',(-0.822779371026,-2.486840152262E-02,-2.33E-02
    ));
#713 = CARTESIAN_POINT('',(-1.03131800996,-9.593365975095E-03,0.417));
#714 = CARTESIAN_POINT('',(-0.832143192586,-2.45564605992E-02,-2.33E-02)
  );
#715 = CARTESIAN_POINT('',(-1.034930247243,-9.473029996189E-03,0.417));
#716 = CARTESIAN_POINT('',(-0.841596001795,-2.417685843564E-02,-2.33E-02
    ));
#717 = CARTESIAN_POINT('',(-1.038576812872,-9.326592659771E-03,0.417));
#718 = CARTESIAN_POINT('',(-0.8511182118,-2.373376459129E-02,-2.33E-02)
  );
#719 = CARTESIAN_POINT('',(-1.042250150919,-9.155662437082E-03,0.417));
#720 = CARTESIAN_POINT('',(-0.860690091687,-2.323152605421E-02,-2.33E-02
    ));
#721 = CARTESIAN_POINT('',(-1.045942649881,-8.961916245209E-03,0.417));
#722 = CARTESIAN_POINT('',(-0.87029180731,-2.26746168567E-02,-2.33E-02)
  );
#723 = CARTESIAN_POINT('',(-1.049646658435,-8.74708001049E-03,0.417));
#724 = CARTESIAN_POINT('',(-0.879903462342,-2.206759100688E-02,-2.33E-02
    ));
#725 = CARTESIAN_POINT('',(-1.053354501268,-8.512910511159E-03,0.417));
#726 = CARTESIAN_POINT('',(-0.889505139451,-2.14150397362E-02,-2.33E-02)
  );
#727 = CARTESIAN_POINT('',(-1.057058494964,-8.261178884924E-03,0.417));
#728 = CARTESIAN_POINT('',(-0.899076941533,-2.07215538622E-02,-2.33E-02)
  );
#729 = CARTESIAN_POINT('',(-1.060750963913,-7.993656109816E-03,0.417));
#730 = CARTESIAN_POINT('',(-0.908599032913,-1.999169184722E-02,-2.33E-02
    ));
#731 = CARTESIAN_POINT('',(-1.064424256198,-7.712100682354E-03,0.417));
#732 = CARTESIAN_POINT('',(-0.918051680438,-1.922995390445E-02,-2.33E-02
    ));
#733 = CARTESIAN_POINT('',(-1.068070759454,-7.418248628556E-03,0.417));
#734 = CARTESIAN_POINT('',(-0.927415294369,-1.844076227059E-02,-2.33E-02
    ));
#735 = CARTESIAN_POINT('',(-1.071682916641,-7.113805893819E-03,0.417));
#736 = CARTESIAN_POINT('',(-0.936670468996,-1.762844753741E-02,-2.33E-02
    ));
#737 = CARTESIAN_POINT('',(-1.075253241709,-6.800443070107E-03,0.417));
#738 = CARTESIAN_POINT('',(-0.94579802288,-1.679724071999E-02,-2.33E-02)
  );
#739 = CARTESIAN_POINT('',(-1.078774335125,-6.47979233615E-03,0.417));
#740 = CARTESIAN_POINT('',(-0.954779038647,-1.595127054442E-02,-2.33E-02
    ));
#741 = CARTESIAN_POINT('',(-1.082238899223,-6.153446411148E-03,0.417));
#742 = CARTESIAN_POINT('',(-0.96359490224,-1.509456526872E-02,-2.33E-02)
  );
#743 = CARTESIAN_POINT('',(-1.085639753346,-5.822959257195E-03,0.417));
#744 = CARTESIAN_POINT('',(-0.972227341559,-1.423105821183E-02,-2.33E-02
    ));
#745 = CARTESIAN_POINT('',(-1.088969848751,-5.489848212187E-03,0.417));
#746 = CARTESIAN_POINT('',(-0.980658464385,-1.336459606247E-02,-2.33E-02
    ));
#747 = CARTESIAN_POINT('',(-1.092222283242,-5.155597195099E-03,0.417));
#748 = CARTESIAN_POINT('',(-0.988870795533,-1.249894897358E-02,-2.33E-02
    ));
#749 = CARTESIAN_POINT('',(-1.095390315499,-4.821660600037E-03,0.417));
#750 = CARTESIAN_POINT('',(-0.996847313133,-1.163782142105E-02,-2.33E-02
    ));
#751 = CARTESIAN_POINT('',(-1.098467379076,-4.48946748521E-03,0.417));
#752 = CARTESIAN_POINT('',(-1.004571483979,-1.078486281845E-02,-2.33E-02
    ));
#753 = CARTESIAN_POINT('',(-1.101447096036,-4.160425667669E-03,0.417));
#754 = CARTESIAN_POINT('',(-1.012027297857,-9.943676928915E-03,-2.33E-02
    ));
#755 = CARTESIAN_POINT('',(-1.104323290193,-3.835925354125E-03,0.417));
#756 = CARTESIAN_POINT('',(-1.019199300789,-9.117829201571E-03,-2.33E-02
    ));
#757 = CARTESIAN_POINT('',(-1.107089999941,-3.517341971075E-03,0.417));
#758 = CARTESIAN_POINT('',(-1.02607262712,-8.310851276463E-03,-2.33E-02)
  );
#759 = CARTESIAN_POINT('',(-1.109741490625,-3.206037902644E-03,0.417));
#760 = CARTESIAN_POINT('',(-1.032633030376,-7.526242045695E-03,-2.33E-02
    ));
#761 = CARTESIAN_POINT('',(-1.11227226645,-2.903362899936E-03,0.417));
#762 = CARTESIAN_POINT('',(-1.038866912835,-6.767464823135E-03,-2.33E-02
    ));
#763 = CARTESIAN_POINT('',(-1.114677081887,-2.61065298921E-03,0.417));
#764 = CARTESIAN_POINT('',(-1.04476135374,-6.037940354147E-03,-2.33E-02)
  );
#765 = CARTESIAN_POINT('',(-1.116950952557,-2.329227775272E-03,0.417));
#766 = CARTESIAN_POINT('',(-1.050304136101,-5.341035583787E-03,-2.33E-02
    ));
#767 = CARTESIAN_POINT('',(-1.119089165568,-2.060386108639E-03,0.417));
#768 = CARTESIAN_POINT('',(-1.055483772025,-4.680048289686E-03,-2.33E-02
    ));
#769 = CARTESIAN_POINT('',(-1.121087289291,-1.805400157434E-03,0.417));
#770 = CARTESIAN_POINT('',(-1.060289526525,-4.058187867474E-03,-2.33E-02
    ));
#771 = CARTESIAN_POINT('',(-1.122941182541,-1.565507995073E-03,0.417));
#772 = CARTESIAN_POINT('',(-1.064711439757,-3.478552725502E-03,-2.33E-02
    ));
#773 = CARTESIAN_POINT('',(-1.124647003154,-1.341904879935E-03,0.417));
#774 = CARTESIAN_POINT('',(-1.06874034763,-2.944104895734E-03,-2.33E-02)
  );
#775 = CARTESIAN_POINT('',(-1.126201215944,-1.135733461122E-03,0.417));
#776 = CARTESIAN_POINT('',(-1.07236790077,-2.457642593497E-03,-2.33E-02)
  );
#777 = CARTESIAN_POINT('',(-1.127600600011,-9.480731929614E-04,0.417));
#778 = CARTESIAN_POINT('',(-1.075586581773,-2.021771556094E-03,-2.33E-02
    ));
#779 = CARTESIAN_POINT('',(-1.128842255402,-7.79929278446E-04,0.417));
#780 = CARTESIAN_POINT('',(-1.078389720732,-1.638876055546E-03,-2.33E-02
    ));
#781 = CARTESIAN_POINT('',(-1.129923609099,-6.322214869488E-04,0.417));
#782 = CARTESIAN_POINT('',(-1.080771509007,-1.311090511886E-03,-2.33E-02
    ));
#783 = CARTESIAN_POINT('',(-1.130842420329,-5.057732036197E-04,0.417));
#784 = CARTESIAN_POINT('',(-1.0827270112,-1.040272629453E-03,-2.33E-02)
  );
#785 = CARTESIAN_POINT('',(-1.131596785187,-4.013010663006E-04,0.417));
#786 = CARTESIAN_POINT('',(-1.084252175326,-8.279789401174E-04,-2.33E-02
    ));
#787 = CARTESIAN_POINT('',(-1.13218514056,-3.194055309502E-04,0.417));
#788 = CARTESIAN_POINT('',(-1.085343841164,-6.754435653005E-04,-2.33E-02
    ));
#789 = CARTESIAN_POINT('',(-1.132606267342,-2.605626787695E-04,0.417));
#790 = CARTESIAN_POINT('',(-1.085999746755,-5.8356090739E-04,-2.33E-02)
  );
#791 = CARTESIAN_POINT('',(-1.132859292948,-2.251175391493E-04,0.417));
#792 = CARTESIAN_POINT('',(-1.08629151405,-5.426361738388E-04,-2.33E-02)
  );
#793 = CARTESIAN_POINT('',(-1.132971846642,-2.093301976898E-04,0.417));
#794 = CARTESIAN_POINT('',(-1.086364494589,-5.323962744646E-04,-2.33E-02
    ));
#795 = CARTESIAN_POINT('',(-1.133,-2.0538E-04,0.417));
#796 = DEFINITIONAL_REPRESENTATION('',(#797),#801);
#797 = LINE('',#798,#799);
#798 = CARTESIAN_POINT('',(0.861626396576,0.));
#799 = VECTOR('',#800,1.);
#800 = DIRECTION('',(0.,1.));
#801 = ( GEOMETRIC_REPRESENTATION_CONTEXT(2) 
PARAMETRIC_REPRESENTATION_CONTEXT() REPRESENTATION_CONTEXT('2D SPACE',''
  ) );
#802 = ORIENTED_EDGE('',*,*,#803,.F.);
#803 = EDGE_CURVE('',#22,#497,#804,.T.);
#804 = SURFACE_CURVE('',#805,(#808,#814),.PCURVE_S1.);
#805 = B_SPLINE_CURVE_WITH_KNOTS('',1,(#806,#807),.UNSPECIFIED.,.F.,.F.,
  (2,2),(0.,1.),.PIECEWISE_BEZIER_KNOTS.);
#806 = CARTESIAN_POINT('',(-1.087529587843,5.242264379461E-04,-1.23E-02)
  );
#807 = CARTESIAN_POINT('',(-1.087529587843,-5.242264379461E-04,-1.23E-02
    ));
#808 = PCURVE('',#321,#809);
#809 = DEFINITIONAL_REPRESENTATION('',(#810),#813);
#810 = B_SPLINE_CURVE_WITH_KNOTS('',1,(#811,#812),.UNSPECIFIED.,.F.,.F.,
  (2,2),(0.,1.),.PIECEWISE_BEZIER_KNOTS.);
#811 = CARTESIAN_POINT('',(1.064792548929E-03,2.498296615944E-02));
#812 = CARTESIAN_POINT('',(0.,2.498296615944E-02));
#813 = ( GEOMETRIC_REPRESENTATION_CONTEXT(2) 
PARAMETRIC_REPRESENTATION_CONTEXT() REPRESENTATION_CONTEXT('2D SPACE',''
  ) );
#814 = PCURVE('',#363,#815);
#815 = DEFINITIONAL_REPRESENTATION('',(#816),#819);
#816 = B_SPLINE_CURVE_WITH_KNOTS('',1,(#817,#818),.UNSPECIFIED.,.F.,.F.,
  (2,2),(0.,1.),.PIECEWISE_BEZIER_KNOTS.);
#817 = CARTESIAN_POINT('',(0.912470412157,1.000524226438));
#818 = CARTESIAN_POINT('',(0.912470412157,0.999475773562));
#819 = ( GEOMETRIC_REPRESENTATION_CONTEXT(2) 
PARAMETRIC_REPRESENTATION_CONTEXT() REPRESENTATION_CONTEXT('2D SPACE',''
  ) );
#820 = ORIENTED_EDGE('',*,*,#21,.T.);
#821 = ORIENTED_EDGE('',*,*,#822,.T.);
#822 = EDGE_CURVE('',#24,#499,#823,.T.);
#823 = SURFACE_CURVE('',#824,(#827,#833),.PCURVE_S1.);
#824 = B_SPLINE_CURVE_WITH_KNOTS('',1,(#825,#826),.UNSPECIFIED.,.F.,.F.,
  (2,2),(0.,1.),.PIECEWISE_BEZIER_KNOTS.);
#825 = CARTESIAN_POINT('',(-1.131194254834,2.180421991496E-04,
    0.399951410309));
#826 = CARTESIAN_POINT('',(-1.131194254834,-2.180421991496E-04,
    0.399951410309));
#827 = PCURVE('',#321,#828);
#828 = DEFINITIONAL_REPRESENTATION('',(#829),#832);
#829 = B_SPLINE_CURVE_WITH_KNOTS('',1,(#830,#831),.UNSPECIFIED.,.F.,.F.,
  (2,2),(0.,1.),.PIECEWISE_BEZIER_KNOTS.);
#830 = CARTESIAN_POINT('',(1.064792548929E-03,0.961279605517));
#831 = CARTESIAN_POINT('',(0.,0.961279605517));
#832 = ( GEOMETRIC_REPRESENTATION_CONTEXT(2) 
PARAMETRIC_REPRESENTATION_CONTEXT() REPRESENTATION_CONTEXT('2D SPACE',''
  ) );
#833 = PCURVE('',#476,#834);
#834 = DEFINITIONAL_REPRESENTATION('',(#835),#838);
#835 = B_SPLINE_CURVE_WITH_KNOTS('',1,(#836,#837),.UNSPECIFIED.,.F.,.F.,
  (2,2),(0.,1.),.PIECEWISE_BEZIER_KNOTS.);
#836 = CARTESIAN_POINT('',(7.320707842656E-02,0.999781957801));
#837 = CARTESIAN_POINT('',(7.320707842656E-02,1.000218042199));
#838 = ( GEOMETRIC_REPRESENTATION_CONTEXT(2) 
PARAMETRIC_REPRESENTATION_CONTEXT() REPRESENTATION_CONTEXT('2D SPACE',''
  ) );
#839 = ADVANCED_FACE('',(#840),#476,.T.);
#840 = FACE_BOUND('',#841,.T.);
#841 = EDGE_LOOP('',(#842,#865,#866,#867));
#842 = ORIENTED_EDGE('',*,*,#843,.F.);
#843 = EDGE_CURVE('',#383,#844,#846,.T.);
#844 = VERTEX_POINT('',#845);
#845 = CARTESIAN_POINT('',(-1.06,-8.046737698038E-03,0.417));
#846 = SURFACE_CURVE('',#847,(#851,#858),.PCURVE_S1.);
#847 = LINE('',#848,#849);
#848 = CARTESIAN_POINT('',(-1.06,1.,0.417));
#849 = VECTOR('',#850,1.);
#850 = DIRECTION('',(0.,-1.,0.));
#851 = PCURVE('',#476,#852);
#852 = DEFINITIONAL_REPRESENTATION('',(#853),#857);
#853 = LINE('',#854,#855);
#854 = CARTESIAN_POINT('',(0.,0.));
#855 = VECTOR('',#856,1.);
#856 = DIRECTION('',(0.,1.));
#857 = ( GEOMETRIC_REPRESENTATION_CONTEXT(2) 
PARAMETRIC_REPRESENTATION_CONTEXT() REPRESENTATION_CONTEXT('2D SPACE',''
  ) );
#858 = PCURVE('',#426,#859);
#859 = DEFINITIONAL_REPRESENTATION('',(#860),#864);
#860 = LINE('',#861,#862);
#861 = CARTESIAN_POINT('',(0.494578649288,0.));
#862 = VECTOR('',#863,1.);
#863 = DIRECTION('',(0.,-1.));
#864 = ( GEOMETRIC_REPRESENTATION_CONTEXT(2) 
PARAMETRIC_REPRESENTATION_CONTEXT() REPRESENTATION_CONTEXT('2D SPACE',''
  ) );
#865 = ORIENTED_EDGE('',*,*,#452,.T.);
#866 = ORIENTED_EDGE('',*,*,#822,.T.);
#867 = ORIENTED_EDGE('',*,*,#868,.T.);
#868 = EDGE_CURVE('',#499,#844,#869,.T.);
#869 = SURFACE_CURVE('',#870,(#879,#891),.PCURVE_S1.);
#870 = B_SPLINE_CURVE_WITH_KNOTS('',4,(#871,#872,#873,#874,#875,#876,
    #877,#878),.UNSPECIFIED.,.F.,.F.,(5,3,5),(0.,0.640397768066,1.),
  .UNSPECIFIED.);
#871 = CARTESIAN_POINT('',(-1.131194254834,-2.180421991496E-04,
    0.399951410309));
#872 = CARTESIAN_POINT('',(-1.11925808335,-1.933161627725E-03,
    0.402809715247));
#873 = CARTESIAN_POINT('',(-1.107551367966,-3.414467697906E-03,
    0.405613073294));
#874 = CARTESIAN_POINT('',(-1.096078952585,-4.729170157433E-03,
    0.408360324502));
#875 = CARTESIAN_POINT('',(-1.078518897552,-6.500021840609E-03,
    0.412565357252));
#876 = CARTESIAN_POINT('',(-1.072275917942,-7.079705097252E-03,
    0.414060337403));
#877 = CARTESIAN_POINT('',(-1.06610341714,-7.599686747884E-03,
    0.415538440289));
#878 = CARTESIAN_POINT('',(-1.06,-8.046737698035E-03,0.417));
#879 = PCURVE('',#476,#880);
#880 = DEFINITIONAL_REPRESENTATION('',(#881),#890);
#881 = B_SPLINE_CURVE_WITH_KNOTS('',4,(#882,#883,#884,#885,#886,#887,
    #888,#889),.UNSPECIFIED.,.F.,.F.,(5,3,5),(0.,0.640397768066,1.),
  .UNSPECIFIED.);
#882 = CARTESIAN_POINT('',(7.320707842656E-02,1.000218042199));
#883 = CARTESIAN_POINT('',(6.093344421314E-02,1.001933161628));
#884 = CARTESIAN_POINT('',(4.889575334539E-02,1.003414467698));
#885 = CARTESIAN_POINT('',(3.709898667526E-02,1.004729170157));
#886 = CARTESIAN_POINT('',(1.904246892694E-02,1.006500021841));
#887 = CARTESIAN_POINT('',(1.262298607737E-02,1.007079705097));
#888 = CARTESIAN_POINT('',(6.275974631584E-03,1.007599686748));
#889 = CARTESIAN_POINT('',(-2.22044604925E-16,1.008046737698));
#890 = ( GEOMETRIC_REPRESENTATION_CONTEXT(2) 
PARAMETRIC_REPRESENTATION_CONTEXT() REPRESENTATION_CONTEXT('2D SPACE',''
  ) );
#891 = PCURVE('',#513,#892);
#892 = DEFINITIONAL_REPRESENTATION('',(#893),#902);
#893 = B_SPLINE_CURVE_WITH_KNOTS('',4,(#894,#895,#896,#897,#898,#899,
    #900,#901),.UNSPECIFIED.,.F.,.F.,(5,3,5),(0.,0.640397768066,1.),
  .UNSPECIFIED.);
#894 = CARTESIAN_POINT('',(0.861626396576,0.961279605517));
#895 = CARTESIAN_POINT('',(0.831449759882,0.967771326929));
#896 = CARTESIAN_POINT('',(0.80113720522,0.974138254131));
#897 = CARTESIAN_POINT('',(0.770696399475,0.980377752673));
#898 = CARTESIAN_POINT('',(0.722975105036,0.989928133664));
#899 = CARTESIAN_POINT('',(0.705776638538,0.993323500801));
#900 = CARTESIAN_POINT('',(0.688541836364,0.996680536654));
#901 = CARTESIAN_POINT('',(0.671272097777,1.));
#902 = ( GEOMETRIC_REPRESENTATION_CONTEXT(2) 
PARAMETRIC_REPRESENTATION_CONTEXT() REPRESENTATION_CONTEXT('2D SPACE',''
  ) );
#903 = ADVANCED_FACE('',(#904),#426,.F.);
#904 = FACE_BOUND('',#905,.F.);
#905 = EDGE_LOOP('',(#906,#907,#908,#929));
#906 = ORIENTED_EDGE('',*,*,#843,.F.);
#907 = ORIENTED_EDGE('',*,*,#382,.F.);
#908 = ORIENTED_EDGE('',*,*,#909,.F.);
#909 = EDGE_CURVE('',#910,#334,#912,.T.);
#910 = VERTEX_POINT('',#911);
#911 = CARTESIAN_POINT('',(-0.957197329035,-1.577532934062E-02,-1.23E-02
    ));
#912 = SURFACE_CURVE('',#913,(#917,#923),.PCURVE_S1.);
#913 = LINE('',#914,#915);
#914 = CARTESIAN_POINT('',(-0.957197329035,0.,-1.23E-02));
#915 = VECTOR('',#916,1.);
#916 = DIRECTION('',(0.,1.,-0.));
#917 = PCURVE('',#426,#918);
#918 = DEFINITIONAL_REPRESENTATION('',(#919),#922);
#919 = B_SPLINE_CURVE_WITH_KNOTS('',1,(#920,#921),.UNSPECIFIED.,.F.,.F.,
  (2,2),(-1.596748791757E-02,1.596748791757E-02),
  .PIECEWISE_BEZIER_KNOTS.);
#920 = CARTESIAN_POINT('',(5.314136137794E-02,-1.015967487918));
#921 = CARTESIAN_POINT('',(5.314136137794E-02,-0.984032512082));
#922 = ( GEOMETRIC_REPRESENTATION_CONTEXT(2) 
PARAMETRIC_REPRESENTATION_CONTEXT() REPRESENTATION_CONTEXT('2D SPACE',''
  ) );
#923 = PCURVE('',#363,#924);
#924 = DEFINITIONAL_REPRESENTATION('',(#925),#928);
#925 = B_SPLINE_CURVE_WITH_KNOTS('',1,(#926,#927),.UNSPECIFIED.,.F.,.F.,
  (2,2),(-1.596748791757E-02,1.596748791757E-02),
  .PIECEWISE_BEZIER_KNOTS.);
#926 = CARTESIAN_POINT('',(1.042802670965,0.984032512082));
#927 = CARTESIAN_POINT('',(1.042802670965,1.015967487918));
#928 = ( GEOMETRIC_REPRESENTATION_CONTEXT(2) 
PARAMETRIC_REPRESENTATION_CONTEXT() REPRESENTATION_CONTEXT('2D SPACE',''
  ) );
#929 = ORIENTED_EDGE('',*,*,#930,.T.);
#930 = EDGE_CURVE('',#910,#844,#931,.T.);
#931 = SURFACE_CURVE('',#932,(#950,#971),.PCURVE_S1.);
#932 = B_SPLINE_CURVE_WITH_KNOTS('',6,(#933,#934,#935,#936,#937,#938,
    #939,#940,#941,#942,#943,#944,#945,#946,#947,#948,#949),
  .UNSPECIFIED.,.F.,.F.,(7,5,5,7),(0.,0.504303510002,0.851360217007,1.),
  .UNSPECIFIED.);
#933 = CARTESIAN_POINT('',(-0.954563205158,-1.596748791757E-02,-2.33E-02
    ));
#934 = CARTESIAN_POINT('',(-0.963439691526,-1.532012674269E-02,
    1.376786566944E-02));
#935 = CARTESIAN_POINT('',(-0.972315600176,-1.467140702282E-02,
    5.08333188113E-02));
#936 = CARTESIAN_POINT('',(-0.981190969337,-1.402099529484E-02,
    8.789651906876E-02));
#937 = CARTESIAN_POINT('',(-0.990065483481,-1.336839794399E-02,
    0.124956148807));
#938 = CARTESIAN_POINT('',(-0.998938504746,-1.271300248248E-02,
    0.162009544337));
#939 = CARTESIAN_POINT('',(-1.013913151961,-1.159928620061E-02,
    0.224543095162));
#940 = CARTESIAN_POINT('',(-1.020015842864,-1.114326375774E-02,
    0.250027697653));
#941 = CARTESIAN_POINT('',(-1.026116897538,-1.068470557263E-02,
    0.275505467314));
#942 = CARTESIAN_POINT('',(-1.032215373294,-1.022284441595E-02,
    0.300972467515));
#943 = CARTESIAN_POINT('',(-1.038309369803,-9.756781431536E-03,
    0.326420762551));
#944 = CARTESIAN_POINT('',(-1.047001560667,-9.081686019457E-03,
    0.362719017283));
#945 = CARTESIAN_POINT('',(-1.049606393714,-8.878047871035E-03,
    0.373596699905));
#946 = CARTESIAN_POINT('',(-1.052209323611,-8.673011122236E-03,
    0.384466435041));
#947 = CARTESIAN_POINT('',(-1.054809828561,-8.466348954153E-03,
    0.395326043691));
#948 = CARTESIAN_POINT('',(-1.057407102354,-8.257745327019E-03,
    0.406172159158));
#949 = CARTESIAN_POINT('',(-1.06,-8.046737698035E-03,0.417));
#950 = PCURVE('',#426,#951);
#951 = DEFINITIONAL_REPRESENTATION('',(#952),#970);
#952 = B_SPLINE_CURVE_WITH_KNOTS('',6,(#953,#954,#955,#956,#957,#958,
    #959,#960,#961,#962,#963,#964,#965,#966,#967,#968,#969),
  .UNSPECIFIED.,.F.,.F.,(7,5,5,7),(0.,0.504303510002,0.851360217007,1.),
  .UNSPECIFIED.);
#953 = CARTESIAN_POINT('',(4.183036634647E-02,-1.015967487918));
#954 = CARTESIAN_POINT('',(7.994622492959E-02,-1.015320126743));
#955 = CARTESIAN_POINT('',(0.118059602777,-1.014671407023));
#956 = CARTESIAN_POINT('',(0.156170664047,-1.014020995295));
#957 = CARTESIAN_POINT('',(0.194278053851,-1.013368397944));
#958 = CARTESIAN_POINT('',(0.23237903319,-1.012713002482));
#959 = CARTESIAN_POINT('',(0.296680549798,-1.011599286201));
#960 = CARTESIAN_POINT('',(0.322885659993,-1.011143263758));
#961 = CARTESIAN_POINT('',(0.34908374418,-1.010684705573));
#962 = CARTESIAN_POINT('',(0.375270754429,-1.010222844416));
#963 = CARTESIAN_POINT('',(0.401438530675,-1.009756781432));
#964 = CARTESIAN_POINT('',(0.438763019669,-1.009081686019));
#965 = CARTESIAN_POINT('',(0.449948239131,-1.008878047871));
#966 = CARTESIAN_POINT('',(0.461125286415,-1.008673011122));
#967 = CARTESIAN_POINT('',(0.472291920914,-1.008466348954));
#968 = CARTESIAN_POINT('',(0.483444680746,-1.008257745327));
#969 = CARTESIAN_POINT('',(0.494578649288,-1.008046737698));
#970 = ( GEOMETRIC_REPRESENTATION_CONTEXT(2) 
PARAMETRIC_REPRESENTATION_CONTEXT() REPRESENTATION_CONTEXT('2D SPACE',''
  ) );
#971 = PCURVE('',#513,#972);
#972 = DEFINITIONAL_REPRESENTATION('',(#973),#991);
#973 = B_SPLINE_CURVE_WITH_KNOTS('',6,(#974,#975,#976,#977,#978,#979,
    #980,#981,#982,#983,#984,#985,#986,#987,#988,#989,#990),
  .UNSPECIFIED.,.F.,.F.,(7,5,5,7),(0.,0.504303510002,0.851360217007,1.),
  .UNSPECIFIED.);
#974 = CARTESIAN_POINT('',(0.728914085797,0.));
#975 = CARTESIAN_POINT('',(0.727040347359,8.41877485111E-02));
#976 = CARTESIAN_POINT('',(0.724934077739,0.168370017741));
#977 = CARTESIAN_POINT('',(0.72254284978,0.252547170267));
#978 = CARTESIAN_POINT('',(0.719785471632,0.336716213508));
#979 = CARTESIAN_POINT('',(0.71655749995,0.420871097744));
#980 = CARTESIAN_POINT('',(0.709917935754,0.562895969026));
#981 = CARTESIAN_POINT('',(0.706877171254,0.620776056446));
#982 = CARTESIAN_POINT('',(0.70342701292,0.678640625287));
#983 = CARTESIAN_POINT('',(0.699452579392,0.73648073476));
#984 = CARTESIAN_POINT('',(0.69480462023,0.794278361461));
#985 = CARTESIAN_POINT('',(0.686739581166,0.876718185972));
#986 = CARTESIAN_POINT('',(0.684138107923,0.901423347502));
#987 = CARTESIAN_POINT('',(0.681327440509,0.926110458871));
#988 = CARTESIAN_POINT('',(0.678276288745,0.950774571182));
#989 = CARTESIAN_POINT('',(0.674943286369,0.975408038061));
#990 = CARTESIAN_POINT('',(0.671272097777,1.));
#991 = ( GEOMETRIC_REPRESENTATION_CONTEXT(2) 
PARAMETRIC_REPRESENTATION_CONTEXT() REPRESENTATION_CONTEXT('2D SPACE',''
  ) );
#992 = ADVANCED_FACE('',(#993),#363,.F.);
#993 = FACE_BOUND('',#994,.F.);
#994 = EDGE_LOOP('',(#995,#996,#997,#998));
#995 = ORIENTED_EDGE('',*,*,#909,.T.);
#996 = ORIENTED_EDGE('',*,*,#333,.T.);
#997 = ORIENTED_EDGE('',*,*,#803,.T.);
#998 = ORIENTED_EDGE('',*,*,#999,.T.);
#999 = EDGE_CURVE('',#497,#910,#1000,.T.);
#1000 = SURFACE_CURVE('',#1001,(#1012,#1026),.PCURVE_S1.);
#1001 = B_SPLINE_CURVE_WITH_KNOTS('',5,(#1002,#1003,#1004,#1005,#1006,
    #1007,#1008,#1009,#1010,#1011),.UNSPECIFIED.,.F.,.F.,(6,4,6),(0.,
    0.470999689428,1.),.UNSPECIFIED.);
#1002 = CARTESIAN_POINT('',(-1.087529587843,-5.242264379461E-04,
    -1.23E-02));
#1003 = CARTESIAN_POINT('',(-1.07004457949,-2.977547954366E-03,-1.23E-02
    ));
#1004 = CARTESIAN_POINT('',(-1.052537694841,-5.274210786898E-03,
    -1.23E-02));
#1005 = CARTESIAN_POINT('',(-1.035013694547,-7.437075456669E-03,
    -1.23E-02));
#1006 = CARTESIAN_POINT('',(-1.01747541634,-9.477891221813E-03,-1.23E-02
    ));
#1007 = CARTESIAN_POINT('',(-0.98021076054,-1.355306345387E-02,-1.23E-02
    ));
#1008 = CARTESIAN_POINT('',(-0.960481114272,-1.55555588211E-02,-1.23E-02
    ));
#1009 = CARTESIAN_POINT('',(-0.940736123224,-1.740469847289E-02,
    -1.23E-02));
#1010 = CARTESIAN_POINT('',(-0.920975554756,-1.90818073324E-02,-1.23E-02
    ));
#1011 = CARTESIAN_POINT('',(-0.901198635563,-2.05391058395E-02,-1.23E-02
    ));
#1012 = PCURVE('',#363,#1013);
#1013 = DEFINITIONAL_REPRESENTATION('',(#1014),#1025);
#1014 = B_SPLINE_CURVE_WITH_KNOTS('',5,(#1015,#1016,#1017,#1018,#1019,
    #1020,#1021,#1022,#1023,#1024),.UNSPECIFIED.,.F.,.F.,(6,4,6),(0.,
    0.470999689428,1.),.UNSPECIFIED.);
#1015 = CARTESIAN_POINT('',(0.912470412157,0.999475773562));
#1016 = CARTESIAN_POINT('',(0.92995542051,0.997022452046));
#1017 = CARTESIAN_POINT('',(0.947462305159,0.994725789213));
#1018 = CARTESIAN_POINT('',(0.964986305453,0.992562924543));
#1019 = CARTESIAN_POINT('',(0.98252458366,0.990522108778));
#1020 = CARTESIAN_POINT('',(1.01978923946,0.986446936546));
#1021 = CARTESIAN_POINT('',(1.039518885728,0.984444441179));
#1022 = CARTESIAN_POINT('',(1.059263876776,0.982595301527));
#1023 = CARTESIAN_POINT('',(1.079024445244,0.980918192668));
#1024 = CARTESIAN_POINT('',(1.098801364437,0.979460894161));
#1025 = ( GEOMETRIC_REPRESENTATION_CONTEXT(2) 
PARAMETRIC_REPRESENTATION_CONTEXT() REPRESENTATION_CONTEXT('2D SPACE',''
  ) );
#1026 = PCURVE('',#513,#1027);
#1027 = DEFINITIONAL_REPRESENTATION('',(#1028),#1039);
#1028 = B_SPLINE_CURVE_WITH_KNOTS('',5,(#1029,#1030,#1031,#1032,#1033,
    #1034,#1035,#1036,#1037,#1038),.UNSPECIFIED.,.F.,.F.,(6,4,6),(0.,
    0.470999689428,1.),.UNSPECIFIED.);
#1029 = CARTESIAN_POINT('',(0.861626396576,2.498296615944E-02));
#1030 = CARTESIAN_POINT('',(0.843694948974,2.498296615944E-02));
#1031 = CARTESIAN_POINT('',(0.825763527583,2.498296615944E-02));
#1032 = CARTESIAN_POINT('',(0.807832108932,2.498296615944E-02));
#1033 = CARTESIAN_POINT('',(0.789900680205,2.498296615944E-02));
#1034 = CARTESIAN_POINT('',(0.751829655179,2.498296615944E-02));
#1035 = CARTESIAN_POINT('',(0.731690220092,2.498296615944E-02));
#1036 = CARTESIAN_POINT('',(0.711550516017,2.498296615944E-02));
#1037 = CARTESIAN_POINT('',(0.691411070652,2.498296615944E-02));
#1038 = CARTESIAN_POINT('',(0.671271497777,2.498296615944E-02));
#1039 = ( GEOMETRIC_REPRESENTATION_CONTEXT(2) 
PARAMETRIC_REPRESENTATION_CONTEXT() REPRESENTATION_CONTEXT('2D SPACE',''
  ) );
#1040 = ADVANCED_FACE('',(#1041),#513,.F.);
#1041 = FACE_BOUND('',#1042,.F.);
#1042 = EDGE_LOOP('',(#1043,#1044,#1045,#1046));
#1043 = ORIENTED_EDGE('',*,*,#930,.F.);
#1044 = ORIENTED_EDGE('',*,*,#999,.F.);
#1045 = ORIENTED_EDGE('',*,*,#496,.T.);
#1046 = ORIENTED_EDGE('',*,*,#868,.T.);
#1047 = ( GEOMETRIC_REPRESENTATION_CONTEXT(3) 
GLOBAL_UNCERTAINTY_ASSIGNED_CONTEXT((#1051)) 
GLOBAL_UNIT_ASSIGNED_CONTEXT((#1048,#1049,#1050)) REPRESENTATION_CONTEXT
('Context #1','3D Context with UNIT and UNCERTAINTY') );
#1048 = ( LENGTH_UNIT() NAMED_UNIT(*) SI_UNIT($,.METRE.) );
#1049 = ( NAMED_UNIT(*) PLANE_ANGLE_UNIT() SI_UNIT($,.RADIAN.) );
#1050 = ( NAMED_UNIT(*) SI_UNIT($,.STERADIAN.) SOLID_ANGLE_UNIT() );
#1051 = UNCERTAINTY_MEASURE_WITH_UNIT(LENGTH_MEASURE(5.E-06),#1048,
  'distance_accuracy_value','confusion accuracy');
#1052 = PRODUCT_RELATED_PRODUCT_CATEGORY('part',$,(#7));
ENDSEC;
END-ISO-10303-21;
